SplineFontDB: 3.0
FontName: Neuton-Bold
FullName: Neuton Bold
FamilyName: Neuton
Weight: Bold
Copyright: Copyright (c) 2010, 2011 Brian M Zick (http://21326.info/), \nwith Reserved Font Name 'Neuton'.\n\nThis Font Software is licensed under the SIL Open Font License, Version 1.1.This license is available with a FAQ at: http://scripts.sil.org/OFL\n   WITHOUT WARRANTIES OR CONDITIONS OF ANY KIND, either express or implied.\n   See the License for the specific language governing permissions and\n   limitations under the License.
UComments: "2011-6-14: Created." 
Version: 1.43
ItalicAngle: 0
UnderlinePosition: -361
UnderlineWidth: 0
Ascent: 1638
Descent: 410
LayerCount: 2
Layer: 0 1 "Back"  1
Layer: 1 1 "Fore"  0
NeedsXUIDChange: 1
XUID: [1021 467 2011608612 10656044]
FSType: 1
OS2Version: 1
OS2_WeightWidthSlopeOnly: 0
OS2_UseTypoMetrics: 0
CreationTime: 1308101163
ModificationTime: 1320286509
PfmFamily: 17
TTFWeight: 700
TTFWidth: 5
LineGap: 0
VLineGap: 0
Panose: 2 0 8 3 0 0 0 0 0 0
OS2TypoAscent: 2106
OS2TypoAOffset: 0
OS2TypoDescent: -485
OS2TypoDOffset: 0
OS2TypoLinegap: 0
OS2WinAscent: 2106
OS2WinAOffset: 0
OS2WinDescent: 485
OS2WinDOffset: 0
HheadAscent: 2106
HheadAOffset: 0
HheadDescent: -485
HheadDOffset: 0
OS2SubXSize: 1095
OS2SubYSize: 1179
OS2SubXOff: 0
OS2SubYOff: 235
OS2SupXSize: 1095
OS2SupYSize: 1179
OS2SupXOff: 0
OS2SupYOff: 809
OS2StrikeYSize: 84
OS2StrikeYPos: 4436
OS2Vendor: 'PfEd'
Lookup: 1 0 0 "'onum' Oldstyle Figures lookup 1"  {"'onum' Oldstyle Figures lookup 1-1" ("osf" ) } ['onum' ('DFLT' <'dflt' > 'hebr' <'dflt' > 'latn' <'dflt' > ) ]
MarkAttachClasses: 1
DEI: 91125
ShortTable: maxp 16
  0
  0
  0
  0
  0
  0
  0
  2
  1
  2
  22
  0
  256
  0
  0
  0
EndShort
TtTable: prep
PUSHW_1
 511
SCANCTRL
PUSHB_1
 4
SCANTYPE
EndTTInstrs
TtTable: fpgm
PUSHB_1
 0
FDEF
PUSHB_1
 0
SZP0
MPPEM
PUSHB_1
 42
LT
IF
PUSHB_1
 74
SROUND
EIF
PUSHB_1
 0
SWAP
MIAP[rnd]
RTG
PUSHB_1
 6
CALL
IF
RTDG
EIF
MPPEM
PUSHB_1
 42
LT
IF
RDTG
EIF
DUP
MDRP[rp0,rnd,grey]
PUSHB_1
 1

StartChar: A
Encoding: 65 65 0
Width: 1461
VWidth: 0
Flags: HMW
LayerCount: 2
Fore
SplineSet
535 548 m 1,0,-1
 836 548 l 1,1,-1
 690 984 l 1,2,-1
 535 548 l 1,0,-1
45 0 m 1,3,-1
 59 106 l 1,4,-1
 213 185 l 1,5,-1
 627 1221 l 1,6,-1
 875 1269 l 1,7,-1
 1265 181 l 1,8,-1
 1408 112 l 1,9,-1
 1397 -1 l 1,10,-1
 777 -1 l 1,11,-1
 791 105 l 1,12,-1
 960 184 l 1,13,-1
 886 392 l 1,14,-1
 481 392 l 1,15,-1
 407 182 l 1,16,-1
 594 114 l 1,17,-1
 581 0 l 1,18,-1
 45 0 l 1,3,-1
EndSplineSet
Colour: ffff
EndChar

StartChar: AE
Encoding: 198 198 1
Width: 1880
VWidth: 0
Flags: HMW
LayerCount: 2
Fore
SplineSet
651 592 m 1,0,-1
 948 592 l 1,1,-1
 942 1033 l 1,2,-1
 651 592 l 1,0,-1
48 0 m 1,3,-1
 62 119 l 1,4,-1
 198 184 l 1,5,-1
 794 1073 l 1,6,-1
 598 1131 l 1,7,-1
 613 1244 l 1,8,-1
 1770 1244 l 1,9,-1
 1738 876 l 1,10,-1
 1610 896 l 1,11,-1
 1548 1112 l 1,12,-1
 1204 1112 l 1,13,-1
 1213 694 l 1,14,-1
 1408 702 l 1,15,-1
 1444 765 l 1,16,-1
 1580 780 l 1,17,-1
 1547 466 l 1,18,-1
 1422 466 l 1,19,-1
 1392 556 l 1,20,-1
 1216 561 l 1,21,-1
 1224 147 l 1,22,-1
 1590 138 l 1,23,-1
 1713 378 l 1,24,-1
 1836 362 l 1,25,-1
 1806 0 l 1,26,-1
 784 0 l 1,27,-1
 795 106 l 1,28,-1
 960 169 l 1,29,-1
 954 458 l 1,30,-1
 573 458 l 1,31,-1
 398 184 l 1,32,-1
 582 116 l 1,33,-1
 568 0 l 1,34,-1
 48 0 l 1,3,-1
EndSplineSet
Colour: ffff
EndChar

StartChar: Aacute
Encoding: 193 193 2
Width: 1461
VWidth: 0
Flags: HMW
LayerCount: 2
Fore
SplineSet
607 1420 m 1,0,-1
 721 1734 l 1,1,-1
 943 1706 l 1,2,-1
 761 1393 l 1,3,-1
 607 1420 l 1,0,-1
535 548 m 1,4,-1
 836 548 l 1,5,-1
 690 984 l 1,6,-1
 535 548 l 1,4,-1
45 0 m 1,7,-1
 59 106 l 1,8,-1
 213 185 l 1,9,-1
 627 1221 l 1,10,-1
 875 1269 l 1,11,-1
 1265 181 l 1,12,-1
 1408 112 l 1,13,-1
 1397 -1 l 1,14,-1
 777 -1 l 1,15,-1
 791 105 l 1,16,-1
 960 184 l 1,17,-1
 886 392 l 1,18,-1
 481 392 l 1,19,-1
 407 182 l 1,20,-1
 594 114 l 1,21,-1
 581 0 l 1,22,-1
 45 0 l 1,7,-1
EndSplineSet
Colour: ffff
EndChar

StartChar: Acircumflex
Encoding: 194 194 3
Width: 1461
VWidth: 0
Flags: HMW
LayerCount: 2
Fore
SplineSet
1065 1380 m 1,0,-1
 896 1345 l 1,1,-1
 792 1430 l 1,2,-1
 782 1430 l 1,3,-1
 695 1339 l 1,4,-1
 534 1363 l 1,5,-1
 698 1579 l 1,6,-1
 885 1600 l 1,7,-1
 1065 1380 l 1,0,-1
535 548 m 1,8,-1
 836 548 l 1,9,-1
 690 984 l 1,10,-1
 535 548 l 1,8,-1
45 0 m 1,11,-1
 59 106 l 1,12,-1
 213 185 l 1,13,-1
 627 1221 l 1,14,-1
 875 1269 l 1,15,-1
 1265 181 l 1,16,-1
 1408 112 l 1,17,-1
 1397 -1 l 1,18,-1
 777 -1 l 1,19,-1
 791 105 l 1,20,-1
 960 184 l 1,21,-1
 886 392 l 1,22,-1
 481 392 l 1,23,-1
 407 182 l 1,24,-1
 594 114 l 1,25,-1
 581 0 l 1,26,-1
 45 0 l 1,11,-1
EndSplineSet
Colour: ffff
EndChar

StartChar: Adieresis
Encoding: 196 196 4
Width: 1461
VWidth: 0
Flags: HMW
LayerCount: 2
Fore
SplineSet
806 1489 m 0,0,1
 806 1526 806 1526 833.5 1553.5 c 128,-1,2
 861 1581 861 1581 914 1581 c 0,3,4
 969 1581 969 1581 997.5 1554 c 128,-1,5
 1026 1527 1026 1527 1026 1489 c 0,6,7
 1026 1447 1026 1447 997.5 1419.5 c 128,-1,8
 969 1392 969 1392 913.5 1392 c 128,-1,9
 858 1392 858 1392 832 1420 c 128,-1,10
 806 1448 806 1448 806 1489 c 0,0,1
496 1489 m 0,11,12
 496 1526 496 1526 524 1553.5 c 128,-1,13
 552 1581 552 1581 605 1581 c 0,14,15
 660 1581 660 1581 688.5 1554 c 128,-1,16
 717 1527 717 1527 717 1489 c 0,17,18
 717 1447 717 1447 688.5 1419.5 c 128,-1,19
 660 1392 660 1392 604.5 1392 c 128,-1,20
 549 1392 549 1392 522.5 1420 c 128,-1,21
 496 1448 496 1448 496 1489 c 0,11,12
535 548 m 1,22,-1
 836 548 l 1,23,-1
 690 984 l 1,24,-1
 535 548 l 1,22,-1
45 0 m 1,25,-1
 59 106 l 1,26,-1
 213 185 l 1,27,-1
 627 1221 l 1,28,-1
 875 1269 l 1,29,-1
 1265 181 l 1,30,-1
 1408 112 l 1,31,-1
 1397 -1 l 1,32,-1
 777 -1 l 1,33,-1
 791 105 l 1,34,-1
 960 184 l 1,35,-1
 886 392 l 1,36,-1
 481 392 l 1,37,-1
 407 182 l 1,38,-1
 594 114 l 1,39,-1
 581 0 l 1,40,-1
 45 0 l 1,25,-1
EndSplineSet
Colour: ffff
EndChar

StartChar: Agrave
Encoding: 192 192 5
Width: 1461
VWidth: 0
Flags: HMW
LayerCount: 2
Fore
SplineSet
501 1728 m 1,0,-1
 718 1766 l 1,1,-1
 858 1426 l 1,2,-1
 701 1393 l 1,3,-1
 501 1728 l 1,0,-1
535 548 m 1,4,-1
 836 548 l 1,5,-1
 690 984 l 1,6,-1
 535 548 l 1,4,-1
45 0 m 1,7,-1
 59 106 l 1,8,-1
 213 185 l 1,9,-1
 627 1221 l 1,10,-1
 875 1269 l 1,11,-1
 1265 181 l 1,12,-1
 1408 112 l 1,13,-1
 1397 -1 l 1,14,-1
 777 -1 l 1,15,-1
 791 105 l 1,16,-1
 960 184 l 1,17,-1
 886 392 l 1,18,-1
 481 392 l 1,19,-1
 407 182 l 1,20,-1
 594 114 l 1,21,-1
 581 0 l 1,22,-1
 45 0 l 1,7,-1
EndSplineSet
Colour: ffff
EndChar

StartChar: Aring
Encoding: 197 197 6
Width: 1461
VWidth: 0
Flags: HMW
LayerCount: 2
Fore
SplineSet
663 1501 m 0,0,1
 663 1483 663 1483 667.5 1471.5 c 128,-1,2
 672 1460 672 1460 681.5 1456 c 128,-1,3
 691 1452 691 1452 697 1451 c 128,-1,4
 703 1450 703 1450 713 1450 c 0,5,6
 761 1453 761 1453 763 1502 c 1,7,8
 763 1551 763 1551 707 1551 c 0,9,10
 699 1551 699 1551 690.5 1548.5 c 128,-1,11
 682 1546 682 1546 672.5 1533.5 c 128,-1,12
 663 1521 663 1521 663 1501 c 0,0,1
497 1495 m 0,13,14
 497 1567 497 1567 555 1613 c 128,-1,15
 613 1659 613 1659 718 1659 c 0,16,17
 826 1659 826 1659 879.5 1619 c 128,-1,18
 933 1579 933 1579 933 1504 c 0,19,20
 933 1433 933 1433 875 1387.5 c 128,-1,21
 817 1342 817 1342 705 1342 c 0,22,23
 497 1342 497 1342 497 1495 c 0,13,14
535 548 m 1,24,-1
 836 548 l 1,25,-1
 690 984 l 1,26,-1
 535 548 l 1,24,-1
45 0 m 1,27,-1
 59 106 l 1,28,-1
 213 185 l 1,29,-1
 627 1221 l 1,30,-1
 875 1269 l 1,31,-1
 1265 181 l 1,32,-1
 1408 112 l 1,33,-1
 1397 -1 l 1,34,-1
 777 -1 l 1,35,-1
 791 105 l 1,36,-1
 960 184 l 1,37,-1
 886 392 l 1,38,-1
 481 392 l 1,39,-1
 407 182 l 1,40,-1
 594 114 l 1,41,-1
 581 0 l 1,42,-1
 45 0 l 1,27,-1
EndSplineSet
Colour: ffff
EndChar

StartChar: Atilde
Encoding: 195 195 7
Width: 1461
VWidth: 0
Flags: HMW
LayerCount: 2
Fore
SplineSet
446 1396 m 1,0,1
 443 1415 443 1415 449 1444 c 128,-1,2
 455 1473 455 1473 470.5 1505.5 c 128,-1,3
 486 1538 486 1538 509 1564 c 128,-1,4
 532 1590 532 1590 569 1602 c 128,-1,5
 606 1614 606 1614 649 1604 c 2,6,-1
 855 1555 l 2,7,8
 871 1551 871 1551 886.5 1562.5 c 128,-1,9
 902 1574 902 1574 910 1588 c 2,10,-1
 918 1601 l 1,11,-1
 1000 1595 l 1,12,13
 1000 1569 1000 1569 991 1539 c 128,-1,14
 982 1509 982 1509 963.5 1478 c 128,-1,15
 945 1447 945 1447 918 1424.5 c 128,-1,16
 891 1402 891 1402 855 1392 c 128,-1,17
 819 1382 819 1382 774 1393 c 2,18,-1
 587 1439 l 2,19,20
 568 1443 568 1443 553.5 1429 c 128,-1,21
 539 1415 539 1415 533 1399 c 2,22,-1
 528 1383 l 1,23,-1
 446 1396 l 1,0,1
535 548 m 1,24,-1
 836 548 l 1,25,-1
 690 984 l 1,26,-1
 535 548 l 1,24,-1
45 0 m 1,27,-1
 59 106 l 1,28,-1
 213 185 l 1,29,-1
 627 1221 l 1,30,-1
 875 1269 l 1,31,-1
 1265 181 l 1,32,-1
 1408 112 l 1,33,-1
 1397 -1 l 1,34,-1
 777 -1 l 1,35,-1
 791 105 l 1,36,-1
 960 184 l 1,37,-1
 886 392 l 1,38,-1
 481 392 l 1,39,-1
 407 182 l 1,40,-1
 594 114 l 1,41,-1
 581 0 l 1,42,-1
 45 0 l 1,27,-1
EndSplineSet
Colour: ffff
EndChar

StartChar: B
Encoding: 66 66 8
Width: 1228
VWidth: 0
Flags: HMW
LayerCount: 2
Fore
SplineSet
507 708 m 1,0,-1
 723 708 l 1,1,2
 819 771 819 771 819 903 c 0,3,4
 819 1001 819 1001 760.5 1063.5 c 128,-1,5
 702 1126 702 1126 573 1126 c 0,6,7
 542 1126 542 1126 507 1120 c 1,8,-1
 507 708 l 1,0,-1
507 141 m 1,9,-1
 673 141 l 2,10,11
 775 141 775 141 837 199.5 c 128,-1,12
 899 258 899 258 899 348 c 0,13,14
 899 446 899 446 834 514.5 c 128,-1,15
 769 583 769 583 658 583 c 2,16,-1
 507 583 l 1,17,-1
 507 141 l 1,9,-1
46 0 m 1,18,-1
 59 106 l 1,19,-1
 225 169 l 1,20,-1
 225 1056 l 1,21,-1
 55 1093 l 1,22,-1
 65 1211 l 1,23,24
 396 1257 396 1257 605 1257 c 0,25,26
 734 1257 734 1257 831 1232 c 128,-1,27
 928 1207 928 1207 983.5 1164 c 128,-1,28
 1039 1121 1039 1121 1065.5 1069.5 c 128,-1,29
 1092 1018 1092 1018 1092 959 c 0,30,31
 1092 874 1092 874 1037 794.5 c 128,-1,32
 982 715 982 715 887 682 c 1,33,-1
 887 673 l 1,34,35
 1030 665 1030 665 1107.5 577 c 128,-1,36
 1185 489 1185 489 1185 380 c 0,37,38
 1185 210 1185 210 1045 105 c 128,-1,39
 905 0 905 0 627 0 c 2,40,-1
 46 0 l 1,18,-1
EndSplineSet
Colour: ffff
EndChar

StartChar: C
Encoding: 67 67 9
Width: 1232
VWidth: 0
Flags: HMW
LayerCount: 2
Fore
SplineSet
47 586 m 0,0,1
 47 679 47 679 70 770.5 c 128,-1,2
 93 862 93 862 147.5 953.5 c 128,-1,3
 202 1045 202 1045 282 1114.5 c 128,-1,4
 362 1184 362 1184 487 1227 c 128,-1,5
 612 1270 612 1270 765 1270 c 0,6,7
 872 1270 872 1270 983 1243.5 c 128,-1,8
 1094 1217 1094 1217 1155 1170 c 1,9,-1
 1125 792 l 1,10,-1
 995 810 l 1,11,-1
 943 1036 l 1,12,13
 908 1080 908 1080 843.5 1106 c 128,-1,14
 779 1132 779 1132 705 1132 c 0,15,16
 542 1132 542 1132 446.5 1014.5 c 128,-1,17
 351 897 351 897 351 682 c 0,18,19
 351 434 351 434 473.5 296 c 128,-1,20
 596 158 596 158 799 158 c 0,21,22
 980 158 980 158 1147 281 c 1,23,-1
 1195 176 l 1,24,25
 1128 97 1128 97 991.5 35.5 c 128,-1,26
 855 -26 855 -26 695 -26 c 0,27,28
 401 -26 401 -26 224 136 c 128,-1,29
 47 298 47 298 47 586 c 0,0,1
EndSplineSet
Colour: ffff
EndChar

StartChar: Ccedilla
Encoding: 199 199 10
Width: 1232
VWidth: 0
Flags: HMW
LayerCount: 2
Fore
SplineSet
498 -320 m 1,0,1
 546 -313 546 -313 583 -296 c 128,-1,2
 620 -279 620 -279 620 -258 c 0,3,4
 620 -241 620 -241 597 -220.5 c 128,-1,5
 574 -200 574 -200 553 -188 c 128,-1,6
 532 -176 532 -176 495 -157 c 1,7,-1
 662 -25 l 1,8,9
 477 -19 477 -19 339.5 53.5 c 128,-1,10
 202 126 202 126 124.5 263 c 128,-1,11
 47 400 47 400 47 586 c 0,12,13
 47 679 47 679 70 770.5 c 128,-1,14
 93 862 93 862 147.5 953.5 c 128,-1,15
 202 1045 202 1045 282 1114.5 c 128,-1,16
 362 1184 362 1184 487 1227 c 128,-1,17
 612 1270 612 1270 765 1270 c 0,18,19
 872 1270 872 1270 983 1243.5 c 128,-1,20
 1094 1217 1094 1217 1155 1170 c 1,21,-1
 1125 792 l 1,22,-1
 995 810 l 1,23,-1
 943 1036 l 1,24,25
 908 1080 908 1080 843.5 1106 c 128,-1,26
 779 1132 779 1132 705 1132 c 0,27,28
 542 1132 542 1132 446.5 1014.5 c 128,-1,29
 351 897 351 897 351 682 c 0,30,31
 351 434 351 434 473.5 296 c 128,-1,32
 596 158 596 158 799 158 c 0,33,34
 980 158 980 158 1147 281 c 1,35,-1
 1195 176 l 1,36,37
 1139 110 1139 110 1028 53 c 128,-1,38
 917 -4 917 -4 784 -21 c 1,39,-1
 706 -96 l 1,40,41
 729 -109 729 -109 743 -118 c 128,-1,42
 757 -127 757 -127 777.5 -144.5 c 128,-1,43
 798 -162 798 -162 808 -184 c 128,-1,44
 818 -206 818 -206 818 -232 c 0,45,46
 818 -307 818 -307 740 -346.5 c 128,-1,47
 662 -386 662 -386 526 -404 c 1,48,-1
 498 -320 l 1,0,1
EndSplineSet
Colour: ffff
EndChar

StartChar: D
Encoding: 68 68 11
Width: 1444
VWidth: 0
Flags: HMW
LayerCount: 2
Fore
SplineSet
517 153 m 1,0,-1
 627 153 l 2,1,2
 730 153 730 153 811.5 180 c 128,-1,3
 893 207 893 207 944 251 c 128,-1,4
 995 295 995 295 1028.5 354 c 128,-1,5
 1062 413 1062 413 1075.5 473 c 128,-1,6
 1089 533 1089 533 1089 598 c 0,7,8
 1089 695 1089 695 1058.5 783.5 c 128,-1,9
 1028 872 1028 872 969 945.5 c 128,-1,10
 910 1019 910 1019 811.5 1062.5 c 128,-1,11
 713 1106 713 1106 587 1106 c 0,12,13
 565 1106 565 1106 549.5 1104 c 128,-1,14
 534 1102 534 1102 517 1101 c 1,15,-1
 517 153 l 1,0,-1
43 0 m 1,16,-1
 61 106 l 1,17,-1
 237 185 l 1,18,-1
 237 1053 l 1,19,-1
 65 1091 l 1,20,-1
 73 1208 l 1,21,22
 389 1258 389 1258 625 1258 c 0,23,24
 754 1258 754 1258 861.5 1240.5 c 128,-1,25
 969 1223 969 1223 1047.5 1192 c 128,-1,26
 1126 1161 1126 1161 1187 1116 c 128,-1,27
 1248 1071 1248 1071 1287 1020 c 128,-1,28
 1326 969 1326 969 1351.5 907 c 128,-1,29
 1377 845 1377 845 1387 783 c 128,-1,30
 1397 721 1397 721 1397 652 c 0,31,32
 1397 549 1397 549 1363.5 453 c 128,-1,33
 1330 357 1330 357 1262.5 274.5 c 128,-1,34
 1195 192 1195 192 1101 131 c 128,-1,35
 1007 70 1007 70 877.5 35 c 128,-1,36
 748 0 748 0 599 0 c 2,37,-1
 43 0 l 1,16,-1
EndSplineSet
Colour: ffff
EndChar

StartChar: E
Encoding: 69 69 12
Width: 1236
VWidth: 0
Flags: HMW
LayerCount: 2
Back
SplineSet
110 1168 m 5,0,-1
 121 1244 l 1,1,-1
 1116 1244 l 1,2,-1
 1085 924 l 1,3,-1
 998 937 l 1,4,-1
 957 1152 l 1,5,-1
 486 1152 l 1,6,-1
 486 676 l 1,7,-1
 776 676 l 1,8,-1
 818 796 l 1,9,-1
 913 810 l 1,10,-1
 879 421 l 1,11,-1
 794 408 l 1,12,-1
 760 583 l 1,13,-1
 486 583 l 1,14,-1
 486 96 l 1,15,-1
 981 96 l 1,16,-1
 1079 326 l 1,17,-1
 1162 313 l 1,18,-1
 1132 0 l 1,19,-1
 117 0 l 1,20,-1
 125 74 l 1,21,-1
 292 121 l 1,22,-1
 292 1126 l 1,23,-1
 110 1168 l 5,0,-1
EndSplineSet
Fore
SplineSet
46 1134 m 1,0,-1
 61 1244 l 1,1,-1
 1145 1244 l 1,2,-1
 1114 875 l 1,3,-1
 985 894 l 1,4,-1
 923 1112 l 1,5,-1
 516 1112 l 1,6,-1
 516 684 l 1,7,-1
 751 684 l 1,8,-1
 795 813 l 1,9,-1
 939 840 l 1,10,-1
 905 416 l 1,11,-1
 766 393 l 1,12,-1
 733 562 l 1,13,-1
 516 562 l 1,14,-1
 516 151 l 1,15,-1
 945 151 l 1,16,-1
 1067 377 l 1,17,-1
 1191 362 l 1,18,-1
 1161 0 l 1,19,-1
 57 0 l 1,20,-1
 67 106 l 1,21,-1
 232 169 l 1,22,-1
 232 1078 l 1,23,-1
 46 1134 l 1,0,-1
EndSplineSet
Colour: ffff
EndChar

StartChar: Eacute
Encoding: 201 201 13
Width: 1236
VWidth: 0
Flags: HMW
LayerCount: 2
Fore
SplineSet
477 1420 m 1,0,-1
 591 1734 l 1,1,-1
 813 1706 l 1,2,-1
 631 1393 l 1,3,-1
 477 1420 l 1,0,-1
46 1134 m 1,4,-1
 61 1244 l 1,5,-1
 1145 1244 l 1,6,-1
 1114 875 l 1,7,-1
 985 894 l 1,8,-1
 923 1112 l 1,9,-1
 516 1112 l 1,10,-1
 516 684 l 1,11,-1
 751 684 l 1,12,-1
 795 813 l 1,13,-1
 939 840 l 1,14,-1
 905 416 l 1,15,-1
 766 393 l 1,16,-1
 733 562 l 1,17,-1
 516 562 l 1,18,-1
 516 151 l 1,19,-1
 945 151 l 1,20,-1
 1067 377 l 1,21,-1
 1191 362 l 1,22,-1
 1161 0 l 1,23,-1
 57 0 l 1,24,-1
 67 106 l 1,25,-1
 232 169 l 1,26,-1
 232 1078 l 1,27,-1
 46 1134 l 1,4,-1
EndSplineSet
Colour: ffff
EndChar

StartChar: Ecircumflex
Encoding: 202 202 14
Width: 1236
VWidth: 0
Flags: HMW
LayerCount: 2
Fore
SplineSet
934 1380 m 1,0,-1
 765 1345 l 1,1,-1
 661 1430 l 1,2,-1
 651 1430 l 1,3,-1
 564 1339 l 1,4,-1
 403 1363 l 1,5,-1
 567 1579 l 1,6,-1
 754 1600 l 1,7,-1
 934 1380 l 1,0,-1
46 1134 m 1,8,-1
 61 1244 l 1,9,-1
 1145 1244 l 1,10,-1
 1114 875 l 1,11,-1
 985 894 l 1,12,-1
 923 1112 l 1,13,-1
 516 1112 l 1,14,-1
 516 684 l 1,15,-1
 751 684 l 1,16,-1
 795 813 l 1,17,-1
 939 840 l 1,18,-1
 905 416 l 1,19,-1
 766 393 l 1,20,-1
 733 562 l 1,21,-1
 516 562 l 1,22,-1
 516 151 l 1,23,-1
 945 151 l 1,24,-1
 1067 377 l 1,25,-1
 1191 362 l 1,26,-1
 1161 0 l 1,27,-1
 57 0 l 1,28,-1
 67 106 l 1,29,-1
 232 169 l 1,30,-1
 232 1078 l 1,31,-1
 46 1134 l 1,8,-1
EndSplineSet
Colour: ffff
EndChar

StartChar: Edieresis
Encoding: 203 203 15
Width: 1236
VWidth: 0
Flags: HMW
LayerCount: 2
Fore
SplineSet
694 1489 m 0,0,1
 694 1526 694 1526 722 1553.5 c 128,-1,2
 750 1581 750 1581 803 1581 c 0,3,4
 858 1581 858 1581 886.5 1554 c 128,-1,5
 915 1527 915 1527 915 1489 c 0,6,7
 915 1447 915 1447 886.5 1419.5 c 128,-1,8
 858 1392 858 1392 802.5 1392 c 128,-1,9
 747 1392 747 1392 720.5 1420 c 128,-1,10
 694 1448 694 1448 694 1489 c 0,0,1
386 1489 m 0,11,12
 386 1526 386 1526 413.5 1553.5 c 128,-1,13
 441 1581 441 1581 494 1581 c 0,14,15
 549 1581 549 1581 577.5 1554 c 128,-1,16
 606 1527 606 1527 606 1489 c 0,17,18
 606 1447 606 1447 577.5 1419.5 c 128,-1,19
 549 1392 549 1392 493.5 1392 c 128,-1,20
 438 1392 438 1392 412 1420 c 128,-1,21
 386 1448 386 1448 386 1489 c 0,11,12
46 1134 m 1,22,-1
 61 1244 l 1,23,-1
 1145 1244 l 1,24,-1
 1114 875 l 1,25,-1
 985 894 l 1,26,-1
 923 1112 l 1,27,-1
 516 1112 l 1,28,-1
 516 684 l 1,29,-1
 751 684 l 1,30,-1
 795 813 l 1,31,-1
 939 840 l 1,32,-1
 905 416 l 1,33,-1
 766 393 l 1,34,-1
 733 562 l 1,35,-1
 516 562 l 1,36,-1
 516 151 l 1,37,-1
 945 151 l 1,38,-1
 1067 377 l 1,39,-1
 1191 362 l 1,40,-1
 1161 0 l 1,41,-1
 57 0 l 1,42,-1
 67 106 l 1,43,-1
 232 169 l 1,44,-1
 232 1078 l 1,45,-1
 46 1134 l 1,22,-1
EndSplineSet
Colour: ffff
EndChar

StartChar: Egrave
Encoding: 200 200 16
Width: 1236
VWidth: 0
Flags: HMW
LayerCount: 2
Fore
SplineSet
396 1728 m 1,0,-1
 613 1766 l 1,1,-1
 753 1426 l 1,2,-1
 596 1393 l 1,3,-1
 396 1728 l 1,0,-1
46 1134 m 1,4,-1
 61 1244 l 1,5,-1
 1145 1244 l 1,6,-1
 1114 875 l 1,7,-1
 985 894 l 1,8,-1
 923 1112 l 1,9,-1
 516 1112 l 1,10,-1
 516 684 l 1,11,-1
 751 684 l 1,12,-1
 795 813 l 1,13,-1
 939 840 l 1,14,-1
 905 416 l 1,15,-1
 766 393 l 1,16,-1
 733 562 l 1,17,-1
 516 562 l 1,18,-1
 516 151 l 1,19,-1
 945 151 l 1,20,-1
 1067 377 l 1,21,-1
 1191 362 l 1,22,-1
 1161 0 l 1,23,-1
 57 0 l 1,24,-1
 67 106 l 1,25,-1
 232 169 l 1,26,-1
 232 1078 l 1,27,-1
 46 1134 l 1,4,-1
EndSplineSet
Colour: ffff
EndChar

StartChar: Eth
Encoding: 208 208 17
Width: 1453
VWidth: 0
Flags: HMW
LayerCount: 2
Fore
SplineSet
521 153 m 1,0,-1
 665 153 l 2,1,2
 764 153 764 153 841.5 180.5 c 128,-1,3
 919 208 919 208 966 252 c 128,-1,4
 1013 296 1013 296 1043.5 356 c 128,-1,5
 1074 416 1074 416 1085.5 475 c 128,-1,6
 1097 534 1097 534 1097 598 c 0,7,8
 1097 675 1097 675 1078.5 747.5 c 128,-1,9
 1060 820 1060 820 1019.5 885.5 c 128,-1,10
 979 951 979 951 921 1000 c 128,-1,11
 863 1049 863 1049 778 1078 c 128,-1,12
 693 1107 693 1107 591 1107 c 0,13,14
 570 1107 570 1107 554.5 1104.5 c 128,-1,15
 539 1102 539 1102 521 1101 c 1,16,-1
 521 692 l 1,17,-1
 749 715 l 1,18,-1
 734 575 l 1,19,-1
 521 558 l 1,20,-1
 521 153 l 1,0,-1
61 519 m 1,21,-1
 74 656 l 1,22,-1
 241 670 l 1,23,-1
 241 1054 l 1,24,-1
 69 1092 l 1,25,-1
 77 1208 l 1,26,27
 399 1259 399 1259 629 1259 c 0,28,29
 808 1259 808 1259 946 1225 c 128,-1,30
 1084 1191 1084 1191 1169.5 1135.5 c 128,-1,31
 1255 1080 1255 1080 1310 1000 c 128,-1,32
 1365 920 1365 920 1386 836.5 c 128,-1,33
 1407 753 1407 753 1407 655 c 0,34,35
 1407 555 1407 555 1373 459 c 128,-1,36
 1339 363 1339 363 1271 280 c 128,-1,37
 1203 197 1203 197 1109 134.5 c 128,-1,38
 1015 72 1015 72 887 36 c 128,-1,39
 759 0 759 0 612 0 c 2,40,-1
 47 0 l 1,41,-1
 65 106 l 1,42,-1
 241 185 l 1,43,-1
 241 534 l 1,44,-1
 61 519 l 1,21,-1
EndSplineSet
Colour: ffff
EndChar

StartChar: Euro
Encoding: 8364 8364 18
Width: 1268
VWidth: 0
Flags: HMW
LayerCount: 2
Fore
SplineSet
59 653 m 1,0,-1
 72 770 l 1,1,-1
 209 770 l 1,2,3
 229 849 229 849 266.5 921 c 128,-1,4
 304 993 304 993 361 1056.5 c 128,-1,5
 418 1120 418 1120 489 1167 c 128,-1,6
 560 1214 560 1214 652 1241 c 128,-1,7
 744 1268 744 1268 847 1268 c 0,8,9
 1069 1268 1069 1268 1199 1168 c 1,10,-1
 1169 826 l 1,11,-1
 1038 844 l 1,12,-1
 984 1048 l 1,13,14
 937 1093 937 1093 883.5 1114 c 128,-1,15
 830 1135 830 1135 755 1135 c 0,16,17
 633 1135 633 1135 560.5 1040 c 128,-1,18
 488 945 488 945 478 770 c 1,19,-1
 973 770 l 1,20,-1
 949 653 l 1,21,-1
 479 653 l 1,22,23
 482 615 482 615 488 578 c 1,24,-1
 926 578 l 1,25,-1
 902 462 l 1,26,-1
 514 462 l 1,27,28
 535 391 535 391 565.5 332 c 128,-1,29
 596 273 596 273 638 225.5 c 128,-1,30
 680 178 680 178 735 151 c 128,-1,31
 790 124 790 124 853 124 c 0,32,33
 956 124 956 124 996 181 c 1,34,-1
 1055 404 l 1,35,-1
 1187 425 l 1,36,-1
 1217 119 l 1,37,38
 1120 37 1120 37 1027 6.5 c 128,-1,39
 934 -24 934 -24 805 -24 c 0,40,41
 677 -24 677 -24 571 12 c 128,-1,42
 465 48 465 48 390 113.5 c 128,-1,43
 315 179 315 179 266.5 267 c 128,-1,44
 218 355 218 355 199 462 c 1,45,-1
 46 462 l 1,46,-1
 59 578 l 1,47,-1
 187 578 l 1,48,49
 187 590 187 590 187 603 c 0,50,51
 187 628 187 628 189 653 c 1,52,-1
 59 653 l 1,0,-1
EndSplineSet
Colour: ffff
EndChar

StartChar: F
Encoding: 70 70 19
Width: 1183
VWidth: 0
Flags: HMW
LayerCount: 2
Back
SplineSet
25 1134 m 1,0,-1
 40 1244 l 1,1,-1
 1124 1244 l 1,2,-1
 1093 875 l 1,3,-1
 964 894 l 1,4,-1
 902 1112 l 1,5,-1
 495 1112 l 1,6,-1
 495 684 l 1,7,-1
 730 684 l 1,8,-1
 774 813 l 1,9,-1
 918 840 l 1,10,-1
 884 416 l 1,11,-1
 745 393 l 1,12,-1
 712 562 l 1,13,-1
 495 562 l 1,14,-1
 495 151 l 1,15,-1
 924 151 l 1,16,-1
 1046 377 l 1,17,-1
 1170 362 l 1,18,-1
 1140 0 l 1,19,-1
 36 0 l 1,20,-1
 46 106 l 1,21,-1
 211 169 l 1,22,-1
 211 1078 l 1,23,-1
 25 1134 l 1,0,-1
EndSplineSet
Fore
SplineSet
45 1134 m 1,0,-1
 60 1244 l 1,1,-1
 1140 1244 l 1,2,-1
 1090 878 l 1,3,-1
 963 898 l 1,4,-1
 916 1112 l 1,5,-1
 516 1112 l 1,6,-1
 516 638 l 1,7,-1
 749 638 l 1,8,-1
 795 770 l 1,9,-1
 942 800 l 1,10,-1
 902 354 l 1,11,-1
 767 326 l 1,12,-1
 735 506 l 1,13,-1
 516 506 l 1,14,-1
 516 174 l 1,15,-1
 746 113 l 1,16,-1
 731 0 l 1,17,-1
 56 0 l 1,18,-1
 68 106 l 1,19,-1
 232 169 l 1,20,-1
 232 1078 l 1,21,-1
 45 1134 l 1,0,-1
EndSplineSet
Colour: ffff
EndChar

StartChar: G
Encoding: 71 71 20
Width: 1381
VWidth: 0
Flags: HMW
LayerCount: 2
Fore
SplineSet
47 579 m 0,0,1
 47 707 47 707 86.5 818.5 c 128,-1,2
 126 930 126 930 195 1010.5 c 128,-1,3
 264 1091 264 1091 354 1149.5 c 128,-1,4
 444 1208 444 1208 547 1237 c 128,-1,5
 650 1266 650 1266 756 1266 c 0,6,7
 906 1266 906 1266 1008.5 1241.5 c 128,-1,8
 1111 1217 1111 1217 1207 1174 c 1,9,-1
 1175 794 l 1,10,-1
 1037 808 l 1,11,-1
 999 1013 l 1,12,13
 888 1124 888 1124 707 1124 c 0,14,15
 632 1124 632 1124 570.5 1098.5 c 128,-1,16
 509 1073 509 1073 460.5 1020 c 128,-1,17
 412 967 412 967 385.5 878.5 c 128,-1,18
 359 790 359 790 359 672 c 0,19,20
 359 520 359 520 406.5 397.5 c 128,-1,21
 454 275 454 275 547.5 201.5 c 128,-1,22
 641 128 641 128 765 128 c 0,23,24
 873 128 873 128 943 177 c 1,25,-1
 943 394 l 1,26,-1
 715 446 l 1,27,-1
 732 573 l 1,28,-1
 1340 573 l 1,29,-1
 1323 458 l 1,30,-1
 1209 401 l 1,31,-1
 1209 86 l 1,32,33
 1128 36 1128 36 989 4 c 128,-1,34
 850 -28 850 -28 716 -28 c 0,35,36
 388 -28 388 -28 217.5 134 c 128,-1,37
 47 296 47 296 47 579 c 0,0,1
EndSplineSet
Colour: ffff
EndChar

StartChar: H
Encoding: 72 72 21
Width: 1576
VWidth: 0
Flags: HMW
LayerCount: 2
Fore
SplineSet
47 1131 m 1,0,-1
 65 1244 l 1,1,-1
 697 1244 l 1,2,-1
 682 1131 l 1,3,-1
 515 1078 l 1,4,-1
 515 718 l 1,5,-1
 1052 718 l 1,6,-1
 1052 1073 l 1,7,-1
 870 1131 l 1,8,-1
 884 1244 l 1,9,-1
 1521 1244 l 1,10,-1
 1506 1131 l 1,11,-1
 1338 1078 l 1,12,-1
 1338 162 l 1,13,-1
 1518 114 l 1,14,-1
 1506 0 l 1,15,-1
 874 0 l 1,16,-1
 886 106 l 1,17,-1
 1052 169 l 1,18,-1
 1052 541 l 1,19,-1
 515 541 l 1,20,-1
 515 162 l 1,21,-1
 698 114 l 1,22,-1
 682 0 l 1,23,-1
 53 0 l 1,24,-1
 63 106 l 1,25,-1
 231 169 l 1,26,-1
 231 1073 l 1,27,-1
 47 1131 l 1,0,-1
EndSplineSet
Colour: ffff
EndChar

StartChar: I
Encoding: 73 73 22
Width: 755
VWidth: 0
Flags: HMW
LayerCount: 2
Fore
SplineSet
49 1131 m 1,0,-1
 64 1244 l 1,1,-1
 700 1244 l 1,2,-1
 687 1126 l 1,3,-1
 513 1074 l 1,4,-1
 513 168 l 1,5,-1
 694 120 l 1,6,-1
 682 0 l 1,7,-1
 54 0 l 1,8,-1
 62 108 l 1,9,-1
 234 171 l 1,10,-1
 234 1073 l 1,11,-1
 49 1131 l 1,0,-1
EndSplineSet
Colour: ffff
EndChar

StartChar: Iacute
Encoding: 205 205 23
Width: 755
VWidth: 0
Flags: HMW
LayerCount: 2
Fore
SplineSet
253 1420 m 1,0,-1
 367 1734 l 1,1,-1
 589 1706 l 1,2,-1
 407 1393 l 1,3,-1
 253 1420 l 1,0,-1
49 1131 m 1,4,-1
 64 1244 l 1,5,-1
 700 1244 l 1,6,-1
 687 1126 l 1,7,-1
 513 1074 l 1,8,-1
 513 168 l 1,9,-1
 694 120 l 1,10,-1
 682 0 l 1,11,-1
 54 0 l 1,12,-1
 62 108 l 1,13,-1
 234 171 l 1,14,-1
 234 1073 l 1,15,-1
 49 1131 l 1,4,-1
EndSplineSet
Colour: ffff
EndChar

StartChar: Icircumflex
Encoding: 206 206 24
Width: 755
VWidth: 0
Flags: HMW
LayerCount: 2
Fore
SplineSet
711 1380 m 1,0,-1
 542 1345 l 1,1,-1
 438 1430 l 1,2,-1
 428 1430 l 1,3,-1
 341 1339 l 1,4,-1
 180 1363 l 1,5,-1
 344 1579 l 1,6,-1
 531 1600 l 1,7,-1
 711 1380 l 1,0,-1
49 1131 m 1,8,-1
 64 1244 l 1,9,-1
 700 1244 l 1,10,-1
 687 1126 l 1,11,-1
 513 1074 l 1,12,-1
 513 168 l 1,13,-1
 694 120 l 1,14,-1
 682 0 l 1,15,-1
 54 0 l 1,16,-1
 62 108 l 1,17,-1
 234 171 l 1,18,-1
 234 1073 l 1,19,-1
 49 1131 l 1,8,-1
EndSplineSet
Colour: ffff
EndChar

StartChar: Idieresis
Encoding: 207 207 25
Width: 755
VWidth: 0
Flags: HMW
LayerCount: 2
Fore
SplineSet
472 1489 m 0,0,1
 472 1526 472 1526 499.5 1553.5 c 128,-1,2
 527 1581 527 1581 580 1581 c 0,3,4
 635 1581 635 1581 663.5 1554 c 128,-1,5
 692 1527 692 1527 692 1489 c 0,6,7
 692 1447 692 1447 663.5 1419.5 c 128,-1,8
 635 1392 635 1392 579.5 1392 c 128,-1,9
 524 1392 524 1392 498 1420 c 128,-1,10
 472 1448 472 1448 472 1489 c 0,0,1
162 1489 m 0,11,12
 162 1526 162 1526 190 1553.5 c 128,-1,13
 218 1581 218 1581 271 1581 c 0,14,15
 326 1581 326 1581 354.5 1554 c 128,-1,16
 383 1527 383 1527 383 1489 c 0,17,18
 383 1447 383 1447 354.5 1419.5 c 128,-1,19
 326 1392 326 1392 270.5 1392 c 128,-1,20
 215 1392 215 1392 188.5 1420 c 128,-1,21
 162 1448 162 1448 162 1489 c 0,11,12
49 1131 m 1,22,-1
 64 1244 l 1,23,-1
 700 1244 l 1,24,-1
 687 1126 l 1,25,-1
 513 1074 l 1,26,-1
 513 168 l 1,27,-1
 694 120 l 1,28,-1
 682 0 l 1,29,-1
 54 0 l 1,30,-1
 62 108 l 1,31,-1
 234 171 l 1,32,-1
 234 1073 l 1,33,-1
 49 1131 l 1,22,-1
EndSplineSet
Colour: ffff
EndChar

StartChar: Igrave
Encoding: 204 204 26
Width: 755
VWidth: 0
Flags: HMW
LayerCount: 2
Fore
SplineSet
172 1728 m 1,0,-1
 389 1766 l 1,1,-1
 529 1426 l 1,2,-1
 372 1393 l 1,3,-1
 172 1728 l 1,0,-1
49 1131 m 1,4,-1
 64 1244 l 1,5,-1
 700 1244 l 1,6,-1
 687 1126 l 1,7,-1
 513 1074 l 1,8,-1
 513 168 l 1,9,-1
 694 120 l 1,10,-1
 682 0 l 1,11,-1
 54 0 l 1,12,-1
 62 108 l 1,13,-1
 234 171 l 1,14,-1
 234 1073 l 1,15,-1
 49 1131 l 1,4,-1
EndSplineSet
Colour: ffff
EndChar

StartChar: J
Encoding: 74 74 27
Width: 763
VWidth: 0
Flags: HMW
LayerCount: 2
Fore
SplineSet
35 -194 m 1,0,1
 255 -1 255 -1 255 241 c 2,2,-1
 255 1073 l 1,3,-1
 75 1131 l 1,4,-1
 90 1244 l 1,5,-1
 721 1244 l 1,6,-1
 706 1131 l 1,7,-1
 536 1078 l 1,8,-1
 535 410 l 2,9,10
 535 285 535 285 522.5 195 c 128,-1,11
 510 105 510 105 483.5 33.5 c 128,-1,12
 457 -38 457 -38 405.5 -98.5 c 128,-1,13
 354 -159 354 -159 289 -210.5 c 128,-1,14
 224 -262 224 -262 121 -326 c 1,15,-1
 35 -194 l 1,0,1
EndSplineSet
Colour: ffff
EndChar

StartChar: K
Encoding: 75 75 28
Width: 1452
VWidth: 0
Flags: HMW
LayerCount: 2
Fore
SplineSet
565 640 m 1,0,1
 636 717 636 717 673 769 c 2,2,-1
 882 1062 l 1,3,-1
 811 1125 l 1,4,-1
 829 1244 l 1,5,-1
 1335 1244 l 1,6,-1
 1315 1131 l 1,7,-1
 1114 1060 l 1,8,-1
 811 669 l 1,9,-1
 1004 428 l 2,10,11
 1061 356 1061 356 1089.5 321 c 128,-1,12
 1118 286 1118 286 1157 243 c 128,-1,13
 1196 200 1196 200 1225 180 c 128,-1,14
 1254 160 1254 160 1290.5 141 c 128,-1,15
 1327 122 1327 122 1371 111 c 1,16,-1
 1401 102 l 1,17,-1
 1381 2 l 1,18,19
 1349 -10 1349 -10 1294.5 -17 c 128,-1,20
 1240 -24 1240 -24 1205 -24 c 0,21,22
 1132 -24 1132 -24 1068.5 -0.5 c 128,-1,23
 1005 23 1005 23 950 69.5 c 128,-1,24
 895 116 895 116 850.5 171.5 c 128,-1,25
 806 227 806 227 757 304 c 1,26,-1
 563 594 l 1,27,-1
 565 640 l 1,0,1
47 1131 m 1,28,-1
 69 1244 l 1,29,-1
 699 1244 l 1,30,-1
 684 1131 l 1,31,-1
 530 1060 l 1,32,-1
 530 182 l 1,33,-1
 722 114 l 1,34,-1
 711 0 l 1,35,-1
 51 0 l 1,36,-1
 65 106 l 1,37,-1
 251 185 l 1,38,-1
 251 1055 l 1,39,-1
 47 1131 l 1,28,-1
EndSplineSet
Colour: ffff
EndChar

StartChar: L
Encoding: 76 76 29
Width: 1188
VWidth: 0
Flags: HMW
LayerCount: 2
Fore
SplineSet
52 0 m 1,0,-1
 65 106 l 1,1,-1
 227 169 l 1,2,-1
 227 1058 l 1,3,-1
 47 1133 l 1,4,-1
 63 1244 l 1,5,-1
 710 1244 l 1,6,-1
 695 1133 l 1,7,-1
 511 1060 l 1,8,-1
 511 148 l 1,9,-1
 867 137 l 1,10,-1
 1019 398 l 1,11,-1
 1145 380 l 1,12,-1
 1103 0 l 1,13,-1
 52 0 l 1,0,-1
EndSplineSet
Colour: ffff
EndChar

StartChar: M
Encoding: 77 77 30
Width: 1821
VWidth: 0
Flags: HMW
LayerCount: 2
Fore
SplineSet
43 0 m 1,0,-1
 59 114 l 1,1,-1
 227 177 l 1,2,-1
 292 1078 l 1,3,-1
 109 1128 l 1,4,-1
 121 1244 l 1,5,-1
 626 1244 l 1,6,-1
 701 1044 l 1,7,-1
 909 426 l 1,8,-1
 1143 1062 l 1,9,-1
 1211 1244 l 1,10,-1
 1709 1244 l 1,11,-1
 1695 1128 l 1,12,-1
 1530 1082 l 1,13,-1
 1591 172 l 1,14,-1
 1770 120 l 1,15,-1
 1758 0 l 1,16,-1
 1169 0 l 1,17,-1
 1187 114 l 1,18,-1
 1325 177 l 1,19,-1
 1271 890 l 1,20,-1
 968 40 l 1,21,-1
 763 12 l 1,22,-1
 471 877 l 1,23,-1
 423 172 l 1,24,-1
 579 120 l 1,25,-1
 561 0 l 1,26,-1
 43 0 l 1,0,-1
EndSplineSet
Colour: ffff
EndChar

StartChar: N
Encoding: 78 78 31
Width: 1445
VWidth: 0
Flags: HMW
LayerCount: 2
Fore
SplineSet
51 1128 m 1,0,-1
 64 1244 l 1,1,-1
 459 1244 l 1,2,-1
 1046 402 l 1,3,-1
 1046 1073 l 1,4,-1
 860 1131 l 1,5,-1
 878 1244 l 1,6,-1
 1404 1244 l 1,7,-1
 1384 1131 l 1,8,-1
 1217 1078 l 1,9,-1
 1217 8 l 1,10,-1
 999 -30 l 1,11,-1
 411 790 l 1,12,-1
 411 162 l 1,13,-1
 592 114 l 1,14,-1
 580 0 l 1,15,-1
 52 0 l 1,16,-1
 62 106 l 1,17,-1
 230 169 l 1,18,-1
 230 1060 l 1,19,-1
 51 1128 l 1,0,-1
EndSplineSet
Colour: ffff
EndChar

StartChar: Ntilde
Encoding: 209 209 32
Width: 1445
VWidth: 0
Flags: HMW
LayerCount: 2
Fore
SplineSet
463 1396 m 1,0,1
 460 1415 460 1415 466 1444 c 128,-1,2
 472 1473 472 1473 487.5 1505.5 c 128,-1,3
 503 1538 503 1538 526 1564 c 128,-1,4
 549 1590 549 1590 586 1602 c 128,-1,5
 623 1614 623 1614 666 1604 c 2,6,-1
 872 1555 l 2,7,8
 888 1551 888 1551 903.5 1562.5 c 128,-1,9
 919 1574 919 1574 927 1588 c 2,10,-1
 935 1601 l 1,11,-1
 1017 1595 l 1,12,13
 1017 1569 1017 1569 1008 1539 c 128,-1,14
 999 1509 999 1509 980.5 1478 c 128,-1,15
 962 1447 962 1447 935 1424.5 c 128,-1,16
 908 1402 908 1402 872 1392 c 128,-1,17
 836 1382 836 1382 791 1393 c 2,18,-1
 604 1439 l 2,19,20
 585 1443 585 1443 570.5 1429 c 128,-1,21
 556 1415 556 1415 550 1399 c 2,22,-1
 545 1383 l 1,23,-1
 463 1396 l 1,0,1
51 1128 m 1,24,-1
 64 1244 l 1,25,-1
 459 1244 l 1,26,-1
 1046 402 l 1,27,-1
 1046 1073 l 1,28,-1
 860 1131 l 1,29,-1
 878 1244 l 1,30,-1
 1404 1244 l 1,31,-1
 1384 1131 l 1,32,-1
 1217 1078 l 1,33,-1
 1217 8 l 1,34,-1
 999 -30 l 1,35,-1
 411 790 l 1,36,-1
 411 162 l 1,37,-1
 592 114 l 1,38,-1
 580 0 l 1,39,-1
 52 0 l 1,40,-1
 62 106 l 1,41,-1
 230 169 l 1,42,-1
 230 1060 l 1,43,-1
 51 1128 l 1,24,-1
EndSplineSet
Colour: ffff
EndChar

StartChar: O
Encoding: 79 79 33
Width: 1397
VWidth: 0
Flags: HMW
LayerCount: 2
Fore
SplineSet
363 674 m 0,0,1
 363 616 363 616 370.5 556.5 c 128,-1,2
 378 497 378 497 393.5 433.5 c 128,-1,3
 409 370 409 370 436.5 315 c 128,-1,4
 464 260 464 260 501 216 c 128,-1,5
 538 172 538 172 591 146.5 c 128,-1,6
 644 121 644 121 708 121 c 0,7,8
 1027 121 1027 121 1027 573 c 0,9,10
 1027 630 1027 630 1019.5 689.5 c 128,-1,11
 1012 749 1012 749 997 814 c 128,-1,12
 982 879 982 879 954 935 c 128,-1,13
 926 991 926 991 889.5 1036.5 c 128,-1,14
 853 1082 853 1082 798.5 1108.5 c 128,-1,15
 744 1135 744 1135 679 1135 c 0,16,17
 590 1135 590 1135 527 1100.5 c 128,-1,18
 464 1066 464 1066 429 1001.5 c 128,-1,19
 394 937 394 937 378.5 857.5 c 128,-1,20
 363 778 363 778 363 674 c 0,0,1
47 619 m 0,21,22
 47 913 47 913 227 1091.5 c 128,-1,23
 407 1270 407 1270 727 1270 c 0,24,25
 1019 1270 1019 1270 1184.5 1098 c 128,-1,26
 1350 926 1350 926 1350 616 c 0,27,28
 1350 328 1350 328 1161.5 150.5 c 128,-1,29
 973 -27 973 -27 657 -27 c 0,30,31
 507 -27 507 -27 390 21.5 c 128,-1,32
 273 70 273 70 198.5 157 c 128,-1,33
 124 244 124 244 85.5 361 c 128,-1,34
 47 478 47 478 47 619 c 0,21,22
EndSplineSet
Colour: ffff
EndChar

StartChar: Oacute
Encoding: 211 211 34
Width: 1397
VWidth: 0
Flags: HMW
LayerCount: 2
Fore
SplineSet
625 1420 m 1,0,-1
 739 1734 l 1,1,-1
 961 1706 l 1,2,-1
 779 1393 l 1,3,-1
 625 1420 l 1,0,-1
363 674 m 0,4,5
 363 616 363 616 370.5 556.5 c 128,-1,6
 378 497 378 497 393.5 433.5 c 128,-1,7
 409 370 409 370 436.5 315 c 128,-1,8
 464 260 464 260 501 216 c 128,-1,9
 538 172 538 172 591 146.5 c 128,-1,10
 644 121 644 121 708 121 c 0,11,12
 1027 121 1027 121 1027 573 c 0,13,14
 1027 630 1027 630 1019.5 689.5 c 128,-1,15
 1012 749 1012 749 997 814 c 128,-1,16
 982 879 982 879 954 935 c 128,-1,17
 926 991 926 991 889.5 1036.5 c 128,-1,18
 853 1082 853 1082 798.5 1108.5 c 128,-1,19
 744 1135 744 1135 679 1135 c 0,20,21
 590 1135 590 1135 527 1100.5 c 128,-1,22
 464 1066 464 1066 429 1001.5 c 128,-1,23
 394 937 394 937 378.5 857.5 c 128,-1,24
 363 778 363 778 363 674 c 0,4,5
47 619 m 0,25,26
 47 913 47 913 227 1091.5 c 128,-1,27
 407 1270 407 1270 727 1270 c 0,28,29
 1019 1270 1019 1270 1184.5 1098 c 128,-1,30
 1350 926 1350 926 1350 616 c 0,31,32
 1350 328 1350 328 1161.5 150.5 c 128,-1,33
 973 -27 973 -27 657 -27 c 0,34,35
 507 -27 507 -27 390 21.5 c 128,-1,36
 273 70 273 70 198.5 157 c 128,-1,37
 124 244 124 244 85.5 361 c 128,-1,38
 47 478 47 478 47 619 c 0,25,26
EndSplineSet
Colour: ffff
EndChar

StartChar: Ocircumflex
Encoding: 212 212 35
Width: 1397
VWidth: 0
Flags: HMW
LayerCount: 2
Fore
SplineSet
1022 1380 m 1,0,-1
 853 1345 l 1,1,-1
 749 1430 l 1,2,-1
 739 1430 l 1,3,-1
 652 1339 l 1,4,-1
 491 1363 l 1,5,-1
 655 1579 l 1,6,-1
 842 1600 l 1,7,-1
 1022 1380 l 1,0,-1
363 674 m 0,8,9
 363 616 363 616 370.5 556.5 c 128,-1,10
 378 497 378 497 393.5 433.5 c 128,-1,11
 409 370 409 370 436.5 315 c 128,-1,12
 464 260 464 260 501 216 c 128,-1,13
 538 172 538 172 591 146.5 c 128,-1,14
 644 121 644 121 708 121 c 0,15,16
 1027 121 1027 121 1027 573 c 0,17,18
 1027 630 1027 630 1019.5 689.5 c 128,-1,19
 1012 749 1012 749 997 814 c 128,-1,20
 982 879 982 879 954 935 c 128,-1,21
 926 991 926 991 889.5 1036.5 c 128,-1,22
 853 1082 853 1082 798.5 1108.5 c 128,-1,23
 744 1135 744 1135 679 1135 c 0,24,25
 590 1135 590 1135 527 1100.5 c 128,-1,26
 464 1066 464 1066 429 1001.5 c 128,-1,27
 394 937 394 937 378.5 857.5 c 128,-1,28
 363 778 363 778 363 674 c 0,8,9
47 619 m 0,29,30
 47 913 47 913 227 1091.5 c 128,-1,31
 407 1270 407 1270 727 1270 c 0,32,33
 1019 1270 1019 1270 1184.5 1098 c 128,-1,34
 1350 926 1350 926 1350 616 c 0,35,36
 1350 328 1350 328 1161.5 150.5 c 128,-1,37
 973 -27 973 -27 657 -27 c 0,38,39
 507 -27 507 -27 390 21.5 c 128,-1,40
 273 70 273 70 198.5 157 c 128,-1,41
 124 244 124 244 85.5 361 c 128,-1,42
 47 478 47 478 47 619 c 0,29,30
EndSplineSet
Colour: ffff
EndChar

StartChar: Odieresis
Encoding: 214 214 36
Width: 1397
VWidth: 0
Flags: HMW
LayerCount: 2
Fore
SplineSet
842 1489 m 0,0,1
 842 1526 842 1526 870 1553.5 c 128,-1,2
 898 1581 898 1581 951 1581 c 0,3,4
 1006 1581 1006 1581 1034.5 1554 c 128,-1,5
 1063 1527 1063 1527 1063 1489 c 0,6,7
 1063 1447 1063 1447 1034.5 1419.5 c 128,-1,8
 1006 1392 1006 1392 950.5 1392 c 128,-1,9
 895 1392 895 1392 868.5 1420 c 128,-1,10
 842 1448 842 1448 842 1489 c 0,0,1
534 1489 m 0,11,12
 534 1526 534 1526 561.5 1553.5 c 128,-1,13
 589 1581 589 1581 642 1581 c 0,14,15
 697 1581 697 1581 725.5 1554 c 128,-1,16
 754 1527 754 1527 754 1489 c 0,17,18
 754 1447 754 1447 725.5 1419.5 c 128,-1,19
 697 1392 697 1392 641.5 1392 c 128,-1,20
 586 1392 586 1392 560 1420 c 128,-1,21
 534 1448 534 1448 534 1489 c 0,11,12
363 674 m 0,22,23
 363 616 363 616 370.5 556.5 c 128,-1,24
 378 497 378 497 393.5 433.5 c 128,-1,25
 409 370 409 370 436.5 315 c 128,-1,26
 464 260 464 260 501 216 c 128,-1,27
 538 172 538 172 591 146.5 c 128,-1,28
 644 121 644 121 708 121 c 0,29,30
 1027 121 1027 121 1027 573 c 0,31,32
 1027 630 1027 630 1019.5 689.5 c 128,-1,33
 1012 749 1012 749 997 814 c 128,-1,34
 982 879 982 879 954 935 c 128,-1,35
 926 991 926 991 889.5 1036.5 c 128,-1,36
 853 1082 853 1082 798.5 1108.5 c 128,-1,37
 744 1135 744 1135 679 1135 c 0,38,39
 590 1135 590 1135 527 1100.5 c 128,-1,40
 464 1066 464 1066 429 1001.5 c 128,-1,41
 394 937 394 937 378.5 857.5 c 128,-1,42
 363 778 363 778 363 674 c 0,22,23
47 619 m 0,43,44
 47 913 47 913 227 1091.5 c 128,-1,45
 407 1270 407 1270 727 1270 c 0,46,47
 1019 1270 1019 1270 1184.5 1098 c 128,-1,48
 1350 926 1350 926 1350 616 c 0,49,50
 1350 328 1350 328 1161.5 150.5 c 128,-1,51
 973 -27 973 -27 657 -27 c 0,52,53
 507 -27 507 -27 390 21.5 c 128,-1,54
 273 70 273 70 198.5 157 c 128,-1,55
 124 244 124 244 85.5 361 c 128,-1,56
 47 478 47 478 47 619 c 0,43,44
EndSplineSet
Colour: ffff
EndChar

StartChar: Ograve
Encoding: 210 210 37
Width: 1397
VWidth: 0
Flags: HMW
LayerCount: 2
Fore
SplineSet
543 1728 m 1,0,-1
 760 1766 l 1,1,-1
 900 1426 l 1,2,-1
 743 1393 l 1,3,-1
 543 1728 l 1,0,-1
363 674 m 0,4,5
 363 616 363 616 370.5 556.5 c 128,-1,6
 378 497 378 497 393.5 433.5 c 128,-1,7
 409 370 409 370 436.5 315 c 128,-1,8
 464 260 464 260 501 216 c 128,-1,9
 538 172 538 172 591 146.5 c 128,-1,10
 644 121 644 121 708 121 c 0,11,12
 1027 121 1027 121 1027 573 c 0,13,14
 1027 630 1027 630 1019.5 689.5 c 128,-1,15
 1012 749 1012 749 997 814 c 128,-1,16
 982 879 982 879 954 935 c 128,-1,17
 926 991 926 991 889.5 1036.5 c 128,-1,18
 853 1082 853 1082 798.5 1108.5 c 128,-1,19
 744 1135 744 1135 679 1135 c 0,20,21
 590 1135 590 1135 527 1100.5 c 128,-1,22
 464 1066 464 1066 429 1001.5 c 128,-1,23
 394 937 394 937 378.5 857.5 c 128,-1,24
 363 778 363 778 363 674 c 0,4,5
47 619 m 0,25,26
 47 913 47 913 227 1091.5 c 128,-1,27
 407 1270 407 1270 727 1270 c 0,28,29
 1019 1270 1019 1270 1184.5 1098 c 128,-1,30
 1350 926 1350 926 1350 616 c 0,31,32
 1350 328 1350 328 1161.5 150.5 c 128,-1,33
 973 -27 973 -27 657 -27 c 0,34,35
 507 -27 507 -27 390 21.5 c 128,-1,36
 273 70 273 70 198.5 157 c 128,-1,37
 124 244 124 244 85.5 361 c 128,-1,38
 47 478 47 478 47 619 c 0,25,26
EndSplineSet
Colour: ffff
EndChar

StartChar: Oslash
Encoding: 216 216 38
Width: 1437
VWidth: 0
Flags: HMW
LayerCount: 2
Fore
SplineSet
47 619 m 0,0,1
 47 763 47 763 95.5 883 c 128,-1,2
 144 1003 144 1003 233.5 1089 c 128,-1,3
 323 1175 323 1175 455 1222.5 c 128,-1,4
 587 1270 587 1270 747 1270 c 0,5,6
 902 1270 902 1270 1027 1220 c 1,7,-1
 1085 1293 l 1,8,-1
 1282 1272 l 1,9,-1
 1173 1135 l 1,10,11
 1278 1050 1278 1050 1334 918.5 c 128,-1,12
 1390 787 1390 787 1390 616 c 0,13,14
 1390 475 1390 475 1338 355 c 128,-1,15
 1286 235 1286 235 1193 151 c 128,-1,16
 1100 67 1100 67 967 20 c 128,-1,17
 834 -27 834 -27 677 -27 c 0,18,19
 519 -27 519 -27 393 28 c 1,20,-1
 331 -60 l 1,21,-1
 135 -34 l 1,22,-1
 245 121 l 1,23,24
 148 208 148 208 97.5 336 c 128,-1,25
 47 464 47 464 47 619 c 0,0,1
510 229 m 1,26,27
 597 121 597 121 728 121 c 0,28,29
 1047 121 1047 121 1047 573 c 0,30,31
 1047 663 1047 663 1029 760.5 c 128,-1,32
 1011 858 1011 858 973 938 c 1,33,-1
 510 229 l 1,26,27
460 308 m 1,34,-1
 926 1016 l 1,35,36
 837 1135 837 1135 699 1135 c 0,37,38
 627 1135 627 1135 572 1112 c 128,-1,39
 517 1089 517 1089 481.5 1048.5 c 128,-1,40
 446 1008 446 1008 423.5 949 c 128,-1,41
 401 890 401 890 392 823 c 128,-1,42
 383 756 383 756 383 674 c 0,43,44
 383 582 383 582 402 484.5 c 128,-1,45
 421 387 421 387 460 308 c 1,34,-1
EndSplineSet
Colour: ffff
EndChar

StartChar: Otilde
Encoding: 213 213 39
Width: 1397
VWidth: 0
Flags: HMW
LayerCount: 2
Fore
SplineSet
483 1396 m 1,0,1
 480 1415 480 1415 486 1444 c 128,-1,2
 492 1473 492 1473 507.5 1505.5 c 128,-1,3
 523 1538 523 1538 546 1564 c 128,-1,4
 569 1590 569 1590 606 1602 c 128,-1,5
 643 1614 643 1614 686 1604 c 2,6,-1
 892 1555 l 2,7,8
 908 1551 908 1551 923.5 1562.5 c 128,-1,9
 939 1574 939 1574 947 1588 c 2,10,-1
 955 1601 l 1,11,-1
 1037 1595 l 1,12,13
 1037 1569 1037 1569 1028 1539 c 128,-1,14
 1019 1509 1019 1509 1000.5 1478 c 128,-1,15
 982 1447 982 1447 955 1424.5 c 128,-1,16
 928 1402 928 1402 892 1392 c 128,-1,17
 856 1382 856 1382 811 1393 c 2,18,-1
 624 1439 l 2,19,20
 605 1443 605 1443 590.5 1429 c 128,-1,21
 576 1415 576 1415 570 1399 c 2,22,-1
 565 1383 l 1,23,-1
 483 1396 l 1,0,1
363 674 m 0,24,25
 363 616 363 616 370.5 556.5 c 128,-1,26
 378 497 378 497 393.5 433.5 c 128,-1,27
 409 370 409 370 436.5 315 c 128,-1,28
 464 260 464 260 501 216 c 128,-1,29
 538 172 538 172 591 146.5 c 128,-1,30
 644 121 644 121 708 121 c 0,31,32
 1027 121 1027 121 1027 573 c 0,33,34
 1027 630 1027 630 1019.5 689.5 c 128,-1,35
 1012 749 1012 749 997 814 c 128,-1,36
 982 879 982 879 954 935 c 128,-1,37
 926 991 926 991 889.5 1036.5 c 128,-1,38
 853 1082 853 1082 798.5 1108.5 c 128,-1,39
 744 1135 744 1135 679 1135 c 0,40,41
 590 1135 590 1135 527 1100.5 c 128,-1,42
 464 1066 464 1066 429 1001.5 c 128,-1,43
 394 937 394 937 378.5 857.5 c 128,-1,44
 363 778 363 778 363 674 c 0,24,25
47 619 m 0,45,46
 47 913 47 913 227 1091.5 c 128,-1,47
 407 1270 407 1270 727 1270 c 0,48,49
 1019 1270 1019 1270 1184.5 1098 c 128,-1,50
 1350 926 1350 926 1350 616 c 0,51,52
 1350 328 1350 328 1161.5 150.5 c 128,-1,53
 973 -27 973 -27 657 -27 c 0,54,55
 507 -27 507 -27 390 21.5 c 128,-1,56
 273 70 273 70 198.5 157 c 128,-1,57
 124 244 124 244 85.5 361 c 128,-1,58
 47 478 47 478 47 619 c 0,45,46
EndSplineSet
Colour: ffff
EndChar

StartChar: P
Encoding: 80 80 40
Width: 1181
VWidth: 0
Flags: HMW
LayerCount: 2
Fore
SplineSet
44 0 m 1,0,-1
 61 106 l 1,1,-1
 237 169 l 1,2,-1
 237 1056 l 1,3,-1
 57 1093 l 1,4,-1
 69 1211 l 1,5,6
 400 1261 400 1261 631 1261 c 0,7,8
 722 1261 722 1261 795 1251 c 128,-1,9
 868 1241 868 1241 934 1215 c 128,-1,10
 1000 1189 1000 1189 1044 1148 c 128,-1,11
 1088 1107 1088 1107 1113.5 1041.5 c 128,-1,12
 1139 976 1139 976 1139 890 c 0,13,14
 1139 712 1139 712 1001 591 c 128,-1,15
 863 470 863 470 660 470 c 0,16,17
 629 470 629 470 569 474 c 1,18,-1
 545 602 l 1,19,-1
 581 603 l 1,20,21
 715 605 715 605 783 669 c 128,-1,22
 851 733 851 733 851 848 c 0,23,24
 851 965 851 965 787 1039 c 128,-1,25
 723 1113 723 1113 595 1113 c 0,26,27
 553 1113 553 1113 511 1106 c 1,28,-1
 511 178 l 1,29,-1
 749 120 l 1,30,-1
 731 0 l 1,31,-1
 44 0 l 1,0,-1
EndSplineSet
Colour: ffff
EndChar

StartChar: Q
Encoding: 81 81 41
Width: 1399
VWidth: 0
Flags: HMW
LayerCount: 2
Fore
SplineSet
356 675 m 0,0,1
 356 601 356 601 369 528.5 c 128,-1,2
 382 456 382 456 413.5 382.5 c 128,-1,3
 445 309 445 309 491.5 252 c 128,-1,4
 538 195 538 195 612 155.5 c 128,-1,5
 686 116 686 116 777 108 c 1,6,7
 855 135 855 135 907 180 c 128,-1,8
 959 225 959 225 985.5 287.5 c 128,-1,9
 1012 350 1012 350 1022.5 415.5 c 128,-1,10
 1033 481 1033 481 1033 568 c 0,11,12
 1033 643 1033 643 1021 718.5 c 128,-1,13
 1009 794 1009 794 981.5 869 c 128,-1,14
 954 944 954 944 914 1001.5 c 128,-1,15
 874 1059 874 1059 812.5 1095 c 128,-1,16
 751 1131 751 1131 677 1131 c 0,17,18
 515 1131 515 1131 435.5 1013 c 128,-1,19
 356 895 356 895 356 675 c 0,0,1
47 608 m 0,20,21
 47 752 47 752 95.5 874 c 128,-1,22
 144 996 144 996 232 1083.5 c 128,-1,23
 320 1171 320 1171 449.5 1220.5 c 128,-1,24
 579 1270 579 1270 735 1270 c 0,25,26
 1025 1270 1025 1270 1188.5 1099.5 c 128,-1,27
 1352 929 1352 929 1352 626 c 0,28,29
 1352 399 1352 399 1229.5 229 c 128,-1,30
 1107 59 1107 59 903 5 c 1,31,32
 949 -91 949 -91 1053 -148.5 c 128,-1,33
 1157 -206 1157 -206 1336 -238 c 1,34,35
 1336 -247 1336 -247 1329.5 -291.5 c 128,-1,36
 1323 -336 1323 -336 1321 -343 c 1,37,38
 1217 -384 1217 -384 1091 -384 c 0,39,40
 986 -384 986 -384 900 -345.5 c 128,-1,41
 814 -307 814 -307 760.5 -223.5 c 128,-1,42
 707 -140 707 -140 711 -24 c 1,43,44
 690 -27 690 -27 659 -27 c 0,45,46
 466 -27 466 -27 326.5 55 c 128,-1,47
 187 137 187 137 117 279 c 128,-1,48
 47 421 47 421 47 608 c 0,20,21
EndSplineSet
Colour: ffff
EndChar

StartChar: R
Encoding: 82 82 42
Width: 1419
VWidth: 0
Flags: HMW
LayerCount: 2
Fore
SplineSet
520 648 m 1,0,-1
 695 648 l 1,1,2
 854 717 854 717 854 874 c 0,3,4
 854 981 854 981 784 1051.5 c 128,-1,5
 714 1122 714 1122 596 1122 c 0,6,7
 578 1122 578 1122 560.5 1121 c 128,-1,8
 543 1120 543 1120 532.5 1119.5 c 128,-1,9
 522 1119 522 1119 520 1119 c 1,10,-1
 520 648 l 1,0,-1
45 0 m 1,11,-1
 60 106 l 1,12,-1
 238 169 l 1,13,-1
 238 1048 l 1,14,-1
 57 1086 l 1,15,-1
 68 1205 l 1,16,17
 187 1224 187 1224 348 1239 c 128,-1,18
 509 1254 509 1254 614 1254 c 0,19,20
 882 1254 882 1254 1020 1178.5 c 128,-1,21
 1158 1103 1158 1103 1158 926 c 0,22,23
 1158 813 1158 813 1075.5 717 c 128,-1,24
 993 621 993 621 877 580 c 1,25,-1
 1028 374 l 2,26,27
 1074 311 1074 311 1100.5 278.5 c 128,-1,28
 1127 246 1127 246 1166 206.5 c 128,-1,29
 1205 167 1205 167 1245 145 c 128,-1,30
 1285 123 1285 123 1334 110 c 2,31,-1
 1370 100 l 1,32,-1
 1347 0 l 1,33,34
 1273 -24 1273 -24 1178 -24 c 0,35,36
 1036 -24 1036 -24 939 52 c 128,-1,37
 842 128 842 128 768 268 c 1,38,-1
 644 498 l 1,39,-1
 520 498 l 1,40,-1
 520 178 l 1,41,-1
 685 119 l 1,42,-1
 674 0 l 1,43,-1
 45 0 l 1,11,-1
EndSplineSet
Colour: ffff
EndChar

StartChar: S
Encoding: 83 83 43
Width: 984
VWidth: 0
Flags: HMW
LayerCount: 2
Fore
SplineSet
51 124 m 1,0,-1
 74 438 l 1,1,-1
 214 417 l 1,2,-1
 254 230 l 1,3,4
 284 186 284 186 344 157.5 c 128,-1,5
 404 129 404 129 470 129 c 0,6,7
 544 129 544 129 598 171 c 128,-1,8
 652 213 652 213 652 284 c 0,9,10
 652 330 652 330 619.5 368 c 128,-1,11
 587 406 587 406 535.5 434 c 128,-1,12
 484 462 484 462 422 490.5 c 128,-1,13
 360 519 360 519 297.5 554 c 128,-1,14
 235 589 235 589 183.5 632 c 128,-1,15
 132 675 132 675 99.5 740 c 128,-1,16
 67 805 67 805 67 886 c 0,17,18
 67 961 67 961 93.5 1024.5 c 128,-1,19
 120 1088 120 1088 165 1132 c 128,-1,20
 210 1176 210 1176 270 1207 c 128,-1,21
 330 1238 330 1238 396 1253 c 128,-1,22
 462 1268 462 1268 532 1268 c 0,23,24
 616 1268 616 1268 709.5 1241 c 128,-1,25
 803 1214 803 1214 850 1172 c 1,26,-1
 824 850 l 1,27,-1
 688 872 l 1,28,-1
 656 1038 l 1,29,30
 632 1077 632 1077 576.5 1106.5 c 128,-1,31
 521 1136 521 1136 464 1136 c 0,32,33
 399 1136 399 1136 359.5 1098.5 c 128,-1,34
 320 1061 320 1061 320 992 c 0,35,36
 320 943 320 943 354 903 c 128,-1,37
 388 863 388 863 443 832.5 c 128,-1,38
 498 802 498 802 564 772 c 128,-1,39
 630 742 630 742 696.5 705.5 c 128,-1,40
 763 669 763 669 818 625 c 128,-1,41
 873 581 873 581 907 515 c 128,-1,42
 941 449 941 449 941 368 c 0,43,44
 941 290 941 290 909.5 223.5 c 128,-1,45
 878 157 878 157 826.5 112.5 c 128,-1,46
 775 68 775 68 709.5 36.5 c 128,-1,47
 644 5 644 5 576.5 -9.5 c 128,-1,48
 509 -24 509 -24 445 -24 c 0,49,50
 310 -24 310 -24 203.5 18 c 128,-1,51
 97 60 97 60 51 124 c 1,0,-1
EndSplineSet
Colour: ffff
EndChar

StartChar: T
Encoding: 84 84 44
Width: 1280
VWidth: 0
Flags: HMW
LayerCount: 2
Fore
SplineSet
47 1244 m 1,0,-1
 1234 1244 l 1,1,-1
 1201 851 l 1,2,-1
 1062 874 l 1,3,-1
 1011 1112 l 1,4,-1
 767 1112 l 1,5,-1
 767 161 l 1,6,-1
 960 116 l 1,7,-1
 945 0 l 1,8,-1
 307 0 l 1,9,-1
 317 107 l 1,10,-1
 490 165 l 1,11,-1
 490 1112 l 1,12,-1
 253 1112 l 1,13,-1
 183 848 l 1,14,-1
 52 867 l 1,15,-1
 47 1244 l 1,0,-1
EndSplineSet
Colour: ffff
EndChar

StartChar: Thorn
Encoding: 222 222 45
Width: 1185
VWidth: 0
Flags: HMW
LayerCount: 2
Fore
SplineSet
49 1131 m 1,0,-1
 64 1244 l 1,1,-1
 700 1244 l 1,2,-1
 686 1126 l 1,3,-1
 512 1074 l 1,4,-1
 512 1001 l 1,5,6
 582 1008 582 1008 633 1008 c 0,7,8
 725 1008 725 1008 797 999.5 c 128,-1,9
 869 991 869 991 935.5 967.5 c 128,-1,10
 1002 944 1002 944 1045.5 904.5 c 128,-1,11
 1089 865 1089 865 1115 801.5 c 128,-1,12
 1141 738 1141 738 1141 652 c 0,13,14
 1141 475 1141 475 1008 363 c 128,-1,15
 875 251 875 251 670 251 c 0,16,17
 614 251 614 251 572 256 c 1,18,-1
 547 386 l 1,19,20
 699 381 699 381 775.5 435 c 128,-1,21
 852 489 852 489 852 610 c 0,22,23
 852 724 852 724 789 791 c 128,-1,24
 726 858 726 858 599 858 c 0,25,26
 554 858 554 858 512 851 c 1,27,-1
 512 172 l 1,28,-1
 720 122 l 1,29,-1
 707 0 l 1,30,-1
 52 0 l 1,31,-1
 62 108 l 1,32,-1
 234 170 l 1,33,-1
 234 1073 l 1,34,-1
 49 1131 l 1,0,-1
EndSplineSet
Colour: ffff
EndChar

StartChar: U
Encoding: 85 85 46
Width: 1535
VWidth: 0
Flags: HMW
LayerCount: 2
Fore
SplineSet
41 1131 m 1,0,-1
 62 1244 l 1,1,-1
 693 1244 l 1,2,-1
 678 1131 l 1,3,-1
 510 1078 l 1,4,-1
 510 526 l 2,5,6
 510 344 510 344 596 256.5 c 128,-1,7
 682 169 682 169 832 169 c 0,8,9
 970 169 970 169 1047 253 c 128,-1,10
 1124 337 1124 337 1124 510 c 2,11,-1
 1125 1073 l 1,12,-1
 946 1131 l 1,13,-1
 960 1244 l 1,14,-1
 1492 1244 l 1,15,-1
 1478 1131 l 1,16,-1
 1312 1078 l 1,17,-1
 1308 540 l 2,18,19
 1305 252 1305 252 1171 112.5 c 128,-1,20
 1037 -27 1037 -27 767 -27 c 0,21,22
 711 -27 711 -27 664 -23 c 128,-1,23
 617 -19 617 -19 559.5 -6.5 c 128,-1,24
 502 6 502 6 457 27.5 c 128,-1,25
 412 49 412 49 367.5 87 c 128,-1,26
 323 125 323 125 293.5 177 c 128,-1,27
 264 229 264 229 246 305 c 128,-1,28
 228 381 228 381 228 476 c 2,29,-1
 228 1073 l 1,30,-1
 41 1131 l 1,0,-1
EndSplineSet
Colour: ffff
EndChar

StartChar: Uacute
Encoding: 218 218 47
Width: 1535
VWidth: 0
Flags: HMW
LayerCount: 2
Fore
SplineSet
642 1420 m 1,0,-1
 756 1734 l 1,1,-1
 978 1706 l 1,2,-1
 796 1393 l 1,3,-1
 642 1420 l 1,0,-1
41 1131 m 1,4,-1
 62 1244 l 1,5,-1
 693 1244 l 1,6,-1
 678 1131 l 1,7,-1
 510 1078 l 1,8,-1
 510 526 l 2,9,10
 510 344 510 344 596 256.5 c 128,-1,11
 682 169 682 169 832 169 c 0,12,13
 970 169 970 169 1047 253 c 128,-1,14
 1124 337 1124 337 1124 510 c 2,15,-1
 1125 1073 l 1,16,-1
 946 1131 l 1,17,-1
 960 1244 l 1,18,-1
 1492 1244 l 1,19,-1
 1478 1131 l 1,20,-1
 1312 1078 l 1,21,-1
 1308 540 l 2,22,23
 1305 252 1305 252 1171 112.5 c 128,-1,24
 1037 -27 1037 -27 767 -27 c 0,25,26
 711 -27 711 -27 664 -23 c 128,-1,27
 617 -19 617 -19 559.5 -6.5 c 128,-1,28
 502 6 502 6 457 27.5 c 128,-1,29
 412 49 412 49 367.5 87 c 128,-1,30
 323 125 323 125 293.5 177 c 128,-1,31
 264 229 264 229 246 305 c 128,-1,32
 228 381 228 381 228 476 c 2,33,-1
 228 1073 l 1,34,-1
 41 1131 l 1,4,-1
EndSplineSet
Colour: ffff
EndChar

StartChar: Ucircumflex
Encoding: 219 219 48
Width: 1535
VWidth: 0
Flags: HMW
LayerCount: 2
Fore
SplineSet
1099 1380 m 1,0,-1
 930 1345 l 1,1,-1
 826 1430 l 1,2,-1
 816 1430 l 1,3,-1
 729 1339 l 1,4,-1
 568 1363 l 1,5,-1
 732 1579 l 1,6,-1
 919 1600 l 1,7,-1
 1099 1380 l 1,0,-1
41 1131 m 1,8,-1
 62 1244 l 1,9,-1
 693 1244 l 1,10,-1
 678 1131 l 1,11,-1
 510 1078 l 1,12,-1
 510 526 l 2,13,14
 510 344 510 344 596 256.5 c 128,-1,15
 682 169 682 169 832 169 c 0,16,17
 970 169 970 169 1047 253 c 128,-1,18
 1124 337 1124 337 1124 510 c 2,19,-1
 1125 1073 l 1,20,-1
 946 1131 l 1,21,-1
 960 1244 l 1,22,-1
 1492 1244 l 1,23,-1
 1478 1131 l 1,24,-1
 1312 1078 l 1,25,-1
 1308 540 l 2,26,27
 1305 252 1305 252 1171 112.5 c 128,-1,28
 1037 -27 1037 -27 767 -27 c 0,29,30
 711 -27 711 -27 664 -23 c 128,-1,31
 617 -19 617 -19 559.5 -6.5 c 128,-1,32
 502 6 502 6 457 27.5 c 128,-1,33
 412 49 412 49 367.5 87 c 128,-1,34
 323 125 323 125 293.5 177 c 128,-1,35
 264 229 264 229 246 305 c 128,-1,36
 228 381 228 381 228 476 c 2,37,-1
 228 1073 l 1,38,-1
 41 1131 l 1,8,-1
EndSplineSet
Colour: ffff
EndChar

StartChar: Udieresis
Encoding: 220 220 49
Width: 1535
VWidth: 0
Flags: HMW
LayerCount: 2
Fore
SplineSet
860 1489 m 0,0,1
 860 1526 860 1526 887.5 1553.5 c 128,-1,2
 915 1581 915 1581 968 1581 c 0,3,4
 1023 1581 1023 1581 1051.5 1554 c 128,-1,5
 1080 1527 1080 1527 1080 1489 c 0,6,7
 1080 1447 1080 1447 1051.5 1419.5 c 128,-1,8
 1023 1392 1023 1392 967.5 1392 c 128,-1,9
 912 1392 912 1392 886 1420 c 128,-1,10
 860 1448 860 1448 860 1489 c 0,0,1
550 1489 m 0,11,12
 550 1526 550 1526 578 1553.5 c 128,-1,13
 606 1581 606 1581 659 1581 c 0,14,15
 714 1581 714 1581 742.5 1554 c 128,-1,16
 771 1527 771 1527 771 1489 c 0,17,18
 771 1447 771 1447 742.5 1419.5 c 128,-1,19
 714 1392 714 1392 658.5 1392 c 128,-1,20
 603 1392 603 1392 576.5 1420 c 128,-1,21
 550 1448 550 1448 550 1489 c 0,11,12
41 1131 m 1,22,-1
 62 1244 l 1,23,-1
 693 1244 l 1,24,-1
 678 1131 l 1,25,-1
 510 1078 l 1,26,-1
 510 526 l 2,27,28
 510 344 510 344 596 256.5 c 128,-1,29
 682 169 682 169 832 169 c 0,30,31
 970 169 970 169 1047 253 c 128,-1,32
 1124 337 1124 337 1124 510 c 2,33,-1
 1125 1073 l 1,34,-1
 946 1131 l 1,35,-1
 960 1244 l 1,36,-1
 1492 1244 l 1,37,-1
 1478 1131 l 1,38,-1
 1312 1078 l 1,39,-1
 1308 540 l 2,40,41
 1305 252 1305 252 1171 112.5 c 128,-1,42
 1037 -27 1037 -27 767 -27 c 0,43,44
 711 -27 711 -27 664 -23 c 128,-1,45
 617 -19 617 -19 559.5 -6.5 c 128,-1,46
 502 6 502 6 457 27.5 c 128,-1,47
 412 49 412 49 367.5 87 c 128,-1,48
 323 125 323 125 293.5 177 c 128,-1,49
 264 229 264 229 246 305 c 128,-1,50
 228 381 228 381 228 476 c 2,51,-1
 228 1073 l 1,52,-1
 41 1131 l 1,22,-1
EndSplineSet
Colour: ffff
EndChar

StartChar: Ugrave
Encoding: 217 217 50
Width: 1535
VWidth: 0
Flags: HMW
LayerCount: 2
Fore
SplineSet
561 1728 m 1,0,-1
 778 1766 l 1,1,-1
 918 1426 l 1,2,-1
 761 1393 l 1,3,-1
 561 1728 l 1,0,-1
41 1131 m 1,4,-1
 62 1244 l 1,5,-1
 693 1244 l 1,6,-1
 678 1131 l 1,7,-1
 510 1078 l 1,8,-1
 510 526 l 2,9,10
 510 344 510 344 596 256.5 c 128,-1,11
 682 169 682 169 832 169 c 0,12,13
 970 169 970 169 1047 253 c 128,-1,14
 1124 337 1124 337 1124 510 c 2,15,-1
 1125 1073 l 1,16,-1
 946 1131 l 1,17,-1
 960 1244 l 1,18,-1
 1492 1244 l 1,19,-1
 1478 1131 l 1,20,-1
 1312 1078 l 1,21,-1
 1308 540 l 2,22,23
 1305 252 1305 252 1171 112.5 c 128,-1,24
 1037 -27 1037 -27 767 -27 c 0,25,26
 711 -27 711 -27 664 -23 c 128,-1,27
 617 -19 617 -19 559.5 -6.5 c 128,-1,28
 502 6 502 6 457 27.5 c 128,-1,29
 412 49 412 49 367.5 87 c 128,-1,30
 323 125 323 125 293.5 177 c 128,-1,31
 264 229 264 229 246 305 c 128,-1,32
 228 381 228 381 228 476 c 2,33,-1
 228 1073 l 1,34,-1
 41 1131 l 1,4,-1
EndSplineSet
Colour: ffff
EndChar

StartChar: V
Encoding: 86 86 51
Width: 1463
VWidth: 0
Flags: HMW
LayerCount: 2
Fore
SplineSet
43 1128 m 1,0,-1
 57 1244 l 1,1,-1
 705 1244 l 1,2,-1
 688 1128 l 1,3,-1
 522 1078 l 1,4,-1
 796 336 l 1,5,-1
 1065 1076 l 1,6,-1
 887 1128 l 1,7,-1
 898 1244 l 1,8,-1
 1418 1244 l 1,9,-1
 1407 1128 l 1,10,-1
 1274 1078 l 1,11,-1
 865 20 l 1,12,-1
 612 -24 l 1,13,-1
 189 1076 l 1,14,-1
 43 1128 l 1,0,-1
EndSplineSet
Colour: ffff
EndChar

StartChar: W
Encoding: 87 87 52
Width: 2019
VWidth: 0
Flags: HMW
LayerCount: 2
Fore
SplineSet
43 1128 m 1,0,-1
 53 1244 l 1,1,-1
 688 1244 l 1,2,-1
 663 1124 l 1,3,-1
 503 1078 l 1,4,-1
 701 378 l 1,5,-1
 929 1197 l 1,6,-1
 1186 1230 l 1,7,-1
 1413 394 l 1,8,-1
 1620 1078 l 1,9,-1
 1446 1126 l 1,10,-1
 1462 1244 l 1,11,-1
 1976 1244 l 1,12,-1
 1958 1128 l 1,13,-1
 1831 1082 l 1,14,-1
 1481 21 l 1,15,-1
 1237 -24 l 1,16,-1
 1003 836 l 1,17,-1
 771 21 l 1,18,-1
 517 -24 l 1,19,-1
 201 1074 l 1,20,-1
 43 1128 l 1,0,-1
EndSplineSet
Colour: ffff
EndChar

StartChar: X
Encoding: 88 88 53
Width: 1363
VWidth: 0
Flags: HMW
LayerCount: 2
Fore
SplineSet
46 0 m 1,0,-1
 64 116 l 1,1,-1
 192 177 l 1,2,-1
 538 602 l 1,3,-1
 198 1068 l 1,4,-1
 66 1116 l 1,5,-1
 86 1244 l 1,6,-1
 666 1244 l 1,7,-1
 647 1121 l 1,8,-1
 523 1066 l 1,9,-1
 727 769 l 1,10,-1
 942 1070 l 1,11,-1
 800 1125 l 1,12,-1
 820 1244 l 1,13,-1
 1291 1244 l 1,14,-1
 1275 1128 l 1,15,-1
 1146 1072 l 1,16,-1
 825 650 l 1,17,-1
 1192 170 l 1,18,-1
 1310 130 l 1,19,-1
 1291 0 l 1,20,-1
 718 0 l 1,21,-1
 738 120 l 1,22,-1
 864 176 l 1,23,-1
 641 486 l 1,24,-1
 414 174 l 1,25,-1
 568 125 l 1,26,-1
 546 0 l 1,27,-1
 46 0 l 1,0,-1
EndSplineSet
Colour: ffff
EndChar

StartChar: Y
Encoding: 89 89 54
Width: 1310
VWidth: 0
Flags: HMW
LayerCount: 2
Fore
SplineSet
41 1128 m 1,0,-1
 63 1244 l 1,1,-1
 647 1244 l 1,2,-1
 627 1128 l 1,3,-1
 511 1079 l 1,4,-1
 724 690 l 1,5,-1
 931 1076 l 1,6,-1
 791 1128 l 1,7,-1
 807 1244 l 1,8,-1
 1267 1244 l 1,9,-1
 1249 1128 l 1,10,-1
 1130 1078 l 1,11,-1
 799 514 l 1,12,-1
 799 168 l 1,13,-1
 965 110 l 1,14,-1
 953 0 l 1,15,-1
 349 0 l 1,16,-1
 363 106 l 1,17,-1
 517 169 l 1,18,-1
 517 494 l 1,19,-1
 177 1076 l 1,20,-1
 41 1128 l 1,0,-1
EndSplineSet
Colour: ffff
EndChar

StartChar: Yacute
Encoding: 221 221 55
Width: 1310
VWidth: 0
Flags: HMW
LayerCount: 2
Fore
SplineSet
489 1420 m 1,0,-1
 603 1734 l 1,1,-1
 825 1706 l 1,2,-1
 643 1393 l 1,3,-1
 489 1420 l 1,0,-1
41 1128 m 1,4,-1
 63 1244 l 1,5,-1
 647 1244 l 1,6,-1
 627 1128 l 1,7,-1
 511 1079 l 1,8,-1
 724 690 l 1,9,-1
 931 1076 l 1,10,-1
 791 1128 l 1,11,-1
 807 1244 l 1,12,-1
 1267 1244 l 1,13,-1
 1249 1128 l 1,14,-1
 1130 1078 l 1,15,-1
 799 514 l 1,16,-1
 799 168 l 1,17,-1
 965 110 l 1,18,-1
 953 0 l 1,19,-1
 349 0 l 1,20,-1
 363 106 l 1,21,-1
 517 169 l 1,22,-1
 517 494 l 1,23,-1
 177 1076 l 1,24,-1
 41 1128 l 1,4,-1
EndSplineSet
Colour: ffff
EndChar

StartChar: Z
Encoding: 90 90 56
Width: 1136
VWidth: 0
Flags: HMW
LayerCount: 2
Fore
SplineSet
53 170 m 1,0,-1
 741 1109 l 1,1,-1
 302 1109 l 1,2,-1
 232 858 l 1,3,-1
 87 882 l 1,4,-1
 97 1244 l 1,5,-1
 1077 1244 l 1,6,-1
 1073 1128 l 1,7,-1
 349 153 l 1,8,-1
 813 138 l 1,9,-1
 967 404 l 1,10,-1
 1089 384 l 1,11,-1
 1030 0 l 1,12,-1
 63 0 l 1,13,-1
 53 170 l 1,0,-1
EndSplineSet
Colour: ffff
EndChar

StartChar: a
Encoding: 97 97 57
Width: 928
VWidth: 0
Flags: HMW
LayerCount: 2
Fore
SplineSet
287 247 m 0,0,1
 287 210 287 210 312.5 181 c 128,-1,2
 338 152 338 152 382 152 c 0,3,4
 447 152 447 152 510 211 c 1,5,-1
 510 413 l 1,6,7
 287 376 287 376 287 247 c 0,0,1
51 178 m 0,8,9
 51 308 51 308 169.5 399.5 c 128,-1,10
 288 491 288 491 510 499 c 1,11,-1
 510 574 l 2,12,13
 510 665 510 665 471 726 c 128,-1,14
 432 787 432 787 359 787 c 0,15,16
 307 787 307 787 290 743 c 128,-1,17
 273 699 273 699 263 572 c 1,18,19
 225 572 225 572 197 576 c 128,-1,20
 169 580 169 580 139.5 591 c 128,-1,21
 110 602 110 602 94.5 627 c 128,-1,22
 79 652 79 652 79 689 c 0,23,24
 79 743 79 743 144 798.5 c 128,-1,25
 209 854 209 854 304.5 889 c 128,-1,26
 400 924 400 924 485 924 c 0,27,28
 745 924 745 924 745 617 c 2,29,-1
 745 302 l 1,30,31
 745 280.5 l 2,32,33
 745 259 745 259 746 240.5 c 128,-1,34
 747 222 747 222 749.5 216 c 128,-1,35
 752 210 752 210 756.5 198 c 128,-1,36
 761 186 761 186 767.5 182 c 128,-1,37
 774 178 774 178 784 171 c 128,-1,38
 794 164 794 164 808 160 c 128,-1,39
 822 156 822 156 840 153 c 2,40,-1
 879 146 l 1,41,-1
 860 18 l 1,42,43
 796 -21 796 -21 701 -21 c 0,44,45
 624 -21 624 -21 589.5 14 c 128,-1,46
 555 49 555 49 541 111 c 2,47,-1
 538 125 l 1,48,-1
 526 128 l 1,49,50
 502 72 502 72 427.5 24 c 128,-1,51
 353 -24 353 -24 259 -24 c 0,52,53
 166 -24 166 -24 108.5 28.5 c 128,-1,54
 51 81 51 81 51 178 c 0,8,9
EndSplineSet
Colour: ffff
EndChar

StartChar: aacute
Encoding: 225 225 58
Width: 928
VWidth: 0
Flags: HMW
LayerCount: 2
Fore
SplineSet
333 1076 m 1,0,-1
 447 1390 l 1,1,-1
 669 1362 l 1,2,-1
 487 1049 l 1,3,-1
 333 1076 l 1,0,-1
287 247 m 0,4,5
 287 210 287 210 312.5 181 c 128,-1,6
 338 152 338 152 382 152 c 0,7,8
 447 152 447 152 510 211 c 1,9,-1
 510 413 l 1,10,11
 287 376 287 376 287 247 c 0,4,5
51 178 m 0,12,13
 51 308 51 308 169.5 399.5 c 128,-1,14
 288 491 288 491 510 499 c 1,15,-1
 510 574 l 2,16,17
 510 665 510 665 471 726 c 128,-1,18
 432 787 432 787 359 787 c 0,19,20
 307 787 307 787 290 743 c 128,-1,21
 273 699 273 699 263 572 c 1,22,23
 225 572 225 572 197 576 c 128,-1,24
 169 580 169 580 139.5 591 c 128,-1,25
 110 602 110 602 94.5 627 c 128,-1,26
 79 652 79 652 79 689 c 0,27,28
 79 743 79 743 144 798.5 c 128,-1,29
 209 854 209 854 304.5 889 c 128,-1,30
 400 924 400 924 485 924 c 0,31,32
 745 924 745 924 745 617 c 2,33,-1
 745 302 l 1,34,35
 745 280.5 l 2,36,37
 745 259 745 259 746 240.5 c 128,-1,38
 747 222 747 222 749.5 216 c 128,-1,39
 752 210 752 210 756.5 198 c 128,-1,40
 761 186 761 186 767.5 182 c 128,-1,41
 774 178 774 178 784 171 c 128,-1,42
 794 164 794 164 808 160 c 128,-1,43
 822 156 822 156 840 153 c 2,44,-1
 879 146 l 1,45,-1
 860 18 l 1,46,47
 796 -21 796 -21 701 -21 c 0,48,49
 624 -21 624 -21 589.5 14 c 128,-1,50
 555 49 555 49 541 111 c 2,51,-1
 538 125 l 1,52,-1
 526 128 l 1,53,54
 502 72 502 72 427.5 24 c 128,-1,55
 353 -24 353 -24 259 -24 c 0,56,57
 166 -24 166 -24 108.5 28.5 c 128,-1,58
 51 81 51 81 51 178 c 0,12,13
EndSplineSet
Colour: ffff
EndChar

StartChar: acircumflex
Encoding: 226 226 59
Width: 928
VWidth: 0
Flags: HMW
LayerCount: 2
Fore
SplineSet
731 1037 m 1,0,-1
 562 1002 l 1,1,-1
 458 1087 l 1,2,-1
 448 1087 l 1,3,-1
 361 996 l 1,4,-1
 200 1020 l 1,5,-1
 364 1236 l 1,6,-1
 551 1257 l 1,7,-1
 731 1037 l 1,0,-1
287 247 m 0,8,9
 287 210 287 210 312.5 181 c 128,-1,10
 338 152 338 152 382 152 c 0,11,12
 447 152 447 152 510 211 c 1,13,-1
 510 413 l 1,14,15
 287 376 287 376 287 247 c 0,8,9
51 178 m 0,16,17
 51 308 51 308 169.5 399.5 c 128,-1,18
 288 491 288 491 510 499 c 1,19,-1
 510 574 l 2,20,21
 510 665 510 665 471 726 c 128,-1,22
 432 787 432 787 359 787 c 0,23,24
 307 787 307 787 290 743 c 128,-1,25
 273 699 273 699 263 572 c 1,26,27
 225 572 225 572 197 576 c 128,-1,28
 169 580 169 580 139.5 591 c 128,-1,29
 110 602 110 602 94.5 627 c 128,-1,30
 79 652 79 652 79 689 c 0,31,32
 79 743 79 743 144 798.5 c 128,-1,33
 209 854 209 854 304.5 889 c 128,-1,34
 400 924 400 924 485 924 c 0,35,36
 745 924 745 924 745 617 c 2,37,-1
 745 302 l 1,38,39
 745 280.5 l 2,40,41
 745 259 745 259 746 240.5 c 128,-1,42
 747 222 747 222 749.5 216 c 128,-1,43
 752 210 752 210 756.5 198 c 128,-1,44
 761 186 761 186 767.5 182 c 128,-1,45
 774 178 774 178 784 171 c 128,-1,46
 794 164 794 164 808 160 c 128,-1,47
 822 156 822 156 840 153 c 2,48,-1
 879 146 l 1,49,-1
 860 18 l 1,50,51
 796 -21 796 -21 701 -21 c 0,52,53
 624 -21 624 -21 589.5 14 c 128,-1,54
 555 49 555 49 541 111 c 2,55,-1
 538 125 l 1,56,-1
 526 128 l 1,57,58
 502 72 502 72 427.5 24 c 128,-1,59
 353 -24 353 -24 259 -24 c 0,60,61
 166 -24 166 -24 108.5 28.5 c 128,-1,62
 51 81 51 81 51 178 c 0,16,17
EndSplineSet
Colour: ffff
EndChar

StartChar: acute
Encoding: 180 180 60
Width: 487
VWidth: 0
Flags: HMW
LayerCount: 2
Fore
SplineSet
75 1390 m 1,0,-1
 189 1704 l 1,1,-1
 411 1676 l 1,2,-1
 229 1363 l 1,3,-1
 75 1390 l 1,0,-1
EndSplineSet
Colour: ffff
EndChar

StartChar: adieresis
Encoding: 228 228 61
Width: 928
VWidth: 0
Flags: HMW
LayerCount: 2
Fore
SplineSet
522 1146 m 0,0,1
 522 1183 522 1183 549.5 1210.5 c 128,-1,2
 577 1238 577 1238 630 1238 c 0,3,4
 685 1238 685 1238 713.5 1211 c 128,-1,5
 742 1184 742 1184 742 1146 c 0,6,7
 742 1104 742 1104 713.5 1076.5 c 128,-1,8
 685 1049 685 1049 629.5 1049 c 128,-1,9
 574 1049 574 1049 548 1077 c 128,-1,10
 522 1105 522 1105 522 1146 c 0,0,1
212 1146 m 0,11,12
 212 1183 212 1183 240 1210.5 c 128,-1,13
 268 1238 268 1238 321 1238 c 0,14,15
 376 1238 376 1238 404.5 1211 c 128,-1,16
 433 1184 433 1184 433 1146 c 0,17,18
 433 1104 433 1104 404.5 1076.5 c 128,-1,19
 376 1049 376 1049 320.5 1049 c 128,-1,20
 265 1049 265 1049 238.5 1077 c 128,-1,21
 212 1105 212 1105 212 1146 c 0,11,12
287 247 m 0,22,23
 287 210 287 210 312.5 181 c 128,-1,24
 338 152 338 152 382 152 c 0,25,26
 447 152 447 152 510 211 c 1,27,-1
 510 413 l 1,28,29
 287 376 287 376 287 247 c 0,22,23
51 178 m 0,30,31
 51 308 51 308 169.5 399.5 c 128,-1,32
 288 491 288 491 510 499 c 1,33,-1
 510 574 l 2,34,35
 510 665 510 665 471 726 c 128,-1,36
 432 787 432 787 359 787 c 0,37,38
 307 787 307 787 290 743 c 128,-1,39
 273 699 273 699 263 572 c 1,40,41
 225 572 225 572 197 576 c 128,-1,42
 169 580 169 580 139.5 591 c 128,-1,43
 110 602 110 602 94.5 627 c 128,-1,44
 79 652 79 652 79 689 c 0,45,46
 79 743 79 743 144 798.5 c 128,-1,47
 209 854 209 854 304.5 889 c 128,-1,48
 400 924 400 924 485 924 c 0,49,50
 745 924 745 924 745 617 c 2,51,-1
 745 302 l 1,52,53
 745 280.5 l 2,54,55
 745 259 745 259 746 240.5 c 128,-1,56
 747 222 747 222 749.5 216 c 128,-1,57
 752 210 752 210 756.5 198 c 128,-1,58
 761 186 761 186 767.5 182 c 128,-1,59
 774 178 774 178 784 171 c 128,-1,60
 794 164 794 164 808 160 c 128,-1,61
 822 156 822 156 840 153 c 2,62,-1
 879 146 l 1,63,-1
 860 18 l 1,64,65
 796 -21 796 -21 701 -21 c 0,66,67
 624 -21 624 -21 589.5 14 c 128,-1,68
 555 49 555 49 541 111 c 2,69,-1
 538 125 l 1,70,-1
 526 128 l 1,71,72
 502 72 502 72 427.5 24 c 128,-1,73
 353 -24 353 -24 259 -24 c 0,74,75
 166 -24 166 -24 108.5 28.5 c 128,-1,76
 51 81 51 81 51 178 c 0,30,31
EndSplineSet
Colour: ffff
EndChar

StartChar: ae
Encoding: 230 230 62
Width: 1319
VWidth: 0
Flags: HMW
LayerCount: 2
Fore
SplineSet
750 512 m 1,0,-1
 991 537 l 1,1,2
 999 569 999 569 999 610 c 0,3,4
 999 683 999 683 971.5 727.5 c 128,-1,5
 944 772 944 772 887 772 c 128,-1,6
 830 772 830 772 791.5 701.5 c 128,-1,7
 753 631 753 631 750 512 c 1,0,-1
287 241 m 0,8,9
 287 196 287 196 312.5 170 c 128,-1,10
 338 144 338 144 384 144 c 0,11,12
 424 144 424 144 462.5 174 c 128,-1,13
 501 204 501 204 511 248 c 1,14,-1
 511 404 l 1,15,16
 443 394 443 394 397 377.5 c 128,-1,17
 351 361 351 361 328 338.5 c 128,-1,18
 305 316 305 316 296 293 c 128,-1,19
 287 270 287 270 287 241 c 0,8,9
51 172 m 0,20,21
 51 301 51 301 163 388 c 128,-1,22
 275 475 275 475 511 498 c 1,23,-1
 511 574 l 2,24,25
 511 662 511 662 474 718 c 128,-1,26
 437 774 437 774 371 774 c 0,27,28
 318 774 318 774 297 733.5 c 128,-1,29
 276 693 276 693 260 588 c 1,30,31
 195 582 195 582 142 610.5 c 128,-1,32
 89 639 89 639 89 712 c 0,33,34
 89 769 89 769 158.5 819.5 c 128,-1,35
 228 870 228 870 318 897 c 128,-1,36
 408 924 408 924 481 924 c 0,37,38
 638 924 638 924 691 830 c 1,39,40
 806 924 806 924 948 924 c 0,41,42
 1085 924 1085 924 1168 831 c 128,-1,43
 1251 738 1251 738 1251 580 c 0,44,45
 1251 558 1251 558 1244 503.5 c 128,-1,46
 1237 449 1237 449 1231 423 c 1,47,-1
 751 412 l 1,48,49
 757 297 757 297 826.5 219.5 c 128,-1,50
 896 142 896 142 1015 142 c 0,51,52
 1138 142 1138 142 1253 205 c 1,53,-1
 1272 113 l 1,54,55
 1211 41 1211 41 1109 5.5 c 128,-1,56
 1007 -30 1007 -30 899 -30 c 0,57,58
 784 -30 784 -30 698 16 c 128,-1,59
 612 62 612 62 577 147 c 1,60,61
 502 -24 502 -24 251 -24 c 0,62,63
 167 -24 167 -24 109 26.5 c 128,-1,64
 51 77 51 77 51 172 c 0,20,21
EndSplineSet
Colour: ffff
EndChar

StartChar: agrave
Encoding: 224 224 63
Width: 928
VWidth: 0
Flags: HMW
LayerCount: 2
Fore
SplineSet
282 1384 m 1,0,-1
 499 1422 l 1,1,-1
 639 1082 l 1,2,-1
 482 1049 l 1,3,-1
 282 1384 l 1,0,-1
287 247 m 0,4,5
 287 210 287 210 312.5 181 c 128,-1,6
 338 152 338 152 382 152 c 0,7,8
 447 152 447 152 510 211 c 1,9,-1
 510 413 l 1,10,11
 287 376 287 376 287 247 c 0,4,5
51 178 m 0,12,13
 51 308 51 308 169.5 399.5 c 128,-1,14
 288 491 288 491 510 499 c 1,15,-1
 510 574 l 2,16,17
 510 665 510 665 471 726 c 128,-1,18
 432 787 432 787 359 787 c 0,19,20
 307 787 307 787 290 743 c 128,-1,21
 273 699 273 699 263 572 c 1,22,23
 225 572 225 572 197 576 c 128,-1,24
 169 580 169 580 139.5 591 c 128,-1,25
 110 602 110 602 94.5 627 c 128,-1,26
 79 652 79 652 79 689 c 0,27,28
 79 743 79 743 144 798.5 c 128,-1,29
 209 854 209 854 304.5 889 c 128,-1,30
 400 924 400 924 485 924 c 0,31,32
 745 924 745 924 745 617 c 2,33,-1
 745 302 l 1,34,35
 745 280.5 l 2,36,37
 745 259 745 259 746 240.5 c 128,-1,38
 747 222 747 222 749.5 216 c 128,-1,39
 752 210 752 210 756.5 198 c 128,-1,40
 761 186 761 186 767.5 182 c 128,-1,41
 774 178 774 178 784 171 c 128,-1,42
 794 164 794 164 808 160 c 128,-1,43
 822 156 822 156 840 153 c 2,44,-1
 879 146 l 1,45,-1
 860 18 l 1,46,47
 796 -21 796 -21 701 -21 c 0,48,49
 624 -21 624 -21 589.5 14 c 128,-1,50
 555 49 555 49 541 111 c 2,51,-1
 538 125 l 1,52,-1
 526 128 l 1,53,54
 502 72 502 72 427.5 24 c 128,-1,55
 353 -24 353 -24 259 -24 c 0,56,57
 166 -24 166 -24 108.5 28.5 c 128,-1,58
 51 81 51 81 51 178 c 0,12,13
EndSplineSet
Colour: ffff
EndChar

StartChar: ampersand
Encoding: 38 38 64
Width: 1398
VWidth: 0
Flags: HMW
LayerCount: 2
Fore
SplineSet
433 1026 m 0,0,1
 433 974 433 974 473.5 915 c 128,-1,2
 514 856 514 856 565 810 c 1,3,4
 607 847 607 847 627.5 884.5 c 128,-1,5
 648 922 648 922 648 980 c 0,6,7
 648 1056 648 1056 618 1100.5 c 128,-1,8
 588 1145 588 1145 534 1145 c 0,9,10
 490 1145 490 1145 461.5 1110 c 128,-1,11
 433 1075 433 1075 433 1026 c 0,0,1
310 393 m 0,12,13
 310 293 310 293 362.5 223.5 c 128,-1,14
 415 154 415 154 502 154 c 0,15,16
 561 154 561 154 612.5 192 c 128,-1,17
 664 230 664 230 702 288 c 1,18,-1
 431 588 l 1,19,-1
 418 591 l 1,20,21
 310 509 310 509 310 393 c 0,12,13
50 296 m 0,22,23
 50 427 50 427 125.5 517 c 128,-1,24
 201 607 201 607 343 683 c 1,25,26
 288 732 288 732 253 807 c 128,-1,27
 218 882 218 882 218 954 c 0,28,29
 218 1088 218 1088 326.5 1180 c 128,-1,30
 435 1272 435 1272 570 1272 c 0,31,32
 699 1272 699 1272 777.5 1208 c 128,-1,33
 856 1144 856 1144 856 1018 c 0,34,35
 856 927 856 927 807 856 c 128,-1,36
 758 785 758 785 663 724 c 1,37,-1
 663 710 l 1,38,-1
 852 506 l 1,39,-1
 1005 730 l 1,40,-1
 889 770 l 1,41,-1
 906 888 l 1,42,-1
 1354 888 l 1,43,-1
 1338 770 l 1,44,-1
 1166 722 l 1,45,-1
 952 405 l 1,46,47
 1184 159 1184 159 1280 120 c 1,48,-1
 1319 106 l 1,49,-1
 1296 3 l 1,50,51
 1229 -18 1229 -18 1146 -18 c 0,52,53
 996 -18 996 -18 862 124 c 1,54,-1
 801 187 l 1,55,56
 642 -24 642 -24 414 -24 c 0,57,58
 336 -24 336 -24 271.5 -6 c 128,-1,59
 207 12 207 12 156.5 49.5 c 128,-1,60
 106 87 106 87 78 150 c 128,-1,61
 50 213 50 213 50 296 c 0,22,23
EndSplineSet
Colour: ffff
EndChar

StartChar: aring
Encoding: 229 229 65
Width: 928
VWidth: 0
Flags: HMW
LayerCount: 2
Fore
SplineSet
389 1201 m 0,0,1
 389 1183 389 1183 393.5 1171.5 c 128,-1,2
 398 1160 398 1160 407.5 1156 c 128,-1,3
 417 1152 417 1152 423 1151 c 128,-1,4
 429 1150 429 1150 439 1150 c 0,5,6
 487 1153 487 1153 489 1202 c 1,7,8
 489 1251 489 1251 433 1251 c 0,9,10
 425 1251 425 1251 416.5 1248.5 c 128,-1,11
 408 1246 408 1246 398.5 1233.5 c 128,-1,12
 389 1221 389 1221 389 1201 c 0,0,1
223 1195 m 0,13,14
 223 1267 223 1267 281 1313 c 128,-1,15
 339 1359 339 1359 444 1359 c 0,16,17
 552 1359 552 1359 605.5 1319 c 128,-1,18
 659 1279 659 1279 659 1204 c 0,19,20
 659 1133 659 1133 601 1087.5 c 128,-1,21
 543 1042 543 1042 431 1042 c 0,22,23
 223 1042 223 1042 223 1195 c 0,13,14
287 247 m 0,24,25
 287 210 287 210 312.5 181 c 128,-1,26
 338 152 338 152 382 152 c 0,27,28
 447 152 447 152 510 211 c 1,29,-1
 510 413 l 1,30,31
 287 376 287 376 287 247 c 0,24,25
51 178 m 0,32,33
 51 308 51 308 169.5 399.5 c 128,-1,34
 288 491 288 491 510 499 c 1,35,-1
 510 574 l 2,36,37
 510 665 510 665 471 726 c 128,-1,38
 432 787 432 787 359 787 c 0,39,40
 307 787 307 787 290 743 c 128,-1,41
 273 699 273 699 263 572 c 1,42,43
 225 572 225 572 197 576 c 128,-1,44
 169 580 169 580 139.5 591 c 128,-1,45
 110 602 110 602 94.5 627 c 128,-1,46
 79 652 79 652 79 689 c 0,47,48
 79 743 79 743 144 798.5 c 128,-1,49
 209 854 209 854 304.5 889 c 128,-1,50
 400 924 400 924 485 924 c 0,51,52
 745 924 745 924 745 617 c 2,53,-1
 745 302 l 1,54,55
 745 280.5 l 2,56,57
 745 259 745 259 746 240.5 c 128,-1,58
 747 222 747 222 749.5 216 c 128,-1,59
 752 210 752 210 756.5 198 c 128,-1,60
 761 186 761 186 767.5 182 c 128,-1,61
 774 178 774 178 784 171 c 128,-1,62
 794 164 794 164 808 160 c 128,-1,63
 822 156 822 156 840 153 c 2,64,-1
 879 146 l 1,65,-1
 860 18 l 1,66,67
 796 -21 796 -21 701 -21 c 0,68,69
 624 -21 624 -21 589.5 14 c 128,-1,70
 555 49 555 49 541 111 c 2,71,-1
 538 125 l 1,72,-1
 526 128 l 1,73,74
 502 72 502 72 427.5 24 c 128,-1,75
 353 -24 353 -24 259 -24 c 0,76,77
 166 -24 166 -24 108.5 28.5 c 128,-1,78
 51 81 51 81 51 178 c 0,32,33
EndSplineSet
Colour: ffff
EndChar

StartChar: asciicircum
Encoding: 94 94 66
Width: 740
VWidth: 0
Flags: HMW
LayerCount: 2
Fore
SplineSet
49 826 m 1,0,-1
 314 1237 l 1,1,-1
 414 1250 l 1,2,-1
 688 824 l 1,3,-1
 599 788 l 1,4,-1
 356 1018 l 1,5,-1
 345 1018 l 1,6,-1
 131 794 l 1,7,-1
 49 826 l 1,0,-1
EndSplineSet
Colour: ffff
EndChar

StartChar: asciitilde
Encoding: 126 126 67
Width: 989
VWidth: 0
Flags: HMW
LayerCount: 2
Fore
SplineSet
58 347 m 1,0,1
 57 388 57 388 64.5 431.5 c 128,-1,2
 72 475 72 475 91.5 520 c 128,-1,3
 111 565 111 565 140 597.5 c 128,-1,4
 169 630 169 630 216.5 646.5 c 128,-1,5
 264 663 264 663 322 654 c 2,6,-1
 718 590 l 2,7,8
 741 586 741 586 759 592.5 c 128,-1,9
 777 599 777 599 786.5 611 c 128,-1,10
 796 623 796 623 802 635 c 128,-1,11
 808 647 808 647 810 656 c 2,12,-1
 812 665 l 1,13,-1
 931 655 l 1,14,15
 930 582 930 582 912.5 522.5 c 128,-1,16
 895 463 895 463 861 420.5 c 128,-1,17
 827 378 827 378 771.5 360 c 128,-1,18
 716 342 716 342 645 355 c 2,19,-1
 262 424 l 2,20,21
 240 428 240 428 223 420.5 c 128,-1,22
 206 413 206 413 197.5 399 c 128,-1,23
 189 385 189 385 183.5 371 c 128,-1,24
 178 357 178 357 176 346 c 2,25,-1
 175 336 l 1,26,-1
 58 347 l 1,0,1
EndSplineSet
Colour: ffff
EndChar

StartChar: asterisk
Encoding: 42 42 68
Width: 667
VWidth: 0
Flags: HMW
LayerCount: 2
Fore
SplineSet
89 1102 m 1,0,-1
 198 1184 l 1,1,-1
 301 990 l 1,2,-1
 419 1210 l 1,3,-1
 527 1132 l 1,4,-1
 372 963 l 1,5,-1
 621 934 l 1,6,-1
 581 806 l 1,7,-1
 377 888 l 1,8,-1
 421 654 l 1,9,-1
 284 654 l 1,10,-1
 308 864 l 1,11,-1
 89 756 l 1,12,-1
 47 888 l 1,13,-1
 266 926 l 1,14,-1
 89 1102 l 1,0,-1
EndSplineSet
Colour: ffff
EndChar

StartChar: at
Encoding: 64 64 69
Width: 1457
VWidth: 0
Flags: HMW
LayerCount: 2
Fore
SplineSet
593 378 m 0,0,1
 593 297 593 297 611 265.5 c 128,-1,2
 629 234 629 234 662 234 c 0,3,4
 708 234 708 234 758 276 c 1,5,-1
 808 675 l 1,6,7
 804 675 804 675 785 680.5 c 128,-1,8
 766 686 766 686 748 686 c 0,9,10
 710 686 710 686 679 652.5 c 128,-1,11
 648 619 648 619 630 569 c 128,-1,12
 612 519 612 519 602.5 468.5 c 128,-1,13
 593 418 593 418 593 378 c 0,0,1
53 326 m 0,14,15
 53 468 53 468 111.5 598.5 c 128,-1,16
 170 729 170 729 273.5 827.5 c 128,-1,17
 377 926 377 926 530 985 c 128,-1,18
 683 1044 683 1044 860 1044 c 0,19,20
 966 1044 966 1044 1062.5 1015.5 c 128,-1,21
 1159 987 1159 987 1235.5 934 c 128,-1,22
 1312 881 1312 881 1357.5 796 c 128,-1,23
 1403 711 1403 711 1403 606 c 0,24,25
 1403 502 1403 502 1362.5 404.5 c 128,-1,26
 1322 307 1322 307 1254 235 c 128,-1,27
 1186 163 1186 163 1093 119.5 c 128,-1,28
 1000 76 1000 76 899 76 c 0,29,30
 835 76 835 76 795 104.5 c 128,-1,31
 755 133 755 133 757 192 c 1,32,-1
 746 192 l 1,33,34
 710 139 710 139 660 105.5 c 128,-1,35
 610 72 610 72 560 72 c 0,36,37
 480 72 480 72 428 141.5 c 128,-1,38
 376 211 376 211 376 334 c 0,39,40
 376 521 376 521 508.5 656.5 c 128,-1,41
 641 792 641 792 836 792 c 0,42,43
 927 792 927 792 1000 776 c 1,44,-1
 1018 756 l 1,45,-1
 978 390 l 1,46,47
 967 320 967 320 968.5 263 c 128,-1,48
 970 206 970 206 1000 206 c 0,49,50
 1064 206 1064 206 1115.5 264 c 128,-1,51
 1167 322 1167 322 1191.5 401.5 c 128,-1,52
 1216 481 1216 481 1216 558 c 0,53,54
 1216 741 1216 741 1103 841.5 c 128,-1,55
 990 942 990 942 807 942 c 0,56,57
 681 942 681 942 575 895 c 128,-1,58
 469 848 469 848 399.5 768.5 c 128,-1,59
 330 689 330 689 292 586.5 c 128,-1,60
 254 484 254 484 254 371 c 0,61,62
 254 144 254 144 389 15 c 128,-1,63
 524 -114 524 -114 781 -114 c 0,64,65
 882 -114 882 -114 981 -79 c 128,-1,66
 1080 -44 1080 -44 1138 4 c 1,67,-1
 1178 -84 l 1,68,69
 974 -224 974 -224 726 -224 c 0,70,71
 584 -224 584 -224 462 -188.5 c 128,-1,72
 340 -153 340 -153 248.5 -86 c 128,-1,73
 157 -19 157 -19 105 87 c 128,-1,74
 53 193 53 193 53 326 c 0,14,15
EndSplineSet
Colour: ffff
EndChar

StartChar: atilde
Encoding: 227 227 70
Width: 928
VWidth: 0
Flags: HMW
LayerCount: 2
Fore
SplineSet
182 1053 m 1,0,1
 179 1072 179 1072 185 1101 c 128,-1,2
 191 1130 191 1130 206.5 1162.5 c 128,-1,3
 222 1195 222 1195 245 1221 c 128,-1,4
 268 1247 268 1247 305 1259 c 128,-1,5
 342 1271 342 1271 385 1261 c 2,6,-1
 591 1212 l 2,7,8
 607 1208 607 1208 622.5 1219.5 c 128,-1,9
 638 1231 638 1231 646 1245 c 2,10,-1
 654 1258 l 1,11,-1
 736 1252 l 1,12,13
 736 1226 736 1226 727 1196 c 128,-1,14
 718 1166 718 1166 699.5 1135 c 128,-1,15
 681 1104 681 1104 654 1081.5 c 128,-1,16
 627 1059 627 1059 591 1049 c 128,-1,17
 555 1039 555 1039 510 1050 c 2,18,-1
 323 1096 l 2,19,20
 304 1100 304 1100 289.5 1086 c 128,-1,21
 275 1072 275 1072 269 1056 c 2,22,-1
 264 1040 l 1,23,-1
 182 1053 l 1,0,1
287 247 m 0,24,25
 287 210 287 210 312.5 181 c 128,-1,26
 338 152 338 152 382 152 c 0,27,28
 447 152 447 152 510 211 c 1,29,-1
 510 413 l 1,30,31
 287 376 287 376 287 247 c 0,24,25
51 178 m 0,32,33
 51 308 51 308 169.5 399.5 c 128,-1,34
 288 491 288 491 510 499 c 1,35,-1
 510 574 l 2,36,37
 510 665 510 665 471 726 c 128,-1,38
 432 787 432 787 359 787 c 0,39,40
 307 787 307 787 290 743 c 128,-1,41
 273 699 273 699 263 572 c 1,42,43
 225 572 225 572 197 576 c 128,-1,44
 169 580 169 580 139.5 591 c 128,-1,45
 110 602 110 602 94.5 627 c 128,-1,46
 79 652 79 652 79 689 c 0,47,48
 79 743 79 743 144 798.5 c 128,-1,49
 209 854 209 854 304.5 889 c 128,-1,50
 400 924 400 924 485 924 c 0,51,52
 745 924 745 924 745 617 c 2,53,-1
 745 302 l 1,54,55
 745 280.5 l 2,56,57
 745 259 745 259 746 240.5 c 128,-1,58
 747 222 747 222 749.5 216 c 128,-1,59
 752 210 752 210 756.5 198 c 128,-1,60
 761 186 761 186 767.5 182 c 128,-1,61
 774 178 774 178 784 171 c 128,-1,62
 794 164 794 164 808 160 c 128,-1,63
 822 156 822 156 840 153 c 2,64,-1
 879 146 l 1,65,-1
 860 18 l 1,66,67
 796 -21 796 -21 701 -21 c 0,68,69
 624 -21 624 -21 589.5 14 c 128,-1,70
 555 49 555 49 541 111 c 2,71,-1
 538 125 l 1,72,-1
 526 128 l 1,73,74
 502 72 502 72 427.5 24 c 128,-1,75
 353 -24 353 -24 259 -24 c 0,76,77
 166 -24 166 -24 108.5 28.5 c 128,-1,78
 51 81 51 81 51 178 c 0,32,33
EndSplineSet
Colour: ffff
EndChar

StartChar: b
Encoding: 98 98 71
Width: 1085
VWidth: 0
Flags: HMW
LayerCount: 2
Fore
SplineSet
429 207 m 1,0,1
 495 144 495 144 597 144 c 0,2,3
 674 144 674 144 725 219.5 c 128,-1,4
 776 295 776 295 776 428 c 0,5,6
 776 478 776 478 767.5 524 c 128,-1,7
 759 570 759 570 741 612.5 c 128,-1,8
 723 655 723 655 689.5 680.5 c 128,-1,9
 656 706 656 706 610 706 c 0,10,11
 515 706 515 706 429 625 c 1,12,-1
 429 207 l 1,0,1
41 1124 m 1,13,-1
 62 1244 l 1,14,-1
 389 1268 l 1,15,-1
 429 1229 l 1,16,-1
 429 864 l 1,17,-1
 415 760 l 1,18,-1
 427 758 l 1,19,20
 494 834 494 834 559 874 c 128,-1,21
 624 914 624 914 702 914 c 0,22,23
 855 914 855 914 947.5 795 c 128,-1,24
 1040 676 1040 676 1040 484 c 0,25,26
 1040 368 1040 368 996.5 271 c 128,-1,27
 953 174 953 174 880 110.5 c 128,-1,28
 807 47 807 47 712.5 12 c 128,-1,29
 618 -23 618 -23 515 -23 c 0,30,31
 438 -23 438 -23 344 -4.5 c 128,-1,32
 250 14 250 14 189 50 c 1,33,-1
 189 1047 l 1,34,-1
 41 1124 l 1,13,-1
EndSplineSet
Colour: ffff
EndChar

StartChar: backslash
Encoding: 92 92 72
Width: 720
VWidth: 0
Flags: HMW
LayerCount: 2
Fore
SplineSet
37 1304 m 1,0,-1
 222 1291 l 1,1,-1
 683 -393 l 1,2,-1
 505 -382 l 1,3,-1
 37 1304 l 1,0,-1
EndSplineSet
Colour: ffff
EndChar

StartChar: bar
Encoding: 124 124 73
Width: 307
VWidth: 0
Flags: HMW
LayerCount: 2
Fore
SplineSet
75 -364 m 1,0,-1
 75 1260 l 1,1,-1
 231 1248 l 1,2,-1
 231 -380 l 1,3,-1
 75 -364 l 1,0,-1
EndSplineSet
Colour: ffff
EndChar

StartChar: braceleft
Encoding: 123 123 74
Width: 694
VWidth: 0
Flags: HMW
LayerCount: 2
Fore
SplineSet
618 -378 m 1,0,-1
 443 -378 l 2,1,2
 359 -378 359 -378 307 -340 c 128,-1,3
 255 -302 255 -302 236 -241 c 128,-1,4
 217 -180 217 -180 210.5 -105.5 c 128,-1,5
 204 -31 204 -31 203 46 c 128,-1,6
 202 123 202 123 195 188.5 c 128,-1,7
 188 254 188 254 158.5 300.5 c 128,-1,8
 129 347 129 347 73 357 c 2,9,-1
 16 368 l 1,10,-1
 16 516 l 1,11,-1
 69 527 l 2,12,13
 126 538 126 538 157 584 c 128,-1,14
 188 630 188 630 196 695 c 128,-1,15
 204 760 204 760 205.5 836 c 128,-1,16
 207 912 207 912 213 985.5 c 128,-1,17
 219 1059 219 1059 237.5 1119.5 c 128,-1,18
 256 1180 256 1180 307 1217.5 c 128,-1,19
 358 1255 358 1255 441 1255 c 2,20,-1
 611 1255 l 1,21,-1
 605 1104 l 1,22,-1
 497 1099 l 2,23,24
 457 1097 457 1097 444.5 1034.5 c 128,-1,25
 432 972 432 972 433.5 883 c 128,-1,26
 435 794 435 794 431.5 702.5 c 128,-1,27
 428 611 428 611 392.5 539.5 c 128,-1,28
 357 468 357 468 283 452 c 1,29,-1
 283 442 l 1,30,31
 337 418 337 418 370.5 368.5 c 128,-1,32
 404 319 404 319 415.5 259.5 c 128,-1,33
 427 200 427 200 430.5 133.5 c 128,-1,34
 434 67 434 67 433.5 5.5 c 128,-1,35
 433 -56 433 -56 437 -106 c 128,-1,36
 441 -156 441 -156 458 -187 c 128,-1,37
 475 -218 475 -218 509 -220 c 2,38,-1
 607 -225 l 1,39,-1
 618 -378 l 1,0,-1
EndSplineSet
Colour: ffff
EndChar

StartChar: braceright
Encoding: 125 125 75
Width: 693
VWidth: 0
Flags: HMW
LayerCount: 2
Fore
SplineSet
43 -378 m 1,0,-1
 54 -225 l 1,1,-1
 152 -220 l 2,2,3
 186 -218 186 -218 203 -187 c 128,-1,4
 220 -156 220 -156 224 -106 c 128,-1,5
 228 -56 228 -56 227.5 5.5 c 128,-1,6
 227 67 227 67 230.5 133.5 c 128,-1,7
 234 200 234 200 245.5 259.5 c 128,-1,8
 257 319 257 319 290.5 368.5 c 128,-1,9
 324 418 324 418 378 442 c 1,10,-1
 378 452 l 1,11,12
 304 468 304 468 268.5 539.5 c 128,-1,13
 233 611 233 611 229.5 702.5 c 128,-1,14
 226 794 226 794 227.5 883 c 128,-1,15
 229 972 229 972 216.5 1034.5 c 128,-1,16
 204 1097 204 1097 164 1099 c 2,17,-1
 56 1104 l 1,18,-1
 50 1255 l 1,19,-1
 220 1255 l 2,20,21
 303 1255 303 1255 354 1217.5 c 128,-1,22
 405 1180 405 1180 423.5 1119.5 c 128,-1,23
 442 1059 442 1059 448 985.5 c 128,-1,24
 454 912 454 912 455.5 836 c 128,-1,25
 457 760 457 760 465 695 c 128,-1,26
 473 630 473 630 504 584 c 128,-1,27
 535 538 535 538 592 527 c 2,28,-1
 645 516 l 1,29,-1
 645 368 l 1,30,-1
 588 357 l 2,31,32
 532 347 532 347 502.5 300.5 c 128,-1,33
 473 254 473 254 466 188.5 c 128,-1,34
 459 123 459 123 458 46 c 128,-1,35
 457 -31 457 -31 450.5 -105.5 c 128,-1,36
 444 -180 444 -180 425 -241 c 128,-1,37
 406 -302 406 -302 354 -340 c 128,-1,38
 302 -378 302 -378 218 -378 c 2,39,-1
 43 -378 l 1,0,-1
EndSplineSet
Colour: ffff
EndChar

StartChar: bracketleft
Encoding: 91 91 76
Width: 540
VWidth: 0
Flags: HMW
LayerCount: 2
Fore
SplineSet
456 -246 m 1,0,-1
 437 -376 l 1,1,-1
 34 -377 l 1,2,-1
 36 1255 l 1,3,-1
 431 1255 l 1,4,-1
 452 1130 l 1,5,-1
 224 1110 l 1,6,-1
 224 -226 l 1,7,-1
 456 -246 l 1,0,-1
EndSplineSet
Colour: ffff
EndChar

StartChar: bracketright
Encoding: 93 93 77
Width: 538
VWidth: 0
Flags: HMW
LayerCount: 2
Fore
SplineSet
41 -246 m 1,0,-1
 273 -226 l 1,1,-1
 273 1110 l 1,2,-1
 45 1130 l 1,3,-1
 66 1255 l 1,4,-1
 461 1255 l 1,5,-1
 463 -377 l 1,6,-1
 60 -376 l 1,7,-1
 41 -246 l 1,0,-1
EndSplineSet
Colour: ffff
EndChar

StartChar: brokenbar
Encoding: 166 166 78
Width: 317
VWidth: 0
Flags: HMW
LayerCount: 2
Fore
SplineSet
73 534 m 1,0,-1
 73 1267 l 1,1,-1
 241 1248 l 1,2,-1
 241 517 l 1,3,-1
 73 534 l 1,0,-1
73 -358 m 1,4,-1
 73 419 l 1,5,-1
 243 399 l 1,6,-1
 243 -380 l 1,7,-1
 73 -358 l 1,4,-1
EndSplineSet
Colour: ffff
EndChar

StartChar: c
Encoding: 99 99 79
Width: 835
VWidth: 0
Flags: HMW
LayerCount: 2
Fore
SplineSet
41 420 m 0,0,1
 41 514 41 514 69 597.5 c 128,-1,2
 97 681 97 681 144.5 741.5 c 128,-1,3
 192 802 192 802 254 846 c 128,-1,4
 316 890 316 890 384.5 912 c 128,-1,5
 453 934 453 934 522 934 c 0,6,7
 645 934 645 934 715.5 877.5 c 128,-1,8
 786 821 786 821 786 736 c 0,9,10
 786 673 786 673 741.5 638 c 128,-1,11
 697 603 697 603 621 596 c 1,12,13
 586 696 586 696 549 743.5 c 128,-1,14
 512 791 512 791 460 791 c 0,15,16
 382 791 382 791 340 720 c 128,-1,17
 298 649 298 649 298 511 c 0,18,19
 298 461 298 461 308 410.5 c 128,-1,20
 318 360 318 360 340 312 c 128,-1,21
 362 264 362 264 392.5 227 c 128,-1,22
 423 190 423 190 468 167.5 c 128,-1,23
 513 145 513 145 566 145 c 0,24,25
 638 145 638 145 687 161.5 c 128,-1,26
 736 178 736 178 790 211 c 1,27,-1
 822 130 l 1,28,29
 782 63 782 63 685.5 16.5 c 128,-1,30
 589 -30 589 -30 480 -30 c 128,-1,31
 371 -30 371 -30 286.5 4 c 128,-1,32
 202 38 202 38 148.5 99 c 128,-1,33
 95 160 95 160 68 241.5 c 128,-1,34
 41 323 41 323 41 420 c 0,0,1
EndSplineSet
Colour: ffff
EndChar

StartChar: ccedilla
Encoding: 231 231 80
Width: 835
VWidth: 0
Flags: HMW
LayerCount: 2
Fore
SplineSet
282 -324 m 1,0,1
 330 -317 330 -317 367 -300 c 128,-1,2
 404 -283 404 -283 404 -262 c 0,3,4
 404 -245 404 -245 381 -224.5 c 128,-1,5
 358 -204 358 -204 337 -192 c 128,-1,6
 316 -180 316 -180 279 -161 c 1,7,-1
 447 -29 l 1,8,9
 346 -24 346 -24 268 12 c 128,-1,10
 190 48 190 48 140.5 108.5 c 128,-1,11
 91 169 91 169 66 247.5 c 128,-1,12
 41 326 41 326 41 420 c 128,-1,13
 41 514 41 514 69 597.5 c 128,-1,14
 97 681 97 681 144.5 741.5 c 128,-1,15
 192 802 192 802 254 846 c 128,-1,16
 316 890 316 890 384.5 912 c 128,-1,17
 453 934 453 934 522 934 c 0,18,19
 645 934 645 934 715.5 877.5 c 128,-1,20
 786 821 786 821 786 736 c 0,21,22
 786 673 786 673 741.5 638 c 128,-1,23
 697 603 697 603 621 596 c 1,24,25
 586 696 586 696 549 743.5 c 128,-1,26
 512 791 512 791 460 791 c 0,27,28
 382 791 382 791 340 720 c 128,-1,29
 298 649 298 649 298 511 c 0,30,31
 298 461 298 461 308 410.5 c 128,-1,32
 318 360 318 360 340 312 c 128,-1,33
 362 264 362 264 392.5 227 c 128,-1,34
 423 190 423 190 468 167.5 c 128,-1,35
 513 145 513 145 566 145 c 0,36,37
 638 145 638 145 687 161.5 c 128,-1,38
 736 178 736 178 790 211 c 1,39,-1
 822 130 l 1,40,41
 791 78 791 78 723 37 c 128,-1,42
 655 -4 655 -4 572 -21 c 1,43,-1
 490 -100 l 1,44,45
 513 -113 513 -113 527 -122 c 128,-1,46
 541 -131 541 -131 561.5 -148.5 c 128,-1,47
 582 -166 582 -166 592 -188 c 128,-1,48
 602 -210 602 -210 602 -236 c 0,49,50
 602 -311 602 -311 524 -350.5 c 128,-1,51
 446 -390 446 -390 310 -408 c 1,52,-1
 282 -324 l 1,0,1
EndSplineSet
Colour: ffff
EndChar

StartChar: cedilla
Encoding: 184 184 81
Width: 436
VWidth: 0
Flags: HMW
LayerCount: 2
Fore
SplineSet
56 -304 m 1,0,1
 104 -297 104 -297 141 -280 c 128,-1,2
 178 -263 178 -263 178 -242 c 0,3,4
 178 -225 178 -225 155 -204.5 c 128,-1,5
 132 -184 132 -184 111 -172 c 128,-1,6
 90 -160 90 -160 53 -141 c 1,7,-1
 236 3 l 1,8,-1
 350 3 l 1,9,-1
 264 -80 l 1,10,11
 287 -93 287 -93 301 -102 c 128,-1,12
 315 -111 315 -111 335.5 -128.5 c 128,-1,13
 356 -146 356 -146 366 -168 c 128,-1,14
 376 -190 376 -190 376 -216 c 0,15,16
 376 -291 376 -291 298 -330.5 c 128,-1,17
 220 -370 220 -370 84 -388 c 1,18,-1
 56 -304 l 1,0,1
EndSplineSet
Colour: ffff
EndChar

StartChar: cent
Encoding: 162 162 82
Width: 880
VWidth: 0
Flags: HMW
LayerCount: 2
Fore
SplineSet
378 1193 m 1,0,-1
 565 1210 l 1,1,-1
 543 976 l 1,2,3
 608 975 608 975 659 955.5 c 128,-1,4
 710 936 710 936 740.5 905 c 128,-1,5
 771 874 771 874 786.5 836.5 c 128,-1,6
 802 799 802 799 802 758 c 0,7,8
 802 693 802 693 759.5 655 c 128,-1,9
 717 617 717 617 643 610 c 1,10,11
 603 722 603 722 562 775 c 128,-1,12
 521 828 521 828 464 828 c 0,13,14
 391 828 391 828 350.5 742 c 128,-1,15
 310 656 310 656 310 519 c 0,16,17
 310 433 310 433 338 353.5 c 128,-1,18
 366 274 366 274 429 217 c 128,-1,19
 492 160 492 160 578 160 c 0,20,21
 648 160 648 160 698.5 178 c 128,-1,22
 749 196 749 196 806 231 c 1,23,-1
 838 135 l 1,24,25
 803 77 803 77 722.5 31.5 c 128,-1,26
 642 -14 642 -14 547 -26 c 1,27,28
 577 -250 l 1,29,-1
 388 -266 l 1,30,-1
 412 -25 l 1,31,32
 294 -8 294 -8 211.5 58 c 128,-1,33
 129 124 129 124 90.5 219.5 c 128,-1,34
 52 315 52 315 52 434 c 0,35,36
 52 530 52 530 81.5 617.5 c 128,-1,37
 111 705 111 705 160.5 771 c 128,-1,38
 210 837 210 837 273.5 884 c 128,-1,39
 337 931 337 931 408 955 c 1,40,-1
 378 1193 l 1,0,-1
EndSplineSet
Colour: ffff
EndChar

StartChar: circumflex
Encoding: 710 710 83
Width: 677
VWidth: 0
Flags: HMW
LayerCount: 2
Back
SplineSet
543 1344 m 5,0,-1
 338 1309 l 1,1,-1
 249 1394 l 1,2,-1
 239 1394 l 1,3,-1
 155 1313 l 1,4,-1
 12 1327 l 1,5,-1
 202 1543 l 1,6,-1
 349 1564 l 1,7,-1
 543 1344 l 5,0,-1
EndSplineSet
Fore
SplineSet
603 1344 m 1,0,-1
 434 1309 l 1,1,-1
 330 1394 l 1,2,-1
 320 1394 l 1,3,-1
 233 1303 l 1,4,-1
 72 1327 l 1,5,-1
 236 1543 l 1,6,-1
 423 1564 l 1,7,-1
 603 1344 l 1,0,-1
EndSplineSet
Colour: ffff
EndChar

StartChar: colon
Encoding: 58 58 84
Width: 423
VWidth: 0
Flags: HMW
LayerCount: 2
Fore
SplineSet
84 111 m 0,0,1
 84 159 84 159 121.5 194.5 c 128,-1,2
 159 230 159 230 231 230 c 0,3,4
 306 230 306 230 345 194.5 c 128,-1,5
 384 159 384 159 384 111 c 0,6,7
 384 56 384 56 345 21.5 c 128,-1,8
 306 -13 306 -13 231 -13 c 128,-1,9
 156 -13 156 -13 120 22.5 c 128,-1,10
 84 58 84 58 84 111 c 0,0,1
231 615 m 128,-1,12
 156 615 156 615 120 650.5 c 128,-1,13
 84 686 84 686 84 739 c 0,14,15
 84 787 84 787 121.5 822.5 c 128,-1,16
 159 858 159 858 231 858 c 0,17,18
 306 858 306 858 345 822.5 c 128,-1,19
 384 787 384 787 384 739 c 0,20,21
 384 684 384 684 345 649.5 c 128,-1,11
 306 615 306 615 231 615 c 128,-1,12
EndSplineSet
Colour: ffff
EndChar

StartChar: comma
Encoding: 44 44 85
Width: 498
VWidth: 0
Flags: HMW
LayerCount: 2
Fore
SplineSet
61 -252 m 1,0,1
 148 -227 148 -227 191 -177.5 c 128,-1,2
 234 -128 234 -128 234 -75 c 0,3,4
 234 -33 234 -33 205.5 -5 c 128,-1,5
 177 23 177 23 133 23 c 0,6,7
 111 23 111 23 91 16 c 1,8,9
 68 62 68 62 68 96 c 0,10,11
 68 167 68 167 115.5 207.5 c 128,-1,12
 163 248 163 248 230 248 c 0,13,14
 325 248 325 248 382 185.5 c 128,-1,15
 439 123 439 123 439 11 c 0,16,17
 439 -41 439 -41 422 -92 c 128,-1,18
 405 -143 405 -143 368 -194 c 128,-1,19
 331 -245 331 -245 260.5 -285.5 c 128,-1,20
 190 -326 190 -326 94 -345 c 1,21,-1
 61 -252 l 1,0,1
EndSplineSet
Colour: ffff
EndChar

StartChar: copyright
Encoding: 169 169 86
Width: 1443
VWidth: 0
Flags: HMW
LayerCount: 2
Fore
SplineSet
214 682 m 0,0,1
 214 427 214 427 355.5 279 c 128,-1,2
 497 131 497 131 721 131 c 0,3,4
 863 131 863 131 979 195 c 128,-1,5
 1095 259 1095 259 1165 381.5 c 128,-1,6
 1235 504 1235 504 1235 664 c 0,7,8
 1235 757 1235 757 1215 840.5 c 128,-1,9
 1195 924 1195 924 1152.5 995.5 c 128,-1,10
 1110 1067 1110 1067 1050 1119 c 128,-1,11
 990 1171 990 1171 904.5 1200.5 c 128,-1,12
 819 1230 819 1230 717 1230 c 0,13,14
 568 1230 568 1230 452.5 1157.5 c 128,-1,15
 337 1085 337 1085 275.5 961 c 128,-1,16
 214 837 214 837 214 682 c 0,0,1
49 666 m 0,17,18
 49 867 49 867 140.5 1026.5 c 128,-1,19
 232 1186 232 1186 385 1272 c 128,-1,20
 538 1358 538 1358 723 1358 c 0,21,22
 925 1358 925 1358 1077.5 1270.5 c 128,-1,23
 1230 1183 1230 1183 1310.5 1028.5 c 128,-1,24
 1391 874 1391 874 1391 674 c 0,25,26
 1391 542 1391 542 1338.5 418.5 c 128,-1,27
 1286 295 1286 295 1197 202.5 c 128,-1,28
 1108 110 1108 110 981.5 54 c 128,-1,29
 855 -2 855 -2 715 -2 c 0,30,31
 515 -2 515 -2 363 82.5 c 128,-1,32
 211 167 211 167 130 318.5 c 128,-1,33
 49 470 49 470 49 666 c 0,17,18
369 660 m 0,34,35
 369 739 369 739 393 809.5 c 128,-1,36
 417 880 417 880 457 931 c 128,-1,37
 497 982 497 982 549 1019.5 c 128,-1,38
 601 1057 601 1057 659 1075.5 c 128,-1,39
 717 1094 717 1094 775 1094 c 0,40,41
 879 1094 879 1094 938.5 1046 c 128,-1,42
 998 998 998 998 998 927 c 0,43,44
 998 874 998 874 960.5 844.5 c 128,-1,45
 923 815 923 815 859 809 c 1,46,47
 830 893 830 893 798 933 c 128,-1,48
 766 973 766 973 723 973 c 0,49,50
 657 973 657 973 621.5 913.5 c 128,-1,51
 586 854 586 854 586 737 c 0,52,53
 586 684 586 684 600.5 631 c 128,-1,54
 615 578 615 578 641.5 532 c 128,-1,55
 668 486 668 486 712.5 457 c 128,-1,56
 757 428 757 428 812 428 c 0,57,58
 872 428 872 428 913.5 442 c 128,-1,59
 955 456 955 456 1001 484 c 1,60,-1
 1028 416 l 1,61,62
 994 360 994 360 913 320.5 c 128,-1,63
 832 281 832 281 740 281 c 128,-1,64
 648 281 648 281 576.5 309.5 c 128,-1,65
 505 338 505 338 460 389.5 c 128,-1,66
 415 441 415 441 392 509.5 c 128,-1,67
 369 578 369 578 369 660 c 0,34,35
EndSplineSet
Colour: ffff
EndChar

StartChar: currency
Encoding: 164 164 87
Width: 836
VWidth: 0
Flags: HMW
LayerCount: 2
Fore
SplineSet
284 492 m 0,0,1
 284 424 284 424 321.5 381 c 128,-1,2
 359 338 359 338 415 338 c 0,3,4
 473 338 473 338 511 379 c 128,-1,5
 549 420 549 420 549 486 c 0,6,7
 549 556 549 556 511.5 598 c 128,-1,8
 474 640 474 640 415 640 c 0,9,10
 359 640 359 640 321.5 599 c 128,-1,11
 284 558 284 558 284 492 c 0,0,1
45 723 m 1,12,-1
 171 841 l 1,13,-1
 279 725 l 1,14,15
 340 776 340 776 422 776 c 0,16,17
 502 776 502 776 556 735 c 1,18,-1
 665 844 l 1,19,-1
 785 720 l 1,20,-1
 669 616 l 1,21,22
 699 561 699 561 699 490 c 0,23,24
 699 409 699 409 663 357 c 1,25,-1
 789 238 l 1,26,-1
 659 122 l 1,27,-1
 546 245 l 1,28,29
 480 204 480 204 409 204 c 0,30,31
 348 204 348 204 292 238 c 1,32,-1
 181 111 l 1,33,-1
 55 233 l 1,34,-1
 175 347 l 1,35,36
 135 405 135 405 135 486 c 0,37,38
 135 552 135 552 169 608 c 1,39,-1
 45 723 l 1,12,-1
EndSplineSet
Colour: ffff
EndChar

StartChar: d
Encoding: 100 100 88
Width: 1086
VWidth: 0
Flags: HMW
LayerCount: 2
Fore
SplineSet
305 464 m 0,0,1
 305 334 305 334 353.5 256.5 c 128,-1,2
 402 179 402 179 485 179 c 0,3,4
 526 179 526 179 569 197.5 c 128,-1,5
 612 216 612 216 645 244 c 1,6,-1
 645 638 l 1,7,8
 607 693 607 693 559.5 722 c 128,-1,9
 512 751 512 751 471 751 c 0,10,11
 416 751 416 751 377 709 c 128,-1,12
 338 667 338 667 321.5 604 c 128,-1,13
 305 541 305 541 305 464 c 0,0,1
48 383 m 0,14,15
 48 520 48 520 106 639.5 c 128,-1,16
 164 759 164 759 271 832.5 c 128,-1,17
 378 906 378 906 510 906 c 0,18,19
 546 906 546 906 588.5 895.5 c 128,-1,20
 631 885 631 885 653 870 c 1,21,-1
 659 870 l 1,22,-1
 648 970 l 1,23,-1
 648 1049 l 1,24,-1
 485 1127 l 1,25,-1
 505 1246 l 1,26,-1
 839 1272 l 1,27,-1
 879 1232 l 1,28,-1
 879 295 l 2,29,30
 879 222 879 222 904 197.5 c 128,-1,31
 929 173 929 173 1003 152 c 2,32,-1
 1039 142 l 1,33,-1
 1021 16 l 1,34,35
 964 -5 964 -5 924.5 -14 c 128,-1,36
 885 -23 885 -23 830 -23 c 0,37,38
 755 -23 755 -23 711.5 14 c 128,-1,39
 668 51 668 51 655 116 c 1,40,-1
 652 126 l 1,41,-1
 641 128 l 1,42,43
 592 60 592 60 529.5 20 c 128,-1,44
 467 -20 467 -20 373 -20 c 0,45,46
 226 -20 226 -20 137 91 c 128,-1,47
 48 202 48 202 48 383 c 0,14,15
EndSplineSet
Colour: ffff
EndChar

StartChar: dagger
Encoding: 8224 8224 89
Width: 858
VWidth: 0
Flags: HMW
LayerCount: 2
Fore
SplineSet
44 689 m 1,0,-1
 52 844 l 1,1,-1
 348 836 l 1,2,-1
 342 1255 l 1,3,-1
 514 1244 l 1,4,-1
 506 836 l 1,5,-1
 812 844 l 1,6,-1
 804 681 l 1,7,-1
 506 692 l 1,8,-1
 520 -362 l 1,9,-1
 336 -351 l 1,10,-1
 348 694 l 1,11,-1
 44 689 l 1,0,-1
EndSplineSet
Colour: ffff
EndChar

StartChar: daggerdbl
Encoding: 8225 8225 90
Width: 863
VWidth: 0
Flags: HMW
LayerCount: 2
Fore
SplineSet
50 689 m 1,0,-1
 56 844 l 1,1,-1
 350 838 l 1,2,-1
 342 1255 l 1,3,-1
 516 1244 l 1,4,-1
 504 838 l 1,5,-1
 808 844 l 1,6,-1
 802 682 l 1,7,-1
 504 692 l 1,8,-1
 494 430 l 1,9,-1
 497 193 l 1,10,-1
 812 199 l 1,11,-1
 806 42 l 1,12,-1
 497 50 l 1,13,-1
 508 -362 l 1,14,-1
 334 -352 l 1,15,-1
 344 50 l 1,16,-1
 56 42 l 1,17,-1
 65 206 l 1,18,-1
 344 192 l 1,19,-1
 353 498 l 1,20,-1
 350 696 l 1,21,-1
 50 689 l 1,0,-1
EndSplineSet
Colour: ffff
EndChar

StartChar: degree
Encoding: 176 176 91
Width: 494
VWidth: 0
Flags: HMW
LayerCount: 2
Fore
SplineSet
167 1129 m 0,0,1
 167 1080 167 1080 187.5 1044.5 c 128,-1,2
 208 1009 208 1009 248 1009 c 0,3,4
 282 1009 282 1009 300 1034.5 c 128,-1,5
 318 1060 318 1060 318 1105 c 0,6,7
 318 1153 318 1153 296.5 1188 c 128,-1,8
 275 1223 275 1223 238 1223 c 0,9,10
 204 1223 204 1223 185.5 1196 c 128,-1,11
 167 1169 167 1169 167 1129 c 0,0,1
56 1107 m 0,12,13
 56 1185 56 1185 115 1244.5 c 128,-1,14
 174 1304 174 1304 254 1304 c 0,15,16
 340 1304 340 1304 387.5 1257 c 128,-1,17
 435 1210 435 1210 435 1128 c 0,18,19
 435 1044 435 1044 373.5 986 c 128,-1,20
 312 928 312 928 230 928 c 0,21,22
 151 928 151 928 103.5 974.5 c 128,-1,23
 56 1021 56 1021 56 1107 c 0,12,13
EndSplineSet
Colour: ffff
EndChar

StartChar: dieresis
Encoding: 168 168 92
Width: 683
VWidth: 0
Flags: HMW
LayerCount: 2
Fore
SplineSet
402 1453 m 0,0,1
 402 1490 402 1490 429.5 1517.5 c 128,-1,2
 457 1545 457 1545 510 1545 c 0,3,4
 565 1545 565 1545 593.5 1518 c 128,-1,5
 622 1491 622 1491 622 1453 c 0,6,7
 622 1411 622 1411 593.5 1383.5 c 128,-1,8
 565 1356 565 1356 509.5 1356 c 128,-1,9
 454 1356 454 1356 428 1384 c 128,-1,10
 402 1412 402 1412 402 1453 c 0,0,1
92 1453 m 0,11,12
 92 1490 92 1490 120 1517.5 c 128,-1,13
 148 1545 148 1545 201 1545 c 0,14,15
 256 1545 256 1545 284.5 1518 c 128,-1,16
 313 1491 313 1491 313 1453 c 0,17,18
 313 1411 313 1411 284.5 1383.5 c 128,-1,19
 256 1356 256 1356 200.5 1356 c 128,-1,20
 145 1356 145 1356 118.5 1384 c 128,-1,21
 92 1412 92 1412 92 1453 c 0,11,12
EndSplineSet
Colour: ffff
EndChar

StartChar: divide
Encoding: 247 247 93
Width: 911
VWidth: 0
Flags: HMW
LayerCount: 2
Fore
SplineSet
283 786 m 0,0,1
 283 839 283 839 325 878.5 c 128,-1,2
 367 918 367 918 447 918 c 0,3,4
 531 918 531 918 574 879 c 128,-1,5
 617 840 617 840 617 786 c 0,6,7
 617 725 617 725 574 686 c 128,-1,8
 531 647 531 647 447 647 c 128,-1,9
 363 647 363 647 323 687 c 128,-1,10
 283 727 283 727 283 786 c 0,0,1
283 223 m 0,11,12
 283 276 283 276 325 316 c 128,-1,13
 367 356 367 356 447 356 c 0,14,15
 531 356 531 356 574 317 c 128,-1,16
 617 278 617 278 617 224 c 0,17,18
 617 163 617 163 574 123.5 c 128,-1,19
 531 84 531 84 447 84 c 128,-1,20
 363 84 363 84 323 124 c 128,-1,21
 283 164 283 164 283 223 c 0,11,12
45 432 m 1,22,-1
 57 578 l 1,23,-1
 868 578 l 1,24,-1
 858 432 l 1,25,-1
 45 432 l 1,22,-1
EndSplineSet
Colour: ffff
EndChar

StartChar: dollar
Encoding: 36 36 94
Width: 952
VWidth: 0
Flags: HMW
LayerCount: 2
Fore
SplineSet
47 129 m 1,0,-1
 70 428 l 1,1,-1
 210 407 l 1,2,-1
 260 200 l 1,3,4
 284 166 284 166 324.5 141.5 c 128,-1,5
 365 117 365 117 412 110 c 1,6,-1
 426 496 l 1,7,8
 424 497 424 497 420 499 c 0,9,10
 384 518 384 518 365.5 528 c 128,-1,11
 347 538 347 538 312 558 c 128,-1,12
 277 578 277 578 257.5 592 c 128,-1,13
 238 606 238 606 209 628 c 128,-1,14
 180 650 180 650 163.5 669 c 128,-1,15
 147 688 147 688 127 714.5 c 128,-1,16
 107 741 107 741 96.5 766.5 c 128,-1,17
 86 792 86 792 79 823.5 c 128,-1,18
 72 855 72 855 72 889 c 0,19,20
 72 968 72 968 99 1033.5 c 128,-1,21
 126 1099 126 1099 173 1144 c 128,-1,22
 220 1189 220 1189 281.5 1218 c 128,-1,23
 343 1247 343 1247 415 1260 c 1,24,-1
 404 1392 l 1,25,-1
 630 1417 l 1,26,-1
 604 1261 l 1,27,28
 717 1243 717 1243 820 1178 c 1,29,-1
 796 861 l 1,30,-1
 660 882 l 1,31,-1
 628 1079 l 1,32,33
 605 1109 605 1109 535 1132 c 1,34,-1
 522 779 l 1,35,36
 539 770 539 770 573.5 752 c 128,-1,37
 608 734 608 734 627.5 723.5 c 128,-1,38
 647 713 647 713 679.5 694.5 c 128,-1,39
 712 676 712 676 731.5 662.5 c 128,-1,40
 751 649 751 649 778 628 c 128,-1,41
 805 607 805 607 821 588.5 c 128,-1,42
 837 570 837 570 855.5 545 c 128,-1,43
 874 520 874 520 884 495 c 128,-1,44
 894 470 894 470 900.5 439.5 c 128,-1,45
 907 409 907 409 907 376 c 0,46,47
 907 297 907 297 876.5 230 c 128,-1,48
 846 163 846 163 794.5 116.5 c 128,-1,49
 743 70 743 70 681 38.5 c 128,-1,50
 619 7 619 7 550 -9 c 1,51,-1
 556 -161 l 1,52,-1
 327 -181 l 1,53,-1
 348 -18 l 1,54,55
 256 -4 256 -4 171.5 37.5 c 128,-1,56
 87 79 87 79 47 129 c 1,0,-1
449 821 m 1,57,-1
 462 1145 l 1,58,59
 400 1145 400 1145 360 1109 c 128,-1,60
 320 1073 320 1073 320 1001 c 0,61,62
 320 946 320 946 353.5 903.5 c 128,-1,63
 387 861 387 861 449 821 c 1,57,-1
503 454 m 1,64,-1
 490 111 l 1,65,66
 558 123 558 123 604 168 c 128,-1,67
 650 213 650 213 650 288 c 0,68,69
 650 336 650 336 612 374.5 c 128,-1,70
 574 413 574 413 503 454 c 1,64,-1
EndSplineSet
Colour: ffff
EndChar

StartChar: dotaccent
Encoding: 729 729 95
Width: 487
VWidth: 0
Flags: HMW
LayerCount: 2
Fore
SplineSet
76 1476 m 0,0,1
 76 1529 76 1529 119 1569.5 c 128,-1,2
 162 1610 162 1610 240 1610 c 0,3,4
 324 1610 324 1610 367 1570.5 c 128,-1,5
 410 1531 410 1531 410 1477 c 0,6,7
 410 1416 410 1416 367 1377 c 128,-1,8
 324 1338 324 1338 240 1338 c 128,-1,9
 156 1338 156 1338 116 1377.5 c 128,-1,10
 76 1417 76 1417 76 1476 c 0,0,1
EndSplineSet
Colour: ffff
EndChar

StartChar: e
Encoding: 101 101 96
Width: 872
VWidth: 0
Flags: HMW
LayerCount: 2
Fore
SplineSet
300 514 m 1,0,-1
 545 538 l 1,1,2
 551 562 551 562 551 610 c 0,3,4
 551 684 551 684 523.5 728 c 128,-1,5
 496 772 496 772 440 772 c 0,6,7
 382 772 382 772 342.5 702.5 c 128,-1,8
 303 633 303 633 300 514 c 1,0,-1
50 429 m 0,9,10
 50 538 50 538 89.5 633 c 128,-1,11
 129 728 129 728 193.5 790.5 c 128,-1,12
 258 853 258 853 338.5 888.5 c 128,-1,13
 419 924 419 924 502 924 c 0,14,15
 639 924 639 924 721 831 c 128,-1,16
 803 738 803 738 803 580 c 0,17,18
 803 558 803 558 796.5 504.5 c 128,-1,19
 790 451 790 451 784 426 c 1,20,-1
 304 416 l 1,21,22
 310 302 310 302 379.5 226 c 128,-1,23
 449 150 449 150 568 150 c 0,24,25
 704 150 704 150 806 206 c 1,26,-1
 826 113 l 1,27,28
 765 41 765 41 662.5 5.5 c 128,-1,29
 560 -30 560 -30 452 -30 c 0,30,31
 278 -30 278 -30 164 90 c 128,-1,32
 50 210 50 210 50 429 c 0,9,10
EndSplineSet
Colour: ffff
EndChar

StartChar: eacute
Encoding: 233 233 97
Width: 872
VWidth: 0
Flags: HMW
LayerCount: 2
Fore
SplineSet
373 1076 m 1,0,-1
 487 1390 l 1,1,-1
 709 1362 l 1,2,-1
 527 1049 l 1,3,-1
 373 1076 l 1,0,-1
300 514 m 1,4,-1
 545 538 l 1,5,6
 551 562 551 562 551 610 c 0,7,8
 551 684 551 684 523.5 728 c 128,-1,9
 496 772 496 772 440 772 c 0,10,11
 382 772 382 772 342.5 702.5 c 128,-1,12
 303 633 303 633 300 514 c 1,4,-1
50 429 m 0,13,14
 50 538 50 538 89.5 633 c 128,-1,15
 129 728 129 728 193.5 790.5 c 128,-1,16
 258 853 258 853 338.5 888.5 c 128,-1,17
 419 924 419 924 502 924 c 0,18,19
 639 924 639 924 721 831 c 128,-1,20
 803 738 803 738 803 580 c 0,21,22
 803 558 803 558 796.5 504.5 c 128,-1,23
 790 451 790 451 784 426 c 1,24,-1
 304 416 l 1,25,26
 310 302 310 302 379.5 226 c 128,-1,27
 449 150 449 150 568 150 c 0,28,29
 704 150 704 150 806 206 c 1,30,-1
 826 113 l 1,31,32
 765 41 765 41 662.5 5.5 c 128,-1,33
 560 -30 560 -30 452 -30 c 0,34,35
 278 -30 278 -30 164 90 c 128,-1,36
 50 210 50 210 50 429 c 0,13,14
EndSplineSet
Colour: ffff
EndChar

StartChar: ecircumflex
Encoding: 234 234 98
Width: 872
VWidth: 0
Flags: HMW
LayerCount: 2
Fore
SplineSet
770 1037 m 1,0,-1
 601 1002 l 1,1,-1
 497 1087 l 1,2,-1
 487 1087 l 1,3,-1
 400 996 l 1,4,-1
 239 1020 l 1,5,-1
 403 1236 l 1,6,-1
 590 1257 l 1,7,-1
 770 1037 l 1,0,-1
300 514 m 1,8,-1
 545 538 l 1,9,10
 551 562 551 562 551 610 c 0,11,12
 551 684 551 684 523.5 728 c 128,-1,13
 496 772 496 772 440 772 c 0,14,15
 382 772 382 772 342.5 702.5 c 128,-1,16
 303 633 303 633 300 514 c 1,8,-1
50 429 m 0,17,18
 50 538 50 538 89.5 633 c 128,-1,19
 129 728 129 728 193.5 790.5 c 128,-1,20
 258 853 258 853 338.5 888.5 c 128,-1,21
 419 924 419 924 502 924 c 0,22,23
 639 924 639 924 721 831 c 128,-1,24
 803 738 803 738 803 580 c 0,25,26
 803 558 803 558 796.5 504.5 c 128,-1,27
 790 451 790 451 784 426 c 1,28,-1
 304 416 l 1,29,30
 310 302 310 302 379.5 226 c 128,-1,31
 449 150 449 150 568 150 c 0,32,33
 704 150 704 150 806 206 c 1,34,-1
 826 113 l 1,35,36
 765 41 765 41 662.5 5.5 c 128,-1,37
 560 -30 560 -30 452 -30 c 0,38,39
 278 -30 278 -30 164 90 c 128,-1,40
 50 210 50 210 50 429 c 0,17,18
EndSplineSet
Colour: ffff
EndChar

StartChar: edieresis
Encoding: 235 235 99
Width: 872
VWidth: 0
Flags: HMW
LayerCount: 2
Fore
SplineSet
548 1145 m 0,0,1
 548 1182 548 1182 575.5 1209.5 c 128,-1,2
 603 1237 603 1237 656 1237 c 0,3,4
 711 1237 711 1237 739.5 1210 c 128,-1,5
 768 1183 768 1183 768 1145 c 0,6,7
 768 1103 768 1103 739.5 1075.5 c 128,-1,8
 711 1048 711 1048 655.5 1048 c 128,-1,9
 600 1048 600 1048 574 1076 c 128,-1,10
 548 1104 548 1104 548 1145 c 0,0,1
238 1145 m 0,11,12
 238 1182 238 1182 266 1209.5 c 128,-1,13
 294 1237 294 1237 347 1237 c 0,14,15
 402 1237 402 1237 430.5 1210 c 128,-1,16
 459 1183 459 1183 459 1145 c 0,17,18
 459 1103 459 1103 430.5 1075.5 c 128,-1,19
 402 1048 402 1048 346.5 1048 c 128,-1,20
 291 1048 291 1048 264.5 1076 c 128,-1,21
 238 1104 238 1104 238 1145 c 0,11,12
300 514 m 1,22,-1
 545 538 l 1,23,24
 551 562 551 562 551 610 c 0,25,26
 551 684 551 684 523.5 728 c 128,-1,27
 496 772 496 772 440 772 c 0,28,29
 382 772 382 772 342.5 702.5 c 128,-1,30
 303 633 303 633 300 514 c 1,22,-1
50 429 m 0,31,32
 50 538 50 538 89.5 633 c 128,-1,33
 129 728 129 728 193.5 790.5 c 128,-1,34
 258 853 258 853 338.5 888.5 c 128,-1,35
 419 924 419 924 502 924 c 0,36,37
 639 924 639 924 721 831 c 128,-1,38
 803 738 803 738 803 580 c 0,39,40
 803 558 803 558 796.5 504.5 c 128,-1,41
 790 451 790 451 784 426 c 1,42,-1
 304 416 l 1,43,44
 310 302 310 302 379.5 226 c 128,-1,45
 449 150 449 150 568 150 c 0,46,47
 704 150 704 150 806 206 c 1,48,-1
 826 113 l 1,49,50
 765 41 765 41 662.5 5.5 c 128,-1,51
 560 -30 560 -30 452 -30 c 0,52,53
 278 -30 278 -30 164 90 c 128,-1,54
 50 210 50 210 50 429 c 0,31,32
EndSplineSet
Colour: ffff
EndChar

StartChar: egrave
Encoding: 232 232 100
Width: 872
VWidth: 0
Flags: HMW
LayerCount: 2
Fore
SplineSet
291 1384 m 1,0,-1
 508 1422 l 1,1,-1
 648 1082 l 1,2,-1
 491 1049 l 1,3,-1
 291 1384 l 1,0,-1
300 514 m 1,4,-1
 545 538 l 1,5,6
 551 562 551 562 551 610 c 0,7,8
 551 684 551 684 523.5 728 c 128,-1,9
 496 772 496 772 440 772 c 0,10,11
 382 772 382 772 342.5 702.5 c 128,-1,12
 303 633 303 633 300 514 c 1,4,-1
50 429 m 0,13,14
 50 538 50 538 89.5 633 c 128,-1,15
 129 728 129 728 193.5 790.5 c 128,-1,16
 258 853 258 853 338.5 888.5 c 128,-1,17
 419 924 419 924 502 924 c 0,18,19
 639 924 639 924 721 831 c 128,-1,20
 803 738 803 738 803 580 c 0,21,22
 803 558 803 558 796.5 504.5 c 128,-1,23
 790 451 790 451 784 426 c 1,24,-1
 304 416 l 1,25,26
 310 302 310 302 379.5 226 c 128,-1,27
 449 150 449 150 568 150 c 0,28,29
 704 150 704 150 806 206 c 1,30,-1
 826 113 l 1,31,32
 765 41 765 41 662.5 5.5 c 128,-1,33
 560 -30 560 -30 452 -30 c 0,34,35
 278 -30 278 -30 164 90 c 128,-1,36
 50 210 50 210 50 429 c 0,13,14
EndSplineSet
Colour: ffff
EndChar

StartChar: eight
Encoding: 56 56 101
Width: 942
VWidth: 0
Flags: HMW
LayerCount: 2
Fore
SplineSet
353 970 m 0,0,1
 353 912 353 912 404.5 844 c 128,-1,2
 456 776 456 776 544 724 c 1,3,4
 584 748 584 748 599.5 783.5 c 128,-1,5
 615 819 615 819 615 882 c 0,6,7
 615 978 615 978 571 1036 c 128,-1,8
 527 1094 527 1094 464 1094 c 0,9,10
 411 1094 411 1094 382 1058.5 c 128,-1,11
 353 1023 353 1023 353 970 c 0,0,1
312 326 m 0,12,13
 312 220 312 220 367.5 154 c 128,-1,14
 423 88 423 88 510 88 c 0,15,16
 568 88 568 88 605 122 c 128,-1,17
 642 156 642 156 642 214 c 0,18,19
 642 234 642 234 635.5 253.5 c 128,-1,20
 629 273 629 273 612 294.5 c 128,-1,21
 595 316 595 316 581 331.5 c 128,-1,22
 567 347 567 347 536.5 372 c 128,-1,23
 506 397 506 397 488.5 410 c 128,-1,24
 471 423 471 423 431.5 452 c 128,-1,25
 392 481 392 481 375 494 c 1,26,27
 339 455 339 455 325.5 422.5 c 128,-1,28
 312 390 312 390 312 326 c 0,12,13
47 275 m 0,29,30
 47 456 47 456 270 566 c 1,31,-1
 270 578 l 1,32,33
 92 709 92 709 92 871 c 0,34,35
 92 1004 92 1004 203 1102 c 128,-1,36
 314 1200 314 1200 498 1200 c 0,37,38
 654 1200 654 1200 751.5 1119.5 c 128,-1,39
 849 1039 849 1039 849 926 c 0,40,41
 849 847 849 847 793 771.5 c 128,-1,42
 737 696 737 696 651 660 c 1,43,-1
 650 647 l 1,44,45
 781 556 781 556 837.5 483.5 c 128,-1,46
 894 411 894 411 894 316 c 0,47,48
 894 170 894 170 769 71.5 c 128,-1,49
 644 -27 644 -27 436 -27 c 0,50,51
 257 -27 257 -27 152 58.5 c 128,-1,52
 47 144 47 144 47 275 c 0,29,30
EndSplineSet
Substitution2: "'onum' Oldstyle Figures lookup 1-1" eight.osf
Colour: ffff
EndChar

StartChar: eight.osf
Encoding: 65536 -1 102
Width: 924
VWidth: 0
Flags: HMW
LayerCount: 2
Fore
SplineSet
350 982 m 0,0,1
 350 916 350 916 398.5 844.5 c 128,-1,2
 447 773 447 773 533 722 c 1,3,4
 596 780 596 780 596 890 c 0,5,6
 596 977 596 977 554 1035.5 c 128,-1,7
 512 1094 512 1094 452 1094 c 0,8,9
 409 1094 409 1094 379.5 1062.5 c 128,-1,10
 350 1031 350 1031 350 982 c 0,0,1
306 326 m 0,11,12
 306 230 306 230 355.5 160 c 128,-1,13
 405 90 405 90 487 90 c 0,14,15
 551 90 551 90 590.5 128.5 c 128,-1,16
 630 167 630 167 630 230 c 0,17,18
 630 245 630 245 626.5 260 c 128,-1,19
 623 275 623 275 613.5 290 c 128,-1,20
 604 305 604 305 595.5 318 c 128,-1,21
 587 331 587 331 569.5 347.5 c 128,-1,22
 552 364 552 364 539 375 c 128,-1,23
 526 386 526 386 501.5 405 c 128,-1,24
 477 424 477 424 461.5 435.5 c 128,-1,25
 446 447 446 447 415.5 469 c 128,-1,26
 385 491 385 491 368 504 c 1,27,28
 306 442 306 442 306 326 c 0,11,12
48 275 m 0,29,30
 48 365 48 365 103 441.5 c 128,-1,31
 158 518 158 518 268 574 c 1,32,-1
 268 586 l 1,33,34
 193 639 193 639 145.5 714 c 128,-1,35
 98 789 98 789 98 875 c 0,36,37
 98 1008 98 1008 203.5 1104 c 128,-1,38
 309 1200 309 1200 486 1200 c 0,39,40
 636 1200 636 1200 727.5 1123 c 128,-1,41
 819 1046 819 1046 819 934 c 0,42,43
 819 772 819 772 640 663 c 1,44,-1
 640 650 l 1,45,46
 762 571 762 571 819 491 c 128,-1,47
 876 411 876 411 876 320 c 0,48,49
 876 176 876 176 748.5 74.5 c 128,-1,50
 621 -27 621 -27 424 -27 c 0,51,52
 247 -27 247 -27 147.5 58 c 128,-1,53
 48 143 48 143 48 275 c 0,29,30
EndSplineSet
Colour: ffff
EndChar

StartChar: emdash
Encoding: 8212 8212 103
Width: 1387
VWidth: 0
Flags: HMW
LayerCount: 2
Fore
SplineSet
61 388 m 1,0,-1
 79 534 l 1,1,-1
 1324 541 l 1,2,-1
 1303 394 l 1,3,-1
 61 388 l 1,0,-1
EndSplineSet
Colour: ffff
EndChar

StartChar: endash
Encoding: 8211 8211 104
Width: 816
VWidth: 0
Flags: HMW
LayerCount: 2
Fore
SplineSet
61 388 m 1,0,-1
 79 534 l 1,1,-1
 753 541 l 1,2,-1
 730 394 l 1,3,-1
 61 388 l 1,0,-1
EndSplineSet
Colour: ffff
EndChar

StartChar: equal
Encoding: 61 61 105
Width: 861
VWidth: 0
Flags: HMW
LayerCount: 2
Fore
SplineSet
66 519 m 1,0,-1
 88 684 l 1,1,-1
 796 684 l 1,2,-1
 776 519 l 1,3,-1
 66 519 l 1,0,-1
62 280 m 1,4,-1
 84 445 l 1,5,-1
 794 445 l 1,6,-1
 774 280 l 1,7,-1
 62 280 l 1,4,-1
EndSplineSet
Colour: ffff
EndChar

StartChar: eth
Encoding: 240 240 106
Width: 960
VWidth: 0
Flags: HMW
LayerCount: 2
Fore
SplineSet
305 498 m 1,0,1
 309 327 309 327 368.5 219.5 c 128,-1,2
 428 112 428 112 514 112 c 0,3,4
 604 112 604 112 634.5 189 c 128,-1,5
 665 266 665 266 665 438 c 0,6,7
 665 588 665 588 600.5 701.5 c 128,-1,8
 536 815 536 815 460 817 c 1,9,10
 305 817 305 817 305 498 c 1,0,1
49 451 m 0,11,12
 49 547 49 547 84.5 639.5 c 128,-1,13
 120 732 120 732 177 798.5 c 128,-1,14
 234 865 234 865 307.5 906 c 128,-1,15
 381 947 381 947 454 947 c 0,16,17
 494 947 494 947 534 929.5 c 128,-1,18
 574 912 574 912 596 872 c 1,19,-1
 601 876 l 1,20,21
 583 934 583 934 517 1058 c 1,22,-1
 309 1018 l 1,23,-1
 318 1119 l 1,24,-1
 471 1151 l 1,25,26
 410 1249 410 1249 351 1302 c 1,27,-1
 538 1302 l 1,28,29
 600 1259 600 1259 659 1195 c 1,30,-1
 816 1228 l 1,31,-1
 805 1119 l 1,32,-1
 730 1104 l 1,33,34
 815 982 815 982 865 826.5 c 128,-1,35
 915 671 915 671 915 498 c 0,36,37
 915 266 915 266 798.5 119.5 c 128,-1,38
 682 -27 682 -27 483 -27 c 0,39,40
 370 -27 370 -27 284 13 c 128,-1,41
 198 53 198 53 148 121.5 c 128,-1,42
 98 190 98 190 73.5 273 c 128,-1,43
 49 356 49 356 49 451 c 0,11,12
EndSplineSet
Colour: ffff
EndChar

StartChar: exclam
Encoding: 33 33 107
Width: 429
VWidth: 0
Flags: HMW
LayerCount: 2
Back
SplineSet
46.5 593 m 0,0,1
 46.5 622.731 46.5 622.731 70.9554 674.866 c 0
 95.4107 727 95.4107 727 118 727 c 0,2,3
 179 727 179 727 361.5 707.5 c 0
 544 688 544 688 544 667 c 0,4,5
 544 635 544 635 520.5 579.5 c 0
 497 524 497 524 473.5 524 c 0,6,7
 456 524 456 524 428.75 507.25 c 0
 401.5 490.5 401.5 490.5 384 490.5 c 0,8,9
 372.333 490.5 372.333 490.5 374.156 428.469 c 0
 375.979 366.438 375.979 366.438 384 292 c 0
 392.021 217.562 392.021 217.562 393.844 155.531 c 0
 395.667 93.5 395.667 93.5 384 93.5 c 0,10,11
 372.119 93.5 372.119 93.5 388.863 88.3798 c 0
 398.444 85.45 398.444 85.45 429 77.75 c 0
 479 65.15 479 65.15 479.04 62.882 c 0
 479.056 62 479.056 62 474 62 c 0,12,13
 462 62 462 62 463 49.5 c 0
 464 37 464 37 471 22 c 0
 478 7 478 7 478.5 -5.5 c 0
 479 -18 479 -18 467.5 -18 c 2,14,15
 109 -18 l 2,16,17
 91.8097 -18 91.8097 -18 108.569 12.267 c 0
 126.989 45.5341 126.989 45.5341 121.763 50.6993 c 0
 119.436 53 119.436 53 114 53 c 0,18,19
 101.472 53 101.472 53 120.6 60.2115 c 0
 130.045 63.7728 130.045 63.7728 158 72.75 c 0
 206.92 88.4602 206.92 88.4602 207.095 91.345 c 0
 207.165 92.5 207.165 92.5 202 92.5 c 0,20,21
 190.333 92.5 190.333 92.5 192.156 154.922 c 0
 193.979 217.344 193.979 217.344 202 292.25 c 0
 210.021 367.156 210.021 367.156 211.844 429.578 c 0
 213.667 492 213.667 492 202 492 c 0,22,23
 172.894 492 172.894 492 109.697 530.239 c 0
 46.5 568.478 46.5 568.478 46.5 593 c 0,0,1
EndSplineSet
Fore
SplineSet
69 1220 m 0,0,1
 69 1258 69 1258 115 1278.5 c 128,-1,2
 161 1299 161 1299 237 1299 c 0,3,4
 291 1299 291 1299 319 1285 c 128,-1,5
 347 1271 347 1271 347 1234 c 0,6,7
 347 986 347 986 279 360 c 1,8,-1
 153 384 l 1,9,10
 148 431 148 431 133.5 555 c 128,-1,11
 119 679 119 679 110 758 c 128,-1,12
 101 837 101 837 90.5 938.5 c 128,-1,13
 80 1040 80 1040 74.5 1110.5 c 128,-1,14
 69 1181 69 1181 69 1220 c 0,0,1
47 110 m 0,15,16
 47 165 47 165 90 205 c 128,-1,17
 133 245 133 245 213 245 c 0,18,19
 297 245 297 245 340.5 205 c 128,-1,20
 384 165 384 165 384 110 c 0,21,22
 384 48 384 48 340.5 8.5 c 128,-1,23
 297 -31 297 -31 212 -31 c 128,-1,24
 127 -31 127 -31 87 9.5 c 128,-1,25
 47 50 47 50 47 110 c 0,15,16
EndSplineSet
Colour: ffff
EndChar

StartChar: exclamdown
Encoding: 161 161 108
Width: 434
VWidth: 0
Flags: HMW
LayerCount: 2
Fore
SplineSet
357 -372 m 0,0,1
 357 -410 357 -410 311 -430.5 c 128,-1,2
 265 -451 265 -451 189 -451 c 0,3,4
 135 -451 135 -451 107 -437 c 128,-1,5
 79 -423 79 -423 79 -386 c 0,6,7
 79 -138 79 -138 147 488 c 1,8,-1
 273 464 l 1,9,10
 278 417 278 417 292.5 293 c 128,-1,11
 307 169 307 169 316 90 c 128,-1,12
 325 11 325 11 335.5 -90.5 c 128,-1,13
 346 -192 346 -192 351.5 -262.5 c 128,-1,14
 357 -333 357 -333 357 -372 c 0,0,1
379 738 m 0,15,16
 379 683 379 683 336 643 c 128,-1,17
 293 603 293 603 213 603 c 0,18,19
 129 603 129 603 85.5 643 c 128,-1,20
 42 683 42 683 42 738 c 0,21,22
 42 800 42 800 85.5 839.5 c 128,-1,23
 129 879 129 879 214 879 c 128,-1,24
 299 879 299 879 339 838.5 c 128,-1,25
 379 798 379 798 379 738 c 0,15,16
EndSplineSet
Colour: ffff
EndChar

StartChar: f
Encoding: 102 102 109
Width: 719
VWidth: 0
Flags: HMW
LayerCount: 2
Fore
SplineSet
45 0 m 1,0,-1
 57 116 l 1,1,-1
 210 173 l 1,2,-1
 210 742 l 1,3,-1
 61 742 l 1,4,-1
 71 853 l 1,5,-1
 209 876 l 1,6,7
 226 1071 226 1071 346 1183 c 128,-1,8
 466 1295 466 1295 621 1295 c 0,9,10
 855 1295 855 1295 855 1162 c 0,11,12
 855 1113 855 1113 810 1071 c 128,-1,13
 765 1029 765 1029 717 1021 c 1,14,15
 690 1064 690 1064 672 1089.5 c 128,-1,16
 654 1115 654 1115 622 1140.5 c 128,-1,17
 590 1166 590 1166 559 1166 c 0,18,19
 504 1166 504 1166 474 1123.5 c 128,-1,20
 444 1081 444 1081 443 968 c 1,21,-1
 441 870 l 1,22,-1
 701 870 l 1,23,-1
 689 742 l 1,24,-1
 441 742 l 1,25,-1
 441 180 l 1,26,-1
 687 128 l 1,27,-1
 679 0 l 1,28,-1
 45 0 l 1,0,-1
EndSplineSet
Colour: ffff
EndChar

StartChar: five
Encoding: 53 53 110
Width: 865
VWidth: 0
Flags: HMW
LayerCount: 2
Fore
SplineSet
46 40 m 1,0,-1
 98 408 l 1,1,-1
 216 380 l 1,2,-1
 247 136 l 1,3,4
 289 84 289 84 376 84 c 0,5,6
 455 84 455 84 509.5 134 c 128,-1,7
 564 184 564 184 564 269 c 0,8,9
 564 395 564 395 453 474 c 128,-1,10
 342 553 342 553 131 560 c 1,11,-1
 252 1168 l 1,12,-1
 761 1198 l 1,13,-1
 726 952 l 1,14,-1
 334 938 l 1,15,-1
 310 766 l 1,16,17
 446 762 446 762 546 728 c 128,-1,18
 646 694 646 694 703.5 638 c 128,-1,19
 761 582 761 582 788 515 c 128,-1,20
 815 448 815 448 815 368 c 0,21,22
 815 254 815 254 740.5 159 c 128,-1,23
 666 64 666 64 549.5 13 c 128,-1,24
 433 -38 433 -38 305 -38 c 0,25,26
 137 -38 137 -38 46 40 c 1,0,-1
EndSplineSet
Substitution2: "'onum' Oldstyle Figures lookup 1-1" five.osf
Colour: ffff
EndChar

StartChar: five.osf
Encoding: 65537 -1 111
Width: 886
VWidth: 0
Flags: HMW
LayerCount: 2
Fore
SplineSet
39 -118 m 0,0,1
 39 -50 39 -50 86 -7 c 128,-1,2
 133 36 133 36 211 50 c 1,3,4
 280 -188 280 -188 409 -188 c 0,5,6
 499 -188 499 -188 552 -119.5 c 128,-1,7
 605 -51 605 -51 605 62 c 0,8,9
 605 199 605 199 499 289.5 c 128,-1,10
 393 380 393 380 198 402 c 1,11,-1
 328 957 l 1,12,-1
 806 996 l 1,13,-1
 773 786 l 1,14,-1
 390 772 l 1,15,-1
 368 612 l 1,16,17
 595 578 595 578 716.5 455 c 128,-1,18
 838 332 838 332 838 157 c 0,19,20
 838 72 838 72 803.5 -9.5 c 128,-1,21
 769 -91 769 -91 707 -156.5 c 128,-1,22
 645 -222 645 -222 550 -262 c 128,-1,23
 455 -302 455 -302 343 -302 c 0,24,25
 206 -302 206 -302 122.5 -246 c 128,-1,26
 39 -190 39 -190 39 -118 c 0,0,1
EndSplineSet
Colour: ffff
EndChar

StartChar: four
Encoding: 52 52 112
Width: 1127
VWidth: 0
Flags: HMW
LayerCount: 2
Fore
SplineSet
297 496 m 1,0,-1
 569 496 l 1,1,-1
 569 864 l 1,2,-1
 297 496 l 1,0,-1
47 448 m 1,3,-1
 741 1218 l 1,4,-1
 836 1193 l 1,5,6
 825 973 825 973 825 682 c 2,7,-1
 825 496 l 1,8,-1
 1080 496 l 1,9,-1
 1064 331 l 1,10,-1
 825 331 l 1,11,-1
 825 147 l 1,12,-1
 1041 102 l 1,13,-1
 1031 -1 l 1,14,-1
 324 -1 l 1,15,-1
 329 90 l 1,16,-1
 571 150 l 1,17,-1
 571 334 l 1,18,-1
 71 334 l 1,19,-1
 47 448 l 1,3,-1
EndSplineSet
Substitution2: "'onum' Oldstyle Figures lookup 1-1" four.osf
Colour: ffff
EndChar

StartChar: four.osf
Encoding: 65538 -1 113
Width: 1104
VWidth: 0
Flags: HMW
LayerCount: 2
Fore
SplineSet
284 223 m 1,0,-1
 553 223 l 1,1,-1
 553 602 l 1,2,-1
 284 223 l 1,0,-1
44 172 m 1,3,-1
 706 1004 l 1,4,-1
 816 978 l 1,5,6
 807 798 807 798 807 389 c 2,7,-1
 807 223 l 1,8,-1
 1060 223 l 1,9,-1
 1042 47 l 1,10,-1
 810 47 l 1,11,-1
 810 -264 l 1,12,-1
 552 -310 l 1,13,-1
 552 51 l 1,14,-1
 74 51 l 1,15,-1
 44 172 l 1,3,-1
EndSplineSet
Colour: ffff
EndChar

StartChar: g
Encoding: 103 103 114
Width: 1008
VWidth: 0
Flags: HMW
LayerCount: 2
Fore
SplineSet
335 626 m 0,0,1
 335 571 335 571 351.5 528 c 128,-1,2
 368 485 368 485 391.5 464 c 128,-1,3
 415 443 415 443 434 432.5 c 128,-1,4
 453 422 453 422 463 422 c 0,5,6
 532 422 532 422 560.5 463.5 c 128,-1,7
 589 505 589 505 589 609 c 0,8,9
 589 635 589 635 581.5 668 c 128,-1,10
 574 701 574 701 558.5 736 c 128,-1,11
 543 771 543 771 514.5 794.5 c 128,-1,12
 486 818 486 818 449 818 c 0,13,14
 395 818 395 818 365 770 c 128,-1,15
 335 722 335 722 335 626 c 0,0,1
262 -94 m 0,16,17
 262 -243 262 -243 477 -243 c 0,18,19
 685 -243 685 -243 685 -102 c 0,20,21
 685 -43 685 -43 639.5 -20 c 128,-1,22
 594 3 594 3 482 3 c 2,23,-1
 297 3 l 1,24,25
 296 0 296 0 286.5 -14 c 128,-1,26
 277 -28 277 -28 269.5 -48 c 128,-1,27
 262 -68 262 -68 262 -94 c 0,16,17
35 -156 m 0,28,29
 35 -105 35 -105 83.5 -57 c 128,-1,30
 132 -9 132 -9 194 12 c 1,31,-1
 194 24 l 1,32,33
 99 70 99 70 99 169 c 0,34,35
 99 219 99 219 157 271 c 128,-1,36
 215 323 215 323 280 342 c 1,37,-1
 279 354 l 1,38,39
 227 372 227 372 171 446 c 128,-1,40
 115 520 115 520 115 606 c 0,41,42
 115 730 115 730 219.5 825 c 128,-1,43
 324 920 324 920 472 920 c 128,-1,44
 620 920 620 920 717 857 c 1,45,-1
 942 881 l 1,46,-1
 967 852 l 1,47,-1
 925 700 l 1,48,-1
 900 698 l 1,49,-1
 793 732 l 1,50,-1
 791 722 l 1,51,52
 809 672 809 672 809 627 c 0,53,54
 809 533 809 533 756.5 460.5 c 128,-1,55
 704 388 704 388 625 352.5 c 128,-1,56
 546 317 546 317 457 317 c 0,57,58
 427 317 427 317 379 326 c 1,59,60
 341 286 341 286 341 257 c 0,61,62
 341 196 341 196 481 196 c 2,63,-1
 617 196 l 2,64,65
 768 196 768 196 846.5 146 c 128,-1,66
 925 96 925 96 925 -27 c 0,67,68
 925 -165 925 -165 775 -275.5 c 128,-1,69
 625 -386 625 -386 409 -386 c 0,70,71
 343 -386 343 -386 282 -375.5 c 128,-1,72
 221 -365 221 -365 163 -340.5 c 128,-1,73
 105 -316 105 -316 70 -268.5 c 128,-1,74
 35 -221 35 -221 35 -156 c 0,28,29
EndSplineSet
Colour: ffff
EndChar

StartChar: germandbls
Encoding: 223 223 115
Width: 1265
VWidth: 0
Flags: HMW
LayerCount: 2
Fore
SplineSet
46 0 m 1,0,-1
 58 116 l 1,1,-1
 211 173 l 1,2,-1
 211 742 l 1,3,-1
 64 742 l 1,4,-1
 73 849 l 1,5,-1
 211 872 l 1,6,7
 223 1053 223 1053 360 1174.5 c 128,-1,8
 497 1296 497 1296 691 1296 c 0,9,10
 855 1296 855 1296 945.5 1234 c 128,-1,11
 1036 1172 1036 1172 1036 1054 c 0,12,13
 1036 999 1036 999 1008 954.5 c 128,-1,14
 980 910 980 910 940 881.5 c 128,-1,15
 900 853 900 853 860 828 c 128,-1,16
 820 803 820 803 792 774 c 128,-1,17
 764 745 764 745 764 714 c 0,18,19
 764 684 764 684 789.5 658 c 128,-1,20
 815 632 815 632 855.5 610 c 128,-1,21
 896 588 896 588 945 565 c 128,-1,22
 994 542 994 542 1043 513 c 128,-1,23
 1092 484 1092 484 1132.5 449 c 128,-1,24
 1173 414 1173 414 1198.5 362 c 128,-1,25
 1224 310 1224 310 1224 248 c 0,26,27
 1224 121 1224 121 1117 43.5 c 128,-1,28
 1010 -34 1010 -34 855 -34 c 0,29,30
 724 -34 724 -34 629.5 20 c 128,-1,31
 535 74 535 74 535 154 c 0,32,33
 535 221 535 221 578.5 259 c 128,-1,34
 622 297 622 297 697 302 c 1,35,36
 722 206 722 206 773.5 150.5 c 128,-1,37
 825 95 825 95 884 95 c 0,38,39
 945 95 945 95 974.5 112 c 128,-1,40
 1004 129 1004 129 1004 176 c 0,41,42
 1004 202 1004 202 980 226.5 c 128,-1,43
 956 251 956 251 917 273 c 128,-1,44
 878 295 878 295 831 319 c 128,-1,45
 784 343 784 343 737.5 373 c 128,-1,46
 691 403 691 403 652 438 c 128,-1,47
 613 473 613 473 589 522.5 c 128,-1,48
 565 572 565 572 565 630 c 0,49,50
 565 692 565 692 588 743.5 c 128,-1,51
 611 795 611 795 644 829.5 c 128,-1,52
 677 864 677 864 710 893 c 128,-1,53
 743 922 743 922 766 952.5 c 128,-1,54
 789 983 789 983 789 1014 c 0,55,56
 789 1081 789 1081 746 1123.5 c 128,-1,57
 703 1166 703 1166 622 1166 c 0,58,59
 589 1166 589 1166 559.5 1154.5 c 128,-1,60
 530 1143 530 1143 503 1118 c 128,-1,61
 476 1093 476 1093 459.5 1045 c 128,-1,62
 443 997 443 997 443 932 c 2,63,-1
 443 0 l 1,64,-1
 46 0 l 1,0,-1
EndSplineSet
Colour: ffff
EndChar

StartChar: grave
Encoding: 96 96 116
Width: 508
VWidth: 0
Flags: HMW
LayerCount: 2
Fore
SplineSet
75 1658 m 1,0,-1
 292 1696 l 1,1,-1
 432 1356 l 1,2,-1
 275 1323 l 1,3,-1
 75 1658 l 1,0,-1
EndSplineSet
Colour: ffff
EndChar

StartChar: greater
Encoding: 62 62 117
Width: 825
VWidth: 0
Flags: MW
LayerCount: 2
Fore
SplineSet
40 12 m 1,0,-1
 444 454 l 1,1,-1
 56 870 l 1,2,-1
 157 974 l 1,3,-1
 777 494 l 1,4,-1
 777 419 l 1,5,-1
 144 -84 l 1,6,-1
 40 12 l 1,0,-1
EndSplineSet
Colour: ffff
EndChar

StartChar: guillemotleft
Encoding: 171 171 118
Width: 757
VWidth: 0
Flags: HMW
LayerCount: 2
Fore
SplineSet
87 469 m 1,0,-1
 355 819 l 1,1,-1
 414 736 l 1,2,-1
 274 460 l 1,3,-1
 422 166 l 1,4,-1
 348 76 l 1,5,-1
 86 448 l 1,6,-1
 87 469 l 1,0,-1
407 469 m 1,7,-1
 675 819 l 1,8,-1
 734 736 l 1,9,-1
 594 460 l 1,10,-1
 742 166 l 1,11,-1
 668 76 l 1,12,-1
 406 448 l 1,13,-1
 407 469 l 1,7,-1
EndSplineSet
Colour: ffff
EndChar

StartChar: guillemotright
Encoding: 187 187 119
Width: 757
VWidth: 0
Flags: HMW
LayerCount: 2
Fore
SplineSet
633 469 m 1,0,-1
 634 448 l 1,1,-1
 372 76 l 1,2,-1
 298 166 l 1,3,-1
 446 460 l 1,4,-1
 306 736 l 1,5,-1
 365 819 l 1,6,-1
 633 469 l 1,0,-1
313 469 m 1,7,-1
 314 448 l 1,8,-1
 52 76 l 1,9,-1
 -22 166 l 1,10,-1
 126 460 l 1,11,-1
 -14 736 l 1,12,-1
 45 819 l 1,13,-1
 313 469 l 1,7,-1
EndSplineSet
Colour: ffff
EndChar

StartChar: guilsinglleft
Encoding: 8249 8249 120
Width: 437
VWidth: 0
Flags: HMW
LayerCount: 2
Fore
SplineSet
50 469 m 1,0,-1
 318 819 l 1,1,-1
 377 736 l 1,2,-1
 237 460 l 1,3,-1
 385 166 l 1,4,-1
 311 76 l 1,5,-1
 49 448 l 1,6,-1
 50 469 l 1,0,-1
EndSplineSet
Colour: ffff
EndChar

StartChar: guilsinglright
Encoding: 8250 8250 121
Width: 437
VWidth: 0
Flags: HMW
LayerCount: 2
Fore
SplineSet
350 469 m 1,0,-1
 351 448 l 1,1,-1
 89 76 l 1,2,-1
 15 166 l 1,3,-1
 163 460 l 1,4,-1
 23 736 l 1,5,-1
 82 819 l 1,6,-1
 350 469 l 1,0,-1
EndSplineSet
Colour: ffff
EndChar

StartChar: h
Encoding: 104 104 122
Width: 1182
VWidth: 0
Flags: HMW
LayerCount: 2
Fore
SplineSet
52 -1 m 1,0,-1
 66 117 l 1,1,-1
 214 172 l 1,2,-1
 214 1050 l 1,3,-1
 48 1127 l 1,4,-1
 66 1247 l 1,5,-1
 406 1272 l 1,6,-1
 448 1232 l 1,7,-1
 448 874 l 1,8,-1
 430 754 l 1,9,-1
 442 752 l 1,10,11
 594 914 594 914 740 914 c 0,12,13
 856 914 856 914 920 846.5 c 128,-1,14
 984 779 984 779 984 619 c 2,15,-1
 984 170 l 1,16,-1
 1131 121 l 1,17,-1
 1114 -1 l 1,18,-1
 671 -1 l 1,19,-1
 677 114 l 1,20,-1
 744 170 l 1,21,-1
 746 504 l 2,22,23
 746 598 746 598 708.5 640 c 128,-1,24
 671 682 671 682 612 682 c 0,25,26
 529 682 529 682 456 612 c 1,27,-1
 456 172 l 1,28,-1
 586 122 l 1,29,-1
 566 -1 l 1,30,-1
 52 -1 l 1,0,-1
EndSplineSet
Colour: ffff
EndChar

StartChar: hyphen
Encoding: 45 45 123
Width: 632
VWidth: 0
Flags: HMW
LayerCount: 2
Fore
SplineSet
61 378 m 1,0,-1
 75 516 l 1,1,-1
 569 537 l 1,2,-1
 555 394 l 1,3,-1
 61 378 l 1,0,-1
EndSplineSet
Colour: ffff
EndChar

StartChar: i
Encoding: 105 105 124
Width: 664
VWidth: 0
Flags: HMW
LayerCount: 2
Fore
SplineSet
143 1166 m 0,0,1
 143 1223 143 1223 191 1260.5 c 128,-1,2
 239 1298 239 1298 318 1298 c 0,3,4
 400 1298 400 1298 449 1259.5 c 128,-1,5
 498 1221 498 1221 498 1164 c 0,6,7
 498 1105 498 1105 450.5 1064.5 c 128,-1,8
 403 1024 403 1024 318 1024 c 0,9,10
 232 1024 232 1024 187.5 1064.5 c 128,-1,11
 143 1105 143 1105 143 1166 c 0,0,1
48 0 m 1,12,-1
 58 128 l 1,13,-1
 211 173 l 1,14,-1
 211 675 l 1,15,-1
 62 757 l 1,16,-1
 84 882 l 1,17,-1
 412 906 l 1,18,-1
 452 866 l 1,19,-1
 452 173 l 1,20,-1
 613 127 l 1,21,-1
 602 0 l 1,22,-1
 48 0 l 1,12,-1
EndSplineSet
Colour: ffff
EndChar

StartChar: iacute
Encoding: 237 237 125
Width: 665
VWidth: 0
Flags: HMW
LayerCount: 2
Fore
SplineSet
49 0 m 1,0,-1
 59 128 l 1,1,-1
 212 173 l 1,2,-1
 212 651 l 1,3,-1
 63 731 l 1,4,-1
 85 858 l 1,5,-1
 413 882 l 1,6,-1
 453 840 l 1,7,-1
 453 173 l 1,8,-1
 614 127 l 1,9,-1
 603 0 l 1,10,-1
 49 0 l 1,0,-1
227 1076 m 1,11,-1
 341 1390 l 1,12,-1
 563 1362 l 1,13,-1
 381 1049 l 1,14,-1
 227 1076 l 1,11,-1
EndSplineSet
Colour: ffff
EndChar

StartChar: icircumflex
Encoding: 238 238 126
Width: 666
VWidth: 0
Flags: HMW
LayerCount: 2
Fore
SplineSet
49 0 m 1,0,-1
 59 128 l 1,1,-1
 212 173 l 1,2,-1
 212 651 l 1,3,-1
 63 731 l 1,4,-1
 85 858 l 1,5,-1
 413 882 l 1,6,-1
 453 840 l 1,7,-1
 453 173 l 1,8,-1
 614 127 l 1,9,-1
 603 0 l 1,10,-1
 49 0 l 1,0,-1
624 1037 m 1,11,-1
 455 1002 l 1,12,-1
 351 1087 l 1,13,-1
 341 1087 l 1,14,-1
 254 996 l 1,15,-1
 93 1020 l 1,16,-1
 257 1236 l 1,17,-1
 444 1257 l 1,18,-1
 624 1037 l 1,11,-1
EndSplineSet
Colour: ffff
EndChar

StartChar: idieresis
Encoding: 239 239 127
Width: 676
VWidth: 0
Flags: HMW
LayerCount: 2
Fore
SplineSet
49 0 m 1,0,-1
 59 128 l 1,1,-1
 212 173 l 1,2,-1
 212 651 l 1,3,-1
 63 731 l 1,4,-1
 85 858 l 1,5,-1
 413 882 l 1,6,-1
 453 840 l 1,7,-1
 453 173 l 1,8,-1
 614 127 l 1,9,-1
 603 0 l 1,10,-1
 49 0 l 1,0,-1
426 1146 m 0,11,12
 426 1183 426 1183 453.5 1210.5 c 128,-1,13
 481 1238 481 1238 534 1238 c 0,14,15
 589 1238 589 1238 617.5 1211 c 128,-1,16
 646 1184 646 1184 646 1146 c 0,17,18
 646 1104 646 1104 617.5 1076.5 c 128,-1,19
 589 1049 589 1049 534 1049 c 128,-1,20
 479 1049 479 1049 452.5 1077 c 128,-1,21
 426 1105 426 1105 426 1146 c 0,11,12
117 1146 m 0,22,23
 117 1183 117 1183 144.5 1210.5 c 128,-1,24
 172 1238 172 1238 225 1238 c 0,25,26
 280 1238 280 1238 308.5 1211 c 128,-1,27
 337 1184 337 1184 337 1146 c 0,28,29
 337 1104 337 1104 308.5 1076.5 c 128,-1,30
 280 1049 280 1049 225 1049 c 128,-1,31
 170 1049 170 1049 143.5 1077 c 128,-1,32
 117 1105 117 1105 117 1146 c 0,22,23
EndSplineSet
Colour: ffff
EndChar

StartChar: igrave
Encoding: 236 236 128
Width: 665
VWidth: 0
Flags: HMW
LayerCount: 2
Fore
SplineSet
49 0 m 1,0,-1
 59 128 l 1,1,-1
 212 173 l 1,2,-1
 212 651 l 1,3,-1
 63 731 l 1,4,-1
 85 858 l 1,5,-1
 413 882 l 1,6,-1
 453 840 l 1,7,-1
 453 173 l 1,8,-1
 614 127 l 1,9,-1
 603 0 l 1,10,-1
 49 0 l 1,0,-1
146 1384 m 1,11,-1
 363 1422 l 1,12,-1
 503 1082 l 1,13,-1
 346 1049 l 1,14,-1
 146 1384 l 1,11,-1
EndSplineSet
Colour: ffff
EndChar

StartChar: j
Encoding: 106 106 129
Width: 608
VWidth: 0
Flags: HMW
LayerCount: 2
Fore
SplineSet
200 1161 m 0,0,1
 200 1221 200 1221 249.5 1261.5 c 128,-1,2
 299 1302 299 1302 380 1302 c 0,3,4
 463 1302 463 1302 511.5 1261 c 128,-1,5
 560 1220 560 1220 560 1160 c 0,6,7
 560 1098 560 1098 512 1055 c 128,-1,8
 464 1012 464 1012 378 1012 c 0,9,10
 291 1012 291 1012 245.5 1055 c 128,-1,11
 200 1098 200 1098 200 1161 c 0,0,1
35 -254 m 1,12,13
 65 -232 65 -232 83 -218 c 128,-1,14
 101 -204 101 -204 129 -178 c 128,-1,15
 157 -152 157 -152 174.5 -129 c 128,-1,16
 192 -106 192 -106 213 -70.5 c 128,-1,17
 234 -35 234 -35 246 2 c 128,-1,18
 258 39 258 39 266 89 c 128,-1,19
 274 139 274 139 274 195 c 2,20,-1
 274 668 l 1,21,-1
 126 752 l 1,22,-1
 152 883 l 1,23,-1
 474 905 l 1,24,-1
 516 866 l 1,25,-1
 516 150 l 2,26,27
 516 60 516 60 493 -16 c 128,-1,28
 470 -92 470 -92 436 -144 c 128,-1,29
 402 -196 402 -196 350 -240.5 c 128,-1,30
 298 -285 298 -285 252 -312 c 128,-1,31
 206 -339 206 -339 148 -365 c 1,32,-1
 100 -382 l 1,33,-1
 35 -254 l 1,12,13
EndSplineSet
Colour: ffff
EndChar

StartChar: k
Encoding: 107 107 130
Width: 1158
VWidth: 0
Flags: HMW
LayerCount: 2
Fore
SplineSet
479 417 m 1,0,-1
 485 450 l 1,1,-1
 707 768 l 1,2,-1
 573 817 l 1,3,-1
 589 934 l 1,4,-1
 1069 934 l 1,5,-1
 1048 822 l 1,6,-1
 900 769 l 1,7,-1
 699 495 l 1,8,-1
 745 434 l 1,9,10
 861 273 861 273 924 206.5 c 128,-1,11
 987 140 987 140 1069 109 c 1,12,-1
 1109 92 l 1,13,-1
 1090 0 l 1,14,15
 1088 0 1088 0 1070.5 -3.5 c 128,-1,16
 1053 -7 1053 -7 1035 -10 c 128,-1,17
 1017 -13 1017 -13 988.5 -15.5 c 128,-1,18
 960 -18 960 -18 934 -18 c 0,19,20
 833 -18 833 -18 755.5 50.5 c 128,-1,21
 678 119 678 119 568 283 c 2,22,-1
 479 417 l 1,0,-1
50 0 m 1,23,-1
 63 128 l 1,24,-1
 215 173 l 1,25,-1
 215 1042 l 1,26,-1
 53 1119 l 1,27,-1
 76 1243 l 1,28,-1
 414 1268 l 1,29,-1
 457 1226 l 1,30,-1
 457 173 l 1,31,-1
 591 127 l 1,32,-1
 573 0 l 1,33,-1
 50 0 l 1,23,-1
EndSplineSet
Colour: ffff
EndChar

StartChar: l
Encoding: 108 108 131
Width: 663
VWidth: 0
Flags: HMW
LayerCount: 2
Fore
SplineSet
50 0 m 1,0,-1
 63 128 l 1,1,-1
 215 173 l 1,2,-1
 215 1046 l 1,3,-1
 53 1124 l 1,4,-1
 76 1248 l 1,5,-1
 415 1272 l 1,6,-1
 456 1232 l 1,7,-1
 456 173 l 1,8,-1
 614 127 l 1,9,-1
 601 0 l 1,10,-1
 50 0 l 1,0,-1
EndSplineSet
Colour: ffff
EndChar

StartChar: less
Encoding: 60 60 132
Width: 826
VWidth: 0
Flags: MW
LayerCount: 2
Fore
SplineSet
775 12 m 1,0,-1
 671 -84 l 1,1,-1
 38 419 l 1,2,-1
 38 494 l 1,3,-1
 658 974 l 1,4,-1
 759 870 l 1,5,-1
 371 454 l 1,6,-1
 775 12 l 1,0,-1
EndSplineSet
Colour: ffff
EndChar

StartChar: logicalnot
Encoding: 172 172 133
Width: 908
VWidth: 0
Flags: HMW
LayerCount: 2
Fore
SplineSet
56 509 m 1,0,-1
 68 662 l 1,1,-1
 841 662 l 1,2,-1
 843 306 l 1,3,-1
 680 286 l 1,4,-1
 680 509 l 1,5,-1
 56 509 l 1,0,-1
EndSplineSet
Colour: ffff
EndChar

StartChar: m
Encoding: 109 109 134
Width: 1713
VWidth: 0
Flags: HMW
LayerCount: 2
Fore
SplineSet
51 0 m 1,0,-1
 64 116 l 1,1,-1
 210 172 l 1,2,-1
 210 680 l 1,3,-1
 59 746 l 1,4,-1
 77 867 l 1,5,-1
 431 902 l 1,6,-1
 459 872 l 1,7,-1
 439 758 l 1,8,-1
 451 756 l 1,9,10
 589 912 589 912 745 912 c 0,11,12
 923 912 923 912 967 746 c 1,13,-1
 981 744 l 1,14,15
 1124 908 1124 908 1277 908 c 0,16,17
 1518 908 1518 908 1518 625 c 2,18,-1
 1518 172 l 1,19,-1
 1661 122 l 1,20,-1
 1643 0 l 1,21,-1
 1213 0 l 1,22,-1
 1216 116 l 1,23,-1
 1279 172 l 1,24,-1
 1279 507 l 2,25,26
 1279 591 1279 591 1245 636 c 128,-1,27
 1211 681 1211 681 1147 681 c 0,28,29
 1063 681 1063 681 987 608 c 1,30,-1
 987 172 l 1,31,-1
 1126 122 l 1,32,-1
 1109 0 l 1,33,-1
 679 0 l 1,34,-1
 684 116 l 1,35,-1
 749 172 l 1,36,-1
 749 507 l 2,37,38
 749 592 749 592 713.5 636.5 c 128,-1,39
 678 681 678 681 617 681 c 0,40,41
 522 681 522 681 453 612 c 1,42,-1
 453 172 l 1,43,-1
 587 122 l 1,44,-1
 567 0 l 1,45,-1
 51 0 l 1,0,-1
EndSplineSet
Colour: ffff
EndChar

StartChar: macron
Encoding: 175 175 135
Width: 619
VWidth: 0
Flags: HMW
LayerCount: 2
Fore
SplineSet
77 1379 m 1,0,-1
 94 1526 l 1,1,-1
 541 1526 l 1,2,-1
 524 1379 l 1,3,-1
 77 1379 l 1,0,-1
EndSplineSet
Colour: ffff
EndChar

StartChar: multiply
Encoding: 215 215 136
Width: 612
VWidth: 0
Flags: HMW
LayerCount: 2
Fore
SplineSet
52 319 m 1,0,-1
 207 462 l 1,1,-1
 48 618 l 1,2,-1
 164 708 l 1,3,-1
 312 554 l 1,4,-1
 479 720 l 1,5,-1
 568 602 l 1,6,-1
 408 457 l 1,7,-1
 566 298 l 1,8,-1
 452 204 l 1,9,-1
 304 366 l 1,10,-1
 144 203 l 1,11,-1
 52 319 l 1,0,-1
EndSplineSet
Colour: ffff
EndChar

StartChar: n
Encoding: 110 110 137
Width: 1188
VWidth: 0
Flags: HMW
LayerCount: 2
Fore
SplineSet
49 0 m 1,0,-1
 63 115 l 1,1,-1
 209 172 l 1,2,-1
 209 680 l 1,3,-1
 61 747 l 1,4,-1
 80 869 l 1,5,-1
 431 903 l 1,6,-1
 458 874 l 1,7,-1
 438 759 l 1,8,-1
 451 756 l 1,9,10
 595 914 595 914 745 914 c 0,11,12
 861 914 861 914 925 842 c 128,-1,13
 989 770 989 770 989 628 c 2,14,-1
 989 172 l 1,15,-1
 1135 122 l 1,16,-1
 1119 0 l 1,17,-1
 676 0 l 1,18,-1
 681 115 l 1,19,-1
 750 172 l 1,20,-1
 750 503 l 2,21,22
 750 682 750 682 615 682 c 0,23,24
 521 682 521 682 453 614 c 1,25,-1
 453 172 l 1,26,-1
 589 122 l 1,27,-1
 567 0 l 1,28,-1
 49 0 l 1,0,-1
EndSplineSet
Colour: ffff
EndChar

StartChar: nine
Encoding: 57 57 139
Width: 949
VWidth: 0
Flags: HMW
LayerCount: 2
Fore
SplineSet
329 856 m 0,0,1
 329 599 329 599 463 599 c 0,2,3
 499 599 499 599 534.5 615 c 128,-1,4
 570 631 570 631 593 660 c 1,5,6
 602 720 602 720 602 817 c 0,7,8
 602 942 602 942 564.5 1020 c 128,-1,9
 527 1098 527 1098 461 1098 c 0,10,11
 387 1098 387 1098 358 1040 c 128,-1,12
 329 982 329 982 329 856 c 0,0,1
49 780 m 0,13,14
 49 879 49 879 85 962.5 c 128,-1,15
 121 1046 121 1046 180.5 1100 c 128,-1,16
 240 1154 240 1154 315.5 1184 c 128,-1,17
 391 1214 391 1214 473 1214 c 0,18,19
 580 1214 580 1214 662.5 1180.5 c 128,-1,20
 745 1147 745 1147 795 1086.5 c 128,-1,21
 845 1026 845 1026 870 947 c 128,-1,22
 895 868 895 868 895 772 c 0,23,24
 895 569 895 569 814.5 396.5 c 128,-1,25
 734 224 734 224 584 111.5 c 128,-1,26
 434 -1 434 -1 241 -26 c 1,27,-1
 205 68 l 1,28,29
 390 130 390 130 481 243.5 c 128,-1,30
 572 357 572 357 591 521 c 1,31,-1
 581 526 l 1,32,33
 500 444 500 444 351 444 c 0,34,35
 222 444 222 444 135.5 532.5 c 128,-1,36
 49 621 49 621 49 780 c 0,13,14
EndSplineSet
Substitution2: "'onum' Oldstyle Figures lookup 1-1" nine.osf
Colour: ffff
EndChar

StartChar: nine.osf
Encoding: 65539 -1 140
Width: 921
VWidth: 0
Flags: HMW
LayerCount: 2
Fore
SplineSet
323 642 m 0,0,1
 323 510 323 510 354 448 c 128,-1,2
 385 386 385 386 453 386 c 0,3,4
 531 386 531 386 579 446 c 1,5,6
 586 493 586 493 586 602 c 0,7,8
 586 727 586 727 549 805.5 c 128,-1,9
 512 884 512 884 446 884 c 0,10,11
 323 884 323 884 323 642 c 0,0,1
51 574 m 0,12,13
 51 669 51 669 85 750 c 128,-1,14
 119 831 119 831 176 885 c 128,-1,15
 233 939 233 939 307.5 969.5 c 128,-1,16
 382 1000 382 1000 463 1000 c 0,17,18
 570 1000 570 1000 649.5 964 c 128,-1,19
 729 928 729 928 775 863.5 c 128,-1,20
 821 799 821 799 843 718.5 c 128,-1,21
 865 638 865 638 865 541 c 0,22,23
 865 385 865 385 812.5 240.5 c 128,-1,24
 760 96 760 96 670 -14 c 128,-1,25
 580 -124 580 -124 457.5 -200 c 128,-1,26
 335 -276 335 -276 197 -302 c 1,27,-1
 161 -208 l 1,28,29
 335 -136 335 -136 438.5 0 c 128,-1,30
 542 136 542 136 569 308 c 1,31,-1
 559 312 l 1,32,33
 524 273 524 273 468 252 c 128,-1,34
 412 231 412 231 349 231 c 0,35,36
 219 231 219 231 135 321.5 c 128,-1,37
 51 412 51 412 51 574 c 0,12,13
EndSplineSet
Colour: ffff
EndChar

StartChar: ntilde
Encoding: 241 241 141
Width: 1188
VWidth: 0
Flags: HMW
LayerCount: 2
Fore
SplineSet
315 1053 m 1,0,1
 312 1072 312 1072 318 1101 c 128,-1,2
 324 1130 324 1130 339.5 1162.5 c 128,-1,3
 355 1195 355 1195 378 1221 c 128,-1,4
 401 1247 401 1247 438 1259 c 128,-1,5
 475 1271 475 1271 518 1261 c 2,6,-1
 724 1212 l 2,7,8
 740 1208 740 1208 755.5 1219.5 c 128,-1,9
 771 1231 771 1231 779 1245 c 2,10,-1
 787 1258 l 1,11,-1
 869 1252 l 1,12,13
 869 1226 869 1226 860 1196 c 128,-1,14
 851 1166 851 1166 832.5 1135 c 128,-1,15
 814 1104 814 1104 787 1081.5 c 128,-1,16
 760 1059 760 1059 724 1049 c 128,-1,17
 688 1039 688 1039 643 1050 c 2,18,-1
 456 1096 l 2,19,20
 437 1100 437 1100 422.5 1086 c 128,-1,21
 408 1072 408 1072 402 1056 c 2,22,-1
 397 1040 l 1,23,-1
 315 1053 l 1,0,1
49 0 m 1,24,-1
 63 115 l 1,25,-1
 209 172 l 1,26,-1
 209 680 l 1,27,-1
 61 747 l 1,28,-1
 80 869 l 1,29,-1
 431 903 l 1,30,-1
 458 874 l 1,31,-1
 438 759 l 1,32,-1
 451 756 l 1,33,34
 595 914 595 914 745 914 c 0,35,36
 861 914 861 914 925 842 c 128,-1,37
 989 770 989 770 989 628 c 2,38,-1
 989 172 l 1,39,-1
 1135 122 l 1,40,-1
 1119 0 l 1,41,-1
 676 0 l 1,42,-1
 681 115 l 1,43,-1
 750 172 l 1,44,-1
 750 503 l 2,45,46
 750 682 750 682 615 682 c 0,47,48
 521 682 521 682 453 614 c 1,49,-1
 453 172 l 1,50,-1
 589 122 l 1,51,-1
 567 0 l 1,52,-1
 49 0 l 1,24,-1
EndSplineSet
Colour: ffff
EndChar

StartChar: numbersign
Encoding: 35 35 142
Width: 1170
VWidth: 0
Flags: HMW
LayerCount: 2
Back
SplineSet
-73.874 686.307 m 1,0,-1
 30.0909 834.626 l 1,1,-1
 236.611 -52.9641 l 1,2,-1
 253.058 456.828 l 1,3,-1
 -73.874 686.307 l 1,0,-1
638.919 257.975 m 1,4,-1
 1144.88 189.327 l 1,5,-1
 428.908 708.81 l 1,6,-1
 -82.9195 777.459 l 1,7,-1
 638.919 257.975 l 1,4,-1
EndSplineSet
Fore
SplineSet
43 296 m 1,0,-1
 87 470 l 1,1,-1
 316 470 l 1,2,-1
 347 680 l 1,3,-1
 114 680 l 1,4,-1
 159 854 l 1,5,-1
 374 854 l 1,6,-1
 418 1148 l 1,7,-1
 582 1158 l 1,8,-1
 537 854 l 1,9,-1
 703 854 l 1,10,-1
 747 1148 l 1,11,-1
 913 1156 l 1,12,-1
 868 854 l 1,13,-1
 1127 854 l 1,14,-1
 1085 680 l 1,15,-1
 841 680 l 1,16,-1
 810 470 l 1,17,-1
 1052 470 l 1,18,-1
 1010 296 l 1,19,-1
 783 296 l 1,20,-1
 736 -19 l 1,21,-1
 571 -26 l 1,22,-1
 619 296 l 1,23,-1
 453 296 l 1,24,-1
 406 -19 l 1,25,-1
 241 -26 l 1,26,-1
 290 296 l 1,27,-1
 43 296 l 1,0,-1
645 470 m 1,28,-1
 677 680 l 1,29,-1
 511 680 l 1,30,-1
 479 470 l 1,31,-1
 645 470 l 1,28,-1
EndSplineSet
Colour: ffff
EndChar

StartChar: o
Encoding: 111 111 143
Width: 989
VWidth: 0
Flags: HMW
LayerCount: 2
Fore
SplineSet
306 512 m 0,0,1
 306 395 306 395 326.5 310 c 128,-1,2
 347 225 347 225 397.5 172 c 128,-1,3
 448 119 448 119 525 119 c 0,4,5
 606 119 606 119 646 182.5 c 128,-1,6
 686 246 686 246 686 358 c 0,7,8
 686 419 686 419 680.5 474 c 128,-1,9
 675 529 675 529 660.5 584.5 c 128,-1,10
 646 640 646 640 623 680 c 128,-1,11
 600 720 600 720 562 745 c 128,-1,12
 524 770 524 770 475 770 c 0,13,14
 387 770 387 770 346.5 700.5 c 128,-1,15
 306 631 306 631 306 512 c 0,0,1
50 446 m 0,16,17
 50 556 50 556 91 649 c 128,-1,18
 132 742 132 742 199 801.5 c 128,-1,19
 266 861 266 861 348 894 c 128,-1,20
 430 927 430 927 515 927 c 0,21,22
 720 927 720 927 832 806.5 c 128,-1,23
 944 686 944 686 944 466 c 0,24,25
 944 245 944 245 817.5 109 c 128,-1,26
 691 -27 691 -27 492 -27 c 0,27,28
 377 -27 377 -27 290 11 c 128,-1,29
 203 49 203 49 152 115.5 c 128,-1,30
 101 182 101 182 75.5 265 c 128,-1,31
 50 348 50 348 50 446 c 0,16,17
EndSplineSet
Colour: ffff
EndChar

StartChar: oacute
Encoding: 243 243 144
Width: 989
VWidth: 0
Flags: HMW
LayerCount: 2
Fore
SplineSet
386 1076 m 1,0,-1
 500 1390 l 1,1,-1
 722 1362 l 1,2,-1
 540 1049 l 1,3,-1
 386 1076 l 1,0,-1
306 512 m 0,4,5
 306 395 306 395 326.5 310 c 128,-1,6
 347 225 347 225 397.5 172 c 128,-1,7
 448 119 448 119 525 119 c 0,8,9
 606 119 606 119 646 182.5 c 128,-1,10
 686 246 686 246 686 358 c 0,11,12
 686 419 686 419 680.5 474 c 128,-1,13
 675 529 675 529 660.5 584.5 c 128,-1,14
 646 640 646 640 623 680 c 128,-1,15
 600 720 600 720 562 745 c 128,-1,16
 524 770 524 770 475 770 c 0,17,18
 387 770 387 770 346.5 700.5 c 128,-1,19
 306 631 306 631 306 512 c 0,4,5
50 446 m 0,20,21
 50 556 50 556 91 649 c 128,-1,22
 132 742 132 742 199 801.5 c 128,-1,23
 266 861 266 861 348 894 c 128,-1,24
 430 927 430 927 515 927 c 0,25,26
 720 927 720 927 832 806.5 c 128,-1,27
 944 686 944 686 944 466 c 0,28,29
 944 245 944 245 817.5 109 c 128,-1,30
 691 -27 691 -27 492 -27 c 0,31,32
 377 -27 377 -27 290 11 c 128,-1,33
 203 49 203 49 152 115.5 c 128,-1,34
 101 182 101 182 75.5 265 c 128,-1,35
 50 348 50 348 50 446 c 0,20,21
EndSplineSet
Colour: ffff
EndChar

StartChar: ocircumflex
Encoding: 244 244 145
Width: 989
VWidth: 0
Flags: HMW
LayerCount: 2
Fore
SplineSet
783 1037 m 1,0,-1
 614 1002 l 1,1,-1
 510 1087 l 1,2,-1
 500 1087 l 1,3,-1
 413 996 l 1,4,-1
 252 1020 l 1,5,-1
 416 1236 l 1,6,-1
 603 1257 l 1,7,-1
 783 1037 l 1,0,-1
306 512 m 0,8,9
 306 395 306 395 326.5 310 c 128,-1,10
 347 225 347 225 397.5 172 c 128,-1,11
 448 119 448 119 525 119 c 0,12,13
 606 119 606 119 646 182.5 c 128,-1,14
 686 246 686 246 686 358 c 0,15,16
 686 419 686 419 680.5 474 c 128,-1,17
 675 529 675 529 660.5 584.5 c 128,-1,18
 646 640 646 640 623 680 c 128,-1,19
 600 720 600 720 562 745 c 128,-1,20
 524 770 524 770 475 770 c 0,21,22
 387 770 387 770 346.5 700.5 c 128,-1,23
 306 631 306 631 306 512 c 0,8,9
50 446 m 0,24,25
 50 556 50 556 91 649 c 128,-1,26
 132 742 132 742 199 801.5 c 128,-1,27
 266 861 266 861 348 894 c 128,-1,28
 430 927 430 927 515 927 c 0,29,30
 720 927 720 927 832 806.5 c 128,-1,31
 944 686 944 686 944 466 c 0,32,33
 944 245 944 245 817.5 109 c 128,-1,34
 691 -27 691 -27 492 -27 c 0,35,36
 377 -27 377 -27 290 11 c 128,-1,37
 203 49 203 49 152 115.5 c 128,-1,38
 101 182 101 182 75.5 265 c 128,-1,39
 50 348 50 348 50 446 c 0,24,25
EndSplineSet
Colour: ffff
EndChar

StartChar: odieresis
Encoding: 246 246 146
Width: 989
VWidth: 0
Flags: HMW
LayerCount: 2
Fore
SplineSet
584 1146 m 0,0,1
 584 1183 584 1183 611.5 1210.5 c 128,-1,2
 639 1238 639 1238 692 1238 c 0,3,4
 747 1238 747 1238 775.5 1211 c 128,-1,5
 804 1184 804 1184 804 1146 c 0,6,7
 804 1104 804 1104 775.5 1076.5 c 128,-1,8
 747 1049 747 1049 691.5 1049 c 128,-1,9
 636 1049 636 1049 610 1077 c 128,-1,10
 584 1105 584 1105 584 1146 c 0,0,1
274 1146 m 0,11,12
 274 1183 274 1183 302 1210.5 c 128,-1,13
 330 1238 330 1238 383 1238 c 0,14,15
 438 1238 438 1238 466.5 1211 c 128,-1,16
 495 1184 495 1184 495 1146 c 0,17,18
 495 1104 495 1104 466.5 1076.5 c 128,-1,19
 438 1049 438 1049 382.5 1049 c 128,-1,20
 327 1049 327 1049 300.5 1077 c 128,-1,21
 274 1105 274 1105 274 1146 c 0,11,12
306 512 m 0,22,23
 306 395 306 395 326.5 310 c 128,-1,24
 347 225 347 225 397.5 172 c 128,-1,25
 448 119 448 119 525 119 c 0,26,27
 606 119 606 119 646 182.5 c 128,-1,28
 686 246 686 246 686 358 c 0,29,30
 686 419 686 419 680.5 474 c 128,-1,31
 675 529 675 529 660.5 584.5 c 128,-1,32
 646 640 646 640 623 680 c 128,-1,33
 600 720 600 720 562 745 c 128,-1,34
 524 770 524 770 475 770 c 0,35,36
 387 770 387 770 346.5 700.5 c 128,-1,37
 306 631 306 631 306 512 c 0,22,23
50 446 m 0,38,39
 50 556 50 556 91 649 c 128,-1,40
 132 742 132 742 199 801.5 c 128,-1,41
 266 861 266 861 348 894 c 128,-1,42
 430 927 430 927 515 927 c 0,43,44
 720 927 720 927 832 806.5 c 128,-1,45
 944 686 944 686 944 466 c 0,46,47
 944 245 944 245 817.5 109 c 128,-1,48
 691 -27 691 -27 492 -27 c 0,49,50
 377 -27 377 -27 290 11 c 128,-1,51
 203 49 203 49 152 115.5 c 128,-1,52
 101 182 101 182 75.5 265 c 128,-1,53
 50 348 50 348 50 446 c 0,38,39
EndSplineSet
Colour: ffff
EndChar

StartChar: ograve
Encoding: 242 242 147
Width: 989
VWidth: 0
Flags: HMW
LayerCount: 2
Fore
SplineSet
305 1384 m 1,0,-1
 522 1422 l 1,1,-1
 662 1082 l 1,2,-1
 505 1049 l 1,3,-1
 305 1384 l 1,0,-1
306 512 m 0,4,5
 306 395 306 395 326.5 310 c 128,-1,6
 347 225 347 225 397.5 172 c 128,-1,7
 448 119 448 119 525 119 c 0,8,9
 606 119 606 119 646 182.5 c 128,-1,10
 686 246 686 246 686 358 c 0,11,12
 686 419 686 419 680.5 474 c 128,-1,13
 675 529 675 529 660.5 584.5 c 128,-1,14
 646 640 646 640 623 680 c 128,-1,15
 600 720 600 720 562 745 c 128,-1,16
 524 770 524 770 475 770 c 0,17,18
 387 770 387 770 346.5 700.5 c 128,-1,19
 306 631 306 631 306 512 c 0,4,5
50 446 m 0,20,21
 50 556 50 556 91 649 c 128,-1,22
 132 742 132 742 199 801.5 c 128,-1,23
 266 861 266 861 348 894 c 128,-1,24
 430 927 430 927 515 927 c 0,25,26
 720 927 720 927 832 806.5 c 128,-1,27
 944 686 944 686 944 466 c 0,28,29
 944 245 944 245 817.5 109 c 128,-1,30
 691 -27 691 -27 492 -27 c 0,31,32
 377 -27 377 -27 290 11 c 128,-1,33
 203 49 203 49 152 115.5 c 128,-1,34
 101 182 101 182 75.5 265 c 128,-1,35
 50 348 50 348 50 446 c 0,20,21
EndSplineSet
Colour: ffff
EndChar

StartChar: one
Encoding: 49 49 148
Width: 887
VWidth: 0
Flags: HMW
LayerCount: 2
Fore
SplineSet
44 -2 m 1,0,-1
 56 99 l 1,1,-1
 300 156 l 1,2,-1
 300 973 l 1,3,-1
 67 973 l 1,4,-1
 76 1095 l 1,5,-1
 534 1186 l 1,6,-1
 594 1186 l 1,7,-1
 594 146 l 1,8,-1
 843 108 l 1,9,-1
 832 -2 l 1,10,-1
 44 -2 l 1,0,-1
EndSplineSet
Substitution2: "'onum' Oldstyle Figures lookup 1-1" one.osf
Colour: ffff
EndChar

StartChar: one.osf
Encoding: 65540 -1 149
Width: 765
VWidth: 0
Flags: HMW
LayerCount: 2
Fore
SplineSet
46 -2 m 1,0,-1
 58 99 l 1,1,-1
 252 156 l 1,2,-1
 252 774 l 1,3,-1
 68 775 l 1,4,-1
 78 897 l 1,5,-1
 458 986 l 1,6,-1
 518 986 l 1,7,-1
 518 146 l 1,8,-1
 721 106 l 1,9,-1
 710 -2 l 1,10,-1
 46 -2 l 1,0,-1
EndSplineSet
Colour: ffff
EndChar

StartChar: onehalf
Encoding: 189 189 150
Width: 1713
VWidth: 0
Flags: HMW
LayerCount: 2
Fore
SplineSet
253 12 m 1,0,-1
 735 588 l 1,1,-1
 1201 1208 l 1,2,-1
 1441 1206 l 1,3,-1
 1439 1154 l 1,4,-1
 969 591 l 1,5,-1
 537 -26 l 1,6,-1
 253 12 l 1,0,-1
45 530 m 1,7,-1
 55 632 l 1,8,-1
 195 662 l 1,9,-1
 195 1098 l 1,10,-1
 62 1098 l 1,11,-1
 69 1220 l 1,12,-1
 409 1260 l 1,13,-1
 453 1260 l 1,14,-1
 453 656 l 1,15,-1
 598 640 l 1,16,-1
 591 530 l 1,17,-1
 45 530 l 1,7,-1
1049 114 m 1,18,-1
 1185 216 l 2,19,20
 1275 284 1275 284 1324 350 c 128,-1,21
 1373 416 1373 416 1373 466 c 0,22,23
 1373 571 1373 571 1283 571 c 0,24,25
 1238 571 1238 571 1207 536 c 1,26,-1
 1177 386 l 1,27,-1
 1088 393 l 1,28,-1
 1059 592 l 1,29,30
 1102 645 1102 645 1187.5 676.5 c 128,-1,31
 1273 708 1273 708 1367 708 c 0,32,33
 1497 708 1497 708 1567 653.5 c 128,-1,34
 1637 599 1637 599 1637 520 c 0,35,36
 1637 465 1637 465 1611 414.5 c 128,-1,37
 1585 364 1585 364 1537.5 320.5 c 128,-1,38
 1490 277 1490 277 1443.5 245.5 c 128,-1,39
 1397 214 1397 214 1336 180 c 1,40,-1
 1263 141 l 1,41,-1
 1498 131 l 1,42,-1
 1581 268 l 1,43,-1
 1665 254 l 1,44,-1
 1639 -29 l 1,45,-1
 1053 -29 l 1,46,-1
 1049 114 l 1,18,-1
EndSplineSet
Colour: ffff
EndChar

StartChar: onequarter
Encoding: 188 188 151
Width: 1652
VWidth: 0
Flags: HMW
LayerCount: 2
Fore
SplineSet
263 12 m 1,0,-1
 745 588 l 1,1,-1
 1211 1208 l 1,2,-1
 1451 1206 l 1,3,-1
 1449 1154 l 1,4,-1
 979 591 l 1,5,-1
 547 -26 l 1,6,-1
 263 12 l 1,0,-1
45 530 m 1,7,-1
 55 632 l 1,8,-1
 195 662 l 1,9,-1
 195 1098 l 1,10,-1
 62 1098 l 1,11,-1
 69 1220 l 1,12,-1
 409 1260 l 1,13,-1
 453 1260 l 1,14,-1
 453 656 l 1,15,-1
 598 640 l 1,16,-1
 591 530 l 1,17,-1
 45 530 l 1,7,-1
1088 274 m 1,18,-1
 1245 274 l 1,19,-1
 1245 474 l 1,20,-1
 1088 274 l 1,18,-1
933 282 m 1,21,-1
 1387 722 l 1,22,-1
 1471 704 l 1,23,24
 1461 576 1461 576 1461 428 c 2,25,-1
 1461 293 l 1,26,-1
 1609 293 l 1,27,-1
 1600 160 l 1,28,-1
 1461 160 l 1,29,-1
 1461 73 l 1,30,-1
 1571 50 l 1,31,-1
 1565 -30 l 1,32,-1
 1115 -30 l 1,33,-1
 1119 44 l 1,34,-1
 1237 74 l 1,35,-1
 1237 163 l 1,36,-1
 947 163 l 1,37,-1
 933 282 l 1,21,-1
EndSplineSet
Colour: ffff
EndChar

StartChar: one.superior
Encoding: 185 185 152
Width: 654
VWidth: 0
Flags: HMW
LayerCount: 2
Fore
SplineSet
51 530 m 1,0,-1
 60 632 l 1,1,-1
 201 662 l 1,2,-1
 201 1098 l 1,3,-1
 67 1098 l 1,4,-1
 75 1220 l 1,5,-1
 415 1260 l 1,6,-1
 459 1260 l 1,7,-1
 459 656 l 1,8,-1
 603 640 l 1,9,-1
 597 530 l 1,10,-1
 51 530 l 1,0,-1
EndSplineSet
Colour: ffff
EndChar

StartChar: ordfeminine
Encoding: 170 170 153
Width: 799
VWidth: 0
Flags: HMW
LayerCount: 2
Fore
SplineSet
264 733 m 0,0,1
 264 702 264 702 281 680.5 c 128,-1,2
 298 659 298 659 334 659 c 0,3,4
 353 659 353 659 370 666.5 c 128,-1,5
 387 674 387 674 395 681 c 128,-1,6
 403 688 403 688 421 704 c 1,7,-1
 421 854 l 1,8,9
 333 841 333 841 298.5 810.5 c 128,-1,10
 264 780 264 780 264 733 c 0,0,1
51 672 m 0,11,12
 51 722 51 722 73 768 c 128,-1,13
 95 814 95 814 138 852 c 128,-1,14
 181 890 181 890 254 912 c 128,-1,15
 327 934 327 934 421 934 c 1,16,-1
 421 989 l 2,17,18
 421 1151 421 1151 320 1151 c 0,19,20
 281 1151 281 1151 267.5 1115.5 c 128,-1,21
 254 1080 254 1080 245 973 c 1,22,23
 172 970 172 970 125.5 997 c 128,-1,24
 79 1024 79 1024 79 1086 c 0,25,26
 79 1129 79 1129 131.5 1172.5 c 128,-1,27
 184 1216 184 1216 261.5 1242.5 c 128,-1,28
 339 1269 339 1269 409 1269 c 0,29,30
 633 1269 633 1269 633 1024 c 2,31,-1
 633 787 l 2,32,33
 633 724 633 724 649.5 699 c 128,-1,34
 666 674 666 674 719 664 c 2,35,-1
 752 658 l 1,36,-1
 736 559 l 1,37,38
 702 534 702 534 671 523.5 c 128,-1,39
 640 513 640 513 594 513 c 0,40,41
 467 513 467 513 445 614 c 1,42,-1
 443 625 l 1,43,-1
 434 627 l 1,44,45
 414 582 414 582 357.5 546.5 c 128,-1,46
 301 511 301 511 223 511 c 0,47,48
 146 511 146 511 98.5 552.5 c 128,-1,49
 51 594 51 594 51 672 c 0,11,12
EndSplineSet
Colour: ffff
EndChar

StartChar: ordmasculine
Encoding: 186 186 154
Width: 849
VWidth: 0
Flags: HMW
LayerCount: 2
Fore
SplineSet
280 942 m 0,0,1
 280 870 280 870 287.5 816.5 c 128,-1,2
 295 763 295 763 313 718.5 c 128,-1,3
 331 674 331 674 365 650.5 c 128,-1,4
 399 627 399 627 447 627 c 0,5,6
 513 627 513 627 539.5 676 c 128,-1,7
 566 725 566 725 566 818 c 0,8,9
 566 870 566 870 563 911.5 c 128,-1,10
 560 953 560 953 550 999 c 128,-1,11
 540 1045 540 1045 523.5 1076 c 128,-1,12
 507 1107 507 1107 477 1127.5 c 128,-1,13
 447 1148 447 1148 406 1148 c 0,14,15
 334 1148 334 1148 307 1094.5 c 128,-1,16
 280 1041 280 1041 280 942 c 0,0,1
51 888 m 0,17,18
 51 976 51 976 85.5 1050.5 c 128,-1,19
 120 1125 120 1125 176 1173 c 128,-1,20
 232 1221 232 1221 300.5 1247.5 c 128,-1,21
 369 1274 369 1274 439 1274 c 0,22,23
 608 1274 608 1274 702.5 1176.5 c 128,-1,24
 797 1079 797 1079 797 904 c 0,25,26
 797 728 797 728 690.5 619 c 128,-1,27
 584 510 584 510 420 510 c 0,28,29
 326 510 326 510 253.5 540.5 c 128,-1,30
 181 571 181 571 137.5 624 c 128,-1,31
 94 677 94 677 72.5 743.5 c 128,-1,32
 51 810 51 810 51 888 c 0,17,18
EndSplineSet
Colour: ffff
EndChar

StartChar: oslash
Encoding: 248 248 155
Width: 1022
VWidth: 0
Flags: HMW
LayerCount: 2
Fore
SplineSet
61 446 m 0,0,1
 61 556 61 556 102.5 649 c 128,-1,2
 144 742 144 742 211 801.5 c 128,-1,3
 278 861 278 861 360 894 c 128,-1,4
 442 927 442 927 527 927 c 0,5,6
 662 927 662 927 759 873 c 1,7,-1
 802 926 l 1,8,-1
 982 912 l 1,9,-1
 871 774 l 1,10,11
 956 657 956 657 956 466 c 0,12,13
 956 245 956 245 829.5 109 c 128,-1,14
 703 -27 703 -27 504 -27 c 0,15,16
 370 -27 370 -27 273 25 c 1,17,-1
 229 -30 l 1,18,-1
 43 -16 l 1,19,-1
 158 122 l 1,20,21
 61 246 61 246 61 446 c 0,0,1
382 205 m 1,22,23
 437 119 437 119 537 119 c 0,24,25
 618 119 618 119 657.5 182.5 c 128,-1,26
 697 246 697 246 697 358 c 0,27,28
 697 488 697 488 673 581 c 1,29,-1
 382 205 l 1,22,23
344 292 m 1,30,-1
 638 674 l 1,31,32
 585 770 585 770 487 770 c 0,33,34
 399 770 399 770 358.5 700.5 c 128,-1,35
 318 631 318 631 318 512 c 0,36,37
 318 381 318 381 344 292 c 1,30,-1
EndSplineSet
Colour: ffff
EndChar

StartChar: otilde
Encoding: 245 245 156
Width: 989
VWidth: 0
Flags: HMW
LayerCount: 2
Fore
SplineSet
245 1053 m 1,0,1
 242 1072 242 1072 248 1101 c 128,-1,2
 254 1130 254 1130 269.5 1162.5 c 128,-1,3
 285 1195 285 1195 308 1221 c 128,-1,4
 331 1247 331 1247 368 1259 c 128,-1,5
 405 1271 405 1271 448 1261 c 2,6,-1
 654 1212 l 2,7,8
 670 1208 670 1208 685.5 1219.5 c 128,-1,9
 701 1231 701 1231 709 1245 c 2,10,-1
 717 1258 l 1,11,-1
 799 1252 l 1,12,13
 799 1226 799 1226 790 1196 c 128,-1,14
 781 1166 781 1166 762.5 1135 c 128,-1,15
 744 1104 744 1104 717 1081.5 c 128,-1,16
 690 1059 690 1059 654 1049 c 128,-1,17
 618 1039 618 1039 573 1050 c 2,18,-1
 386 1096 l 2,19,20
 367 1100 367 1100 352.5 1086 c 128,-1,21
 338 1072 338 1072 332 1056 c 2,22,-1
 327 1040 l 1,23,-1
 245 1053 l 1,0,1
306 512 m 0,24,25
 306 395 306 395 326.5 310 c 128,-1,26
 347 225 347 225 397.5 172 c 128,-1,27
 448 119 448 119 525 119 c 0,28,29
 606 119 606 119 646 182.5 c 128,-1,30
 686 246 686 246 686 358 c 0,31,32
 686 419 686 419 680.5 474 c 128,-1,33
 675 529 675 529 660.5 584.5 c 128,-1,34
 646 640 646 640 623 680 c 128,-1,35
 600 720 600 720 562 745 c 128,-1,36
 524 770 524 770 475 770 c 0,37,38
 387 770 387 770 346.5 700.5 c 128,-1,39
 306 631 306 631 306 512 c 0,24,25
50 446 m 0,40,41
 50 556 50 556 91 649 c 128,-1,42
 132 742 132 742 199 801.5 c 128,-1,43
 266 861 266 861 348 894 c 128,-1,44
 430 927 430 927 515 927 c 0,45,46
 720 927 720 927 832 806.5 c 128,-1,47
 944 686 944 686 944 466 c 0,48,49
 944 245 944 245 817.5 109 c 128,-1,50
 691 -27 691 -27 492 -27 c 0,51,52
 377 -27 377 -27 290 11 c 128,-1,53
 203 49 203 49 152 115.5 c 128,-1,54
 101 182 101 182 75.5 265 c 128,-1,55
 50 348 50 348 50 446 c 0,40,41
EndSplineSet
Colour: ffff
EndChar

StartChar: p
Encoding: 112 112 157
Width: 1084
VWidth: 0
Flags: HMW
LayerCount: 2
Fore
SplineSet
37 -371 m 1,0,-1
 49 -253 l 1,1,-1
 203 -199 l 1,2,-1
 203 684 l 1,3,-1
 51 747 l 1,4,-1
 70 870 l 1,5,-1
 423 902 l 1,6,-1
 453 874 l 1,7,-1
 435 768 l 1,8,-1
 445 765 l 1,9,10
 490 829 490 829 559.5 874.5 c 128,-1,11
 629 920 629 920 719 920 c 0,12,13
 785 920 785 920 841 894.5 c 128,-1,14
 897 869 897 869 942.5 818 c 128,-1,15
 988 767 988 767 1013.5 680 c 128,-1,16
 1039 593 1039 593 1039 478 c 0,17,18
 1039 247 1039 247 906 114 c 128,-1,19
 773 -19 773 -19 567 -19 c 0,20,21
 478 -19 478 -19 442 -6 c 1,22,-1
 441 52 l 1,23,-1
 441 -200 l 1,24,-1
 641 -251 l 1,25,-1
 624 -371 l 1,26,-1
 37 -371 l 1,0,-1
441 167 m 1,27,28
 509 135 509 135 595 135 c 0,29,30
 684 135 684 135 734.5 204.5 c 128,-1,31
 785 274 785 274 785 398 c 0,32,33
 785 546 785 546 744.5 626 c 128,-1,34
 704 706 704 706 623 706 c 0,35,36
 537 706 537 706 441 628 c 1,37,-1
 441 167 l 1,27,28
EndSplineSet
Colour: ffff
EndChar

StartChar: paragraph
Encoding: 182 182 158
Width: 1480
VWidth: 0
Flags: HMW
LayerCount: 2
Fore
SplineSet
1053 -1 m 1,0,-1
 1053 1245 l 1,1,-1
 1433 1245 l 1,2,-1
 1419 1128 l 1,3,-1
 1245 1076 l 1,4,-1
 1245 164 l 1,5,-1
 1431 114 l 1,6,-1
 1421 -1 l 1,7,-1
 1053 -1 l 1,0,-1
47 812 m 0,8,9
 47 1002 47 1002 179 1123.5 c 128,-1,10
 311 1245 311 1245 519 1245 c 2,11,-1
 957 1245 l 1,12,-1
 957 -1 l 1,13,-1
 482 -1 l 1,14,-1
 491 105 l 1,15,-1
 741 168 l 1,16,-1
 741 1110 l 1,17,18
 659 1121 659 1121 601 1121 c 0,19,20
 463 1121 463 1121 393 1055 c 128,-1,21
 323 989 323 989 323 861 c 0,22,23
 323 741 323 741 398.5 657 c 128,-1,24
 474 573 474 573 621 574 c 1,25,-1
 603 428 l 1,26,27
 439 419 439 419 316 456.5 c 128,-1,28
 193 494 193 494 120 585 c 128,-1,29
 47 676 47 676 47 812 c 0,8,9
EndSplineSet
Colour: ffff
EndChar

StartChar: parenleft
Encoding: 40 40 159
Width: 533
VWidth: 0
Flags: HMW
LayerCount: 2
Fore
SplineSet
459 1160 m 1,0,1
 421 1110 421 1110 393 1059.5 c 128,-1,2
 365 1009 365 1009 335.5 926.5 c 128,-1,3
 306 844 306 844 290.5 724.5 c 128,-1,4
 275 605 275 605 275 454 c 0,5,6
 275 3 275 3 469 -298 c 1,7,-1
 369 -376 l 1,8,9
 300 -309 300 -309 265 -265 c 0,10,11
 41 13 41 13 32 405 c 0,12,13
 32 420 32 420 32 436 c 0,14,15
 32 544 32 544 48 644 c 128,-1,16
 64 744 64 744 87 818 c 128,-1,17
 110 892 110 892 145 961 c 128,-1,18
 180 1030 180 1030 209.5 1074 c 128,-1,19
 239 1118 239 1118 275.5 1160 c 128,-1,20
 312 1202 312 1202 330.5 1219.5 c 128,-1,21
 349 1237 349 1237 370 1255 c 1,22,-1
 459 1160 l 1,0,1
EndSplineSet
Colour: ffff
EndChar

StartChar: parenright
Encoding: 41 41 160
Width: 532
VWidth: 0
Flags: HMW
LayerCount: 2
Fore
SplineSet
49 1160 m 1,0,-1
 138 1255 l 1,1,2
 159 1237 159 1237 177.5 1219.5 c 128,-1,3
 196 1202 196 1202 232.5 1160 c 128,-1,4
 269 1118 269 1118 298.5 1074 c 128,-1,5
 328 1030 328 1030 363 961 c 128,-1,6
 398 892 398 892 421 818 c 128,-1,7
 444 744 444 744 460 644 c 128,-1,8
 476 544 476 544 476 436 c 0,9,10
 476 -54 476 -54 147 -368 c 0,11,12
 141 -374 141 -374 139 -376 c 1,13,-1
 39 -298 l 1,14,15
 233 3 233 3 233 454 c 0,16,17
 233 605 233 605 217.5 724.5 c 128,-1,18
 202 844 202 844 172.5 926.5 c 128,-1,19
 143 1009 143 1009 115 1059.5 c 128,-1,20
 87 1110 87 1110 49 1160 c 1,0,-1
EndSplineSet
Colour: ffff
EndChar

StartChar: percent
Encoding: 37 37 161
Width: 1465
VWidth: 0
Flags: HMW
LayerCount: 2
Back
SplineSet
-57.187 1009.63 m 0,0,1
 -57.187 1078.89 -57.187 1078.89 -26.4298 1144.96 c 0
 4.3273 1211.03 4.3273 1211.03 52.8899 1258.25 c 0
 101.453 1305.47 101.453 1305.47 163.14 1334.23 c 0
 224.828 1362.99 224.828 1362.99 284.956 1362.99 c 0,2,3
 374.287 1362.99 374.287 1362.99 449.273 1316.18 c 0
 524.258 1269.36 524.258 1269.36 567.894 1187.19 c 0
 611.529 1105.03 611.529 1105.03 611.529 1006.1 c 0,4,5
 611.529 936.855 611.529 936.855 582.486 871.48 c 0
 553.443 806.105 553.443 806.105 507.456 759.746 c 0
 461.469 713.387 461.469 713.387 403.09 685.332 c 0
 344.71 657.277 344.71 657.277 287.482 657.277 c 0,6,7
 193.702 657.277 193.702 657.277 115.581 699.925 c 0
 37.4609 742.573 37.4609 742.573 -9.86304 823.955 c 0
 -57.187 905.336 -57.187 905.336 -57.187 1009.63 c 0,0,1
181.239 1004.63 m 0,8,9
 181.239 935.033 181.239 935.033 191.3 882.364 c 0
 201.361 829.694 201.361 829.694 225.888 795.601 c 0
 250.415 761.507 250.415 761.507 287.482 761.507 c 0,10,11
 383.156 761.507 383.156 761.507 383.156 1007.66 c 0,12,13
 383.156 1077.76 383.156 1077.76 372.769 1135.84 c 0
 362.382 1193.92 362.382 1193.92 339.554 1231.91 c 0
 316.726 1269.89 316.726 1269.89 284.956 1269.89 c 0,14,15
 255.744 1269.89 255.744 1269.89 234.624 1247.17 c 0
 213.503 1224.46 213.503 1224.46 202.348 1184.91 c 0
 191.193 1145.35 191.193 1145.35 186.216 1101.01 c 0
 181.239 1056.67 181.239 1056.67 181.239 1004.63 c 0,8,9
EndSplineSet
Fore
SplineSet
1025 272 m 0,0,1
 1025 60 1025 60 1112 60 c 0,2,3
 1135 60 1135 60 1151 76 c 128,-1,4
 1167 92 1167 92 1175 122.5 c 128,-1,5
 1183 153 1183 153 1186.5 189 c 128,-1,6
 1190 225 1190 225 1190 274 c 0,7,8
 1190 372 1190 372 1170 438 c 128,-1,9
 1150 504 1150 504 1110 504 c 0,10,11
 1025 504 1025 504 1025 272 c 0,0,1
788 276 m 0,12,13
 788 398 788 398 892 494 c 128,-1,14
 996 590 996 590 1110 590 c 0,15,16
 1234 590 1234 590 1326 498 c 128,-1,17
 1418 406 1418 406 1418 274 c 0,18,19
 1418 152 1418 152 1319.5 58 c 128,-1,20
 1221 -36 1221 -36 1112 -36 c 0,21,22
 980 -36 980 -36 884 51 c 128,-1,23
 788 138 788 138 788 276 c 0,12,13
132 12 m 1,24,-1
 614 588 l 1,25,-1
 1017 1124 l 1,26,27
 584 1121 l 1,28,29
 631 1080 631 1080 652.5 1014 c 128,-1,30
 674 948 674 948 674 897 c 0,31,32
 674 814 674 814 626 739 c 128,-1,33
 578 664 578 664 506 622 c 128,-1,34
 434 580 434 580 363 580 c 0,35,36
 228 580 228 580 136 667 c 128,-1,37
 44 754 44 754 44 897 c 0,38,39
 44 971 44 971 91 1044.5 c 128,-1,40
 138 1118 138 1118 211.5 1164 c 128,-1,41
 285 1210 285 1210 358 1210 c 0,42,43
 369 1210 369 1210 384 1207 c 1,44,-1
 394 1114 l 1,45,46
 370 1122 370 1122 361 1122 c 0,47,48
 280 1122 280 1122 280 897 c 128,-1,49
 280 672 280 672 363 672 c 128,-1,50
 446 672 446 672 446 897 c 0,51,52
 446 1083 446 1083 422 1203 c 1,53,-1
 1080 1208 l 1,54,-1
 1314 1206 l 1,55,-1
 1314 1154 l 1,56,-1
 842 591 l 1,57,-1
 410 -26 l 1,58,-1
 132 12 l 1,24,-1
EndSplineSet
Colour: ffff
EndChar

StartChar: period
Encoding: 46 46 162
Width: 455
VWidth: 0
Flags: HMW
LayerCount: 2
Fore
SplineSet
61 110 m 0,0,1
 61 163 61 163 103 202.5 c 128,-1,2
 145 242 145 242 225 242 c 0,3,4
 309 242 309 242 352 203 c 128,-1,5
 395 164 395 164 395 110 c 0,6,7
 395 49 395 49 352 10.5 c 128,-1,8
 309 -28 309 -28 225 -28 c 128,-1,9
 141 -28 141 -28 101 11.5 c 128,-1,10
 61 51 61 51 61 110 c 0,0,1
EndSplineSet
Colour: ffff
EndChar

StartChar: periodcentered
Encoding: 183 183 163
Width: 455
VWidth: 0
Flags: HMW
LayerCount: 2
Fore
SplineSet
85 460 m 0,0,1
 85 513 85 513 127 552.5 c 128,-1,2
 169 592 169 592 249 592 c 0,3,4
 333 592 333 592 376 553 c 128,-1,5
 419 514 419 514 419 460 c 0,6,7
 419 399 419 399 376 360.5 c 128,-1,8
 333 322 333 322 249 322 c 128,-1,9
 165 322 165 322 125 361.5 c 128,-1,10
 85 401 85 401 85 460 c 0,0,1
EndSplineSet
Colour: ffff
EndChar

StartChar: plus
Encoding: 43 43 164
Width: 702
VWidth: 0
Flags: HMW
LayerCount: 2
Fore
SplineSet
52 392 m 1,0,-1
 62 526 l 1,1,-1
 276 526 l 1,2,-1
 276 764 l 1,3,-1
 425 752 l 1,4,-1
 425 526 l 1,5,-1
 648 526 l 1,6,-1
 635 392 l 1,7,-1
 425 392 l 1,8,-1
 426 158 l 1,9,-1
 276 166 l 1,10,-1
 276 392 l 1,11,-1
 52 392 l 1,0,-1
EndSplineSet
Colour: ffff
EndChar

StartChar: plusminus
Encoding: 177 177 165
Width: 689
VWidth: 0
Flags: HMW
LayerCount: 2
Fore
SplineSet
121 138 m 1,0,-1
 135 276 l 1,1,-1
 629 297 l 1,2,-1
 615 154 l 1,3,-1
 121 138 l 1,0,-1
72 552 m 1,4,-1
 82 686 l 1,5,-1
 296 686 l 1,6,-1
 296 924 l 1,7,-1
 445 912 l 1,8,-1
 445 686 l 1,9,-1
 668 686 l 1,10,-1
 655 552 l 1,11,-1
 445 552 l 1,12,-1
 446 318 l 1,13,-1
 296 326 l 1,14,-1
 296 552 l 1,15,-1
 72 552 l 1,4,-1
EndSplineSet
Colour: ffff
EndChar

StartChar: q
Encoding: 113 113 166
Width: 1074
VWidth: 0
Flags: HMW
LayerCount: 2
Fore
SplineSet
49 399 m 0,0,1
 49 529 49 529 115 649 c 128,-1,2
 181 769 181 769 291 842.5 c 128,-1,3
 401 916 401 916 522 916 c 0,4,5
 604 916 604 916 696 875 c 1,6,-1
 839 914 l 1,7,-1
 879 910 l 1,8,-1
 879 -194 l 1,9,-1
 1038 -244 l 1,10,-1
 1024 -364 l 1,11,-1
 482 -364 l 1,12,-1
 496 -246 l 1,13,-1
 648 -194 l 1,14,-1
 648 622 l 1,15,16
 624 672 624 672 575.5 707 c 128,-1,17
 527 742 527 742 476 742 c 0,18,19
 392 742 392 742 345 672.5 c 128,-1,20
 298 603 298 603 298 477 c 0,21,22
 298 332 298 332 349 249.5 c 128,-1,23
 400 167 400 167 479 167 c 0,24,25
 520 167 520 167 566 178 c 128,-1,26
 612 189 612 189 640 208 c 1,27,-1
 638 81 l 1,28,29
 589 28 589 28 514.5 4 c 128,-1,30
 440 -20 440 -20 373 -20 c 0,31,32
 228 -20 228 -20 138.5 85 c 128,-1,33
 49 190 49 190 49 399 c 0,0,1
EndSplineSet
Colour: ffff
EndChar

StartChar: question
Encoding: 63 63 167
Width: 690
VWidth: 0
Flags: HMW
LayerCount: 2
Fore
SplineSet
140 110 m 0,0,1
 140 165 140 165 183 205 c 128,-1,2
 226 245 226 245 306 245 c 0,3,4
 390 245 390 245 433.5 205 c 128,-1,5
 477 165 477 165 477 110 c 0,6,7
 477 48 477 48 434 8.5 c 128,-1,8
 391 -31 391 -31 306 -31 c 128,-1,9
 221 -31 221 -31 180.5 9.5 c 128,-1,10
 140 50 140 50 140 110 c 0,0,1
42 1142 m 0,11,12
 42 1202 42 1202 92 1245.5 c 128,-1,13
 142 1289 142 1289 255 1289 c 0,14,15
 346 1289 346 1289 436 1225 c 128,-1,16
 526 1161 526 1161 584 1054 c 128,-1,17
 642 947 642 947 642 833 c 0,18,19
 642 780 642 780 626 739.5 c 128,-1,20
 610 699 610 699 584.5 674 c 128,-1,21
 559 649 559 649 528.5 630 c 128,-1,22
 498 611 498 611 467.5 596 c 128,-1,23
 437 581 437 581 411.5 565.5 c 128,-1,24
 386 550 386 550 370 527 c 128,-1,25
 354 504 354 504 354 474 c 0,26,27
 354 437 354 437 367 394 c 1,28,-1
 249 370 l 1,29,30
 213 423 213 423 188.5 492 c 128,-1,31
 164 561 164 561 164 610 c 0,32,33
 164 664 164 664 196.5 700.5 c 128,-1,34
 229 737 229 737 275.5 757 c 128,-1,35
 322 777 322 777 368.5 796 c 128,-1,36
 415 815 415 815 447.5 847 c 128,-1,37
 480 879 480 879 480 926 c 0,38,39
 480 976 480 976 438 1011 c 128,-1,40
 396 1046 396 1046 350 1046 c 0,41,42
 293 1046 293 1046 234.5 1026 c 128,-1,43
 176 1006 176 1006 150 978 c 1,44,45
 111 989 111 989 76.5 1038.5 c 128,-1,46
 42 1088 42 1088 42 1142 c 0,11,12
EndSplineSet
Colour: ffff
EndChar

StartChar: questiondown
Encoding: 191 191 168
Width: 697
VWidth: 0
Flags: HMW
LayerCount: 2
Fore
SplineSet
535 1148 m 0,0,1
 535 1093 535 1093 492 1053 c 128,-1,2
 449 1013 449 1013 369 1013 c 0,3,4
 285 1013 285 1013 241.5 1053 c 128,-1,5
 198 1093 198 1093 198 1148 c 0,6,7
 198 1210 198 1210 241 1249.5 c 128,-1,8
 284 1289 284 1289 369 1289 c 128,-1,9
 454 1289 454 1289 494.5 1248.5 c 128,-1,10
 535 1208 535 1208 535 1148 c 0,0,1
633 116 m 0,11,12
 633 56 633 56 583 12.5 c 128,-1,13
 533 -31 533 -31 420 -31 c 0,14,15
 329 -31 329 -31 239 33 c 128,-1,16
 149 97 149 97 91 204 c 128,-1,17
 33 311 33 311 33 425 c 0,18,19
 33 478 33 478 49 518.5 c 128,-1,20
 65 559 65 559 90.5 584 c 128,-1,21
 116 609 116 609 146.5 628 c 128,-1,22
 177 647 177 647 207.5 662 c 128,-1,23
 238 677 238 677 263.5 692.5 c 128,-1,24
 289 708 289 708 305 731 c 128,-1,25
 321 754 321 754 321 784 c 0,26,27
 321 821 321 821 308 864 c 1,28,-1
 426 888 l 1,29,30
 462 835 462 835 486.5 766 c 128,-1,31
 511 697 511 697 511 648 c 0,32,33
 511 594 511 594 478.5 557.5 c 128,-1,34
 446 521 446 521 399.5 501 c 128,-1,35
 353 481 353 481 306.5 462 c 128,-1,36
 260 443 260 443 227.5 411 c 128,-1,37
 195 379 195 379 195 332 c 0,38,39
 195 282 195 282 237 247 c 128,-1,40
 279 212 279 212 325 212 c 0,41,42
 382 212 382 212 440.5 232 c 128,-1,43
 499 252 499 252 525 280 c 1,44,45
 564 269 564 269 598.5 219.5 c 128,-1,46
 633 170 633 170 633 116 c 0,11,12
EndSplineSet
Colour: ffff
EndChar

StartChar: quotedbl
Encoding: 34 34 169
Width: 633
VWidth: 0
Flags: HMW
LayerCount: 2
Fore
SplineSet
83 1282 m 1,0,-1
 330 1262 l 1,1,-1
 282 892 l 1,2,-1
 148 873 l 1,3,-1
 83 1282 l 1,0,-1
358 1282 m 1,4,-1
 605 1262 l 1,5,-1
 557 892 l 1,6,-1
 423 873 l 1,7,-1
 358 1282 l 1,4,-1
EndSplineSet
Colour: ffff
EndChar

StartChar: quotesinglbase
Encoding: 8218 8218 170
Width: 498
VWidth: 0
Flags: HMW
LayerCount: 2
Fore
SplineSet
91 -252 m 1,0,1
 178 -227 178 -227 221 -177.5 c 128,-1,2
 264 -128 264 -128 264 -75 c 0,3,4
 264 -33 264 -33 235.5 -5 c 128,-1,5
 207 23 207 23 163 23 c 0,6,7
 141 23 141 23 121 16 c 1,8,9
 98 62 98 62 98 96 c 0,10,11
 98 167 98 167 145.5 207.5 c 128,-1,12
 193 248 193 248 260 248 c 0,13,14
 355 248 355 248 412 185.5 c 128,-1,15
 469 123 469 123 469 11 c 0,16,17
 469 -41 469 -41 452 -92 c 128,-1,18
 435 -143 435 -143 398 -194 c 128,-1,19
 361 -245 361 -245 290.5 -285.5 c 128,-1,20
 220 -326 220 -326 124 -345 c 1,21,-1
 91 -252 l 1,0,1
EndSplineSet
Colour: ffff
EndChar

StartChar: quotesingle
Encoding: 39 39 171
Width: 357
VWidth: 0
Flags: HMW
LayerCount: 2
Fore
SplineSet
54 1302 m 1,0,-1
 301 1282 l 1,1,-1
 253 912 l 1,2,-1
 119 893 l 1,3,-1
 54 1302 l 1,0,-1
EndSplineSet
Colour: ffff
EndChar

StartChar: r
Encoding: 114 114 172
Width: 813
VWidth: 0
Flags: HMW
LayerCount: 2
Back
SplineSet
351.497 422.358 m 1,0,1
 341.7 430.755 341.7 430.755 330.792 458.747 c 0
 319.883 486.74 319.883 486.74 309.964 509.327 c 0
 300.045 531.914 300.045 531.914 290.639 531.914 c 0,2,3
 280.73 531.914 280.73 531.914 290.53 537.885 c 0
 302.996 545.482 302.996 545.482 306.222 541.609 c 0
 308.137 539.311 308.137 539.311 301.598 531.682 c 0,4,5
 294.35 523.226 294.35 523.226 286.813 545.716 c 0
 281.594 561.289 281.594 561.289 273.228 605.639 c 0
 266.036 643.765 266.036 643.765 263.545 643.638 c 0
 262.212 643.57 262.212 643.57 261.225 636.768 c 1,6,-1
 190.225 436.069 l 1,7,-1
 348.652 499.365 l 1,8,-1
 543.941 459 l 1,9,-1
 217.187 439.5 l 1,10,-1
 212.934 435.083 l 1,11,-1
 315.672 456.928 l 1,12,13
 330.695 472.604 330.695 472.604 349.76 549.275 c 0
 368.825 625.946 368.825 625.946 384.225 707.265 c 0
 399.625 788.585 399.625 788.585 420.507 854.706 c 0
 441.39 920.828 441.39 920.828 460.396 920.828 c 0,14,15
 479.446 920.828 479.446 920.828 487.331 919.354 c 0
 495.215 917.879 495.215 917.879 498.184 914.706 c 0
 501.154 911.534 501.154 911.534 498.436 902.666 c 0
 495.719 893.798 495.719 893.798 492.281 883.031 c 0
 488.843 872.263 488.843 872.263 485.283 851.312 c 0
 481.723 830.361 481.723 830.361 481.723 807.04 c 1,16,-1
 490.004 648.66 l 1,17,-1
 743.091 640.47 l 1,18,-1
 744.014 543.48 l 1,19,-1
 515.662 398.548 l 1,20,-1
 528.084 477.048 l 2,21,22
 529.052 480.36 529.052 480.36 531.027 487.19 c 0
 566.98 611.27 566.98 611.27 592.266 638.825 c 0,23,24
 602.756 650.256 602.756 650.256 618.194 687.457 c 0
 633.632 724.658 633.632 724.658 648.234 753.736 c 0
 662.835 782.815 662.835 782.815 675.082 782.815 c 1,25,26
 699.832 852.565 699.832 852.565 691.331 852.97 c 0
 688.597 853.1 688.597 853.1 682.583 848.114 c 1,27,28
 666.972 824.454 666.972 824.454 638.651 772.892 c 1,29,30
 638.651 611.392 l 2,31,32
 638.651 602.104 638.651 602.104 648.26 597.57 c 0
 657.87 593.036 657.87 593.036 669.401 592.507 c 0
 680.932 591.978 680.932 591.978 690.542 589.112 c 0
 700.151 586.247 700.151 586.247 700.151 579.892 c 0,33,34
 700.151 565.054 700.151 565.054 693.151 535.286 c 0
 686.151 505.518 686.151 505.518 686.151 496.892 c 0,35,36
 686.151 485.068 686.151 485.068 610.064 471.259 c 0
 533.977 457.45 533.977 457.45 449.207 444.31 c 0
 364.438 431.169 364.438 431.169 351.497 422.358 c 1,0,1
EndSplineSet
Fore
SplineSet
48 1 m 1,0,-1
 64 118 l 1,1,-1
 214 172 l 1,2,-1
 214 686 l 1,3,-1
 62 749 l 1,4,-1
 82 871 l 1,5,-1
 408 904 l 1,6,-1
 439 872 l 1,7,-1
 420 687 l 1,8,-1
 439 682 l 1,9,10
 476 801 476 801 540.5 859.5 c 128,-1,11
 605 918 605 918 680 918 c 0,12,13
 745 918 745 918 783.5 879 c 128,-1,14
 822 840 822 840 822 782 c 0,15,16
 822 686 822 686 731 610 c 1,17,18
 662 654 662 654 605 654 c 0,19,20
 550 654 550 654 509.5 606 c 128,-1,21
 469 558 469 558 452 482 c 1,22,-1
 452 186 l 1,23,-1
 688 138 l 1,24,-1
 676 1 l 1,25,-1
 48 1 l 1,0,-1
EndSplineSet
Colour: ffff
EndChar

StartChar: registered
Encoding: 174 174 173
Width: 1147
VWidth: 0
Flags: HMW
LayerCount: 2
Fore
SplineSet
158 1036 m 0,0,1
 158 845 158 845 270 735.5 c 128,-1,2
 382 626 382 626 562 626 c 0,3,4
 751 626 751 626 868.5 734 c 128,-1,5
 986 842 986 842 986 1016 c 0,6,7
 986 1209 986 1209 866 1322.5 c 128,-1,8
 746 1436 746 1436 564 1436 c 0,9,10
 374 1436 374 1436 266 1333 c 128,-1,11
 158 1230 158 1230 158 1036 c 0,0,1
45 1022 m 0,12,13
 45 1147 45 1147 88 1246 c 128,-1,14
 131 1345 131 1345 204.5 1406.5 c 128,-1,15
 278 1468 278 1468 369.5 1500 c 128,-1,16
 461 1532 461 1532 564 1532 c 0,17,18
 670 1532 670 1532 764.5 1501.5 c 128,-1,19
 859 1471 859 1471 934.5 1411.5 c 128,-1,20
 1010 1352 1010 1352 1054.5 1252.5 c 128,-1,21
 1099 1153 1099 1153 1099 1026 c 0,22,23
 1099 906 1099 906 1054 810 c 128,-1,24
 1009 714 1009 714 932 654 c 128,-1,25
 855 594 855 594 758.5 562 c 128,-1,26
 662 530 662 530 554 530 c 0,27,28
 454 530 454 530 363.5 561.5 c 128,-1,29
 273 593 273 593 201.5 652.5 c 128,-1,30
 130 712 130 712 87.5 807.5 c 128,-1,31
 45 903 45 903 45 1022 c 0,12,13
510 1071 m 1,32,-1
 579 1071 l 1,33,34
 636 1099 636 1099 636 1165 c 0,35,36
 636 1210 636 1210 609.5 1237 c 128,-1,37
 583 1264 583 1264 533 1264 c 0,38,39
 527 1264 527 1264 519 1263.5 c 128,-1,40
 511 1263 511 1263 510 1263 c 1,41,-1
 510 1071 l 1,32,-1
268 775 m 1,42,-1
 275 830 l 1,43,-1
 353 862 l 1,44,-1
 353 1235 l 1,45,-1
 274 1254 l 1,46,-1
 280 1317 l 1,47,48
 423 1339 423 1339 546 1339 c 0,49,50
 674 1339 674 1339 739.5 1304 c 128,-1,51
 805 1269 805 1269 805 1187 c 0,52,53
 805 1134 805 1134 766.5 1092.5 c 128,-1,54
 728 1051 728 1051 679 1034 c 1,55,-1
 678 1033 l 1,56,-1
 737 956 l 1,57,58
 790 884 790 884 873 841 c 2,59,-1
 890 832 l 1,60,-1
 877 775 l 1,61,62
 839 763 839 763 788 763 c 0,63,64
 651 763 651 763 586 918 c 1,65,-1
 555 990 l 1,66,-1
 510 990 l 1,67,-1
 510 866 l 1,68,-1
 574 836 l 1,69,-1
 569 775 l 1,70,-1
 268 775 l 1,42,-1
EndSplineSet
Colour: ffff
EndChar

StartChar: ring
Encoding: 730 730 174
Width: 589
VWidth: 0
Flags: HMW
LayerCount: 2
Fore
SplineSet
243 1572 m 0,0,1
 243 1554 243 1554 247.5 1542.5 c 128,-1,2
 252 1531 252 1531 261.5 1527 c 128,-1,3
 271 1523 271 1523 277 1522 c 128,-1,4
 283 1521 283 1521 293 1521 c 0,5,6
 341 1524 341 1524 343 1573 c 1,7,8
 343 1622 343 1622 287 1622 c 0,9,10
 279 1622 279 1622 270.5 1619.5 c 128,-1,11
 262 1617 262 1617 252.5 1604.5 c 128,-1,12
 243 1592 243 1592 243 1572 c 0,0,1
77 1566 m 0,13,14
 77 1638 77 1638 135 1684 c 128,-1,15
 193 1730 193 1730 298 1730 c 0,16,17
 406 1730 406 1730 459.5 1690 c 128,-1,18
 513 1650 513 1650 513 1575 c 0,19,20
 513 1504 513 1504 455 1458.5 c 128,-1,21
 397 1413 397 1413 285 1413 c 0,22,23
 77 1413 77 1413 77 1566 c 0,13,14
EndSplineSet
Colour: ffff
EndChar

StartChar: s
Encoding: 115 115 175
Width: 784
VWidth: 0
Flags: HMW
LayerCount: 2
Fore
SplineSet
52 154 m 0,0,1
 52 216 52 216 95 255 c 128,-1,2
 138 294 138 294 214 300 c 1,3,4
 243 199 243 199 292 146.5 c 128,-1,5
 341 94 341 94 400 94 c 0,6,7
 521 94 521 94 521 176 c 0,8,9
 521 207 521 207 488.5 237 c 128,-1,10
 456 267 456 267 407 290.5 c 128,-1,11
 358 314 358 314 301 347 c 128,-1,12
 244 380 244 380 195 415.5 c 128,-1,13
 146 451 146 451 113.5 506.5 c 128,-1,14
 81 562 81 562 81 629 c 0,15,16
 81 675 81 675 100.5 723.5 c 128,-1,17
 120 772 120 772 159 818.5 c 128,-1,18
 198 865 198 865 268.5 894.5 c 128,-1,19
 339 924 339 924 429 924 c 0,20,21
 558 924 558 924 637.5 880 c 128,-1,22
 717 836 717 836 717 754 c 0,23,24
 717 691 717 691 670 648.5 c 128,-1,25
 623 606 623 606 552 600 c 1,26,-1
 532 664 l 1,27,28
 495 808 495 808 381 808 c 0,29,30
 336 808 336 808 309.5 781 c 128,-1,31
 283 754 283 754 283 714 c 0,32,33
 283 678 283 678 317 645.5 c 128,-1,34
 351 613 351 613 402 588 c 128,-1,35
 453 563 453 563 512 529.5 c 128,-1,36
 571 496 571 496 622 460.5 c 128,-1,37
 673 425 673 425 707 369 c 128,-1,38
 741 313 741 313 741 246 c 0,39,40
 741 119 741 119 633.5 42 c 128,-1,41
 526 -35 526 -35 371 -35 c 0,42,43
 240 -35 240 -35 146 19.5 c 128,-1,44
 52 74 52 74 52 154 c 0,0,1
EndSplineSet
Colour: ffff
EndChar

StartChar: section
Encoding: 167 167 176
Width: 963
VWidth: 0
Flags: HMW
LayerCount: 2
Fore
SplineSet
69 912 m 0,0,1
 69 1005 69 1005 102.5 1075 c 128,-1,2
 136 1145 136 1145 196 1186 c 128,-1,3
 256 1227 256 1227 331.5 1247.5 c 128,-1,4
 407 1268 407 1268 497 1268 c 0,5,6
 591 1268 591 1268 674.5 1244 c 128,-1,7
 758 1220 758 1220 811 1178 c 1,8,-1
 793 893 l 1,9,-1
 658 910 l 1,10,-1
 621 1079 l 1,11,12
 599 1105 599 1105 553 1128 c 128,-1,13
 507 1151 507 1151 460 1151 c 0,14,15
 395 1151 395 1151 354 1112.5 c 128,-1,16
 313 1074 313 1074 313 995 c 0,17,18
 313 948 313 948 343.5 909 c 128,-1,19
 374 870 374 870 423 844 c 128,-1,20
 472 818 472 818 533 790 c 128,-1,21
 594 762 594 762 655 736 c 128,-1,22
 716 710 716 710 770.5 671.5 c 128,-1,23
 825 633 825 633 860.5 586 c 128,-1,24
 896 539 896 539 907 469 c 128,-1,25
 918 399 918 399 891 310 c 1,26,-1
 428 536 l 2,27,28
 376 561 376 561 346 576.5 c 128,-1,29
 316 592 316 592 272.5 617 c 128,-1,30
 229 642 229 642 204 661.5 c 128,-1,31
 179 681 179 681 150 710 c 128,-1,32
 121 739 121 739 105.5 767.5 c 128,-1,33
 90 796 90 796 79.5 833.5 c 128,-1,34
 69 871 69 871 69 912 c 0,0,1
50 -234 m 1,35,-1
 67 56 l 1,36,-1
 212 31 l 1,37,-1
 254 -164 l 1,38,39
 277 -195 277 -195 334.5 -220.5 c 128,-1,40
 392 -246 392 -246 454 -246 c 0,41,42
 532 -246 532 -246 588.5 -204 c 128,-1,43
 645 -162 645 -162 645 -76 c 0,44,45
 645 -26 645 -26 607.5 16 c 128,-1,46
 570 58 570 58 512 86.5 c 128,-1,47
 454 115 454 115 384 149 c 128,-1,48
 314 183 314 183 250 218 c 128,-1,49
 186 253 186 253 136 308 c 128,-1,50
 86 363 86 363 67.5 434 c 128,-1,51
 49 505 49 505 71 610 c 1,52,-1
 444 424 l 2,53,54
 473 410 473 410 519.5 388.5 c 128,-1,55
 566 367 566 367 591.5 355 c 128,-1,56
 617 343 617 343 656 323 c 128,-1,57
 695 303 695 303 717 289.5 c 128,-1,58
 739 276 739 276 769 255.5 c 128,-1,59
 799 235 799 235 815.5 217 c 128,-1,60
 832 199 832 199 851 174.5 c 128,-1,61
 870 150 870 150 879 125 c 128,-1,62
 888 100 888 100 894.5 69 c 128,-1,63
 901 38 901 38 901 3 c 0,64,65
 901 -75 901 -75 870.5 -141.5 c 128,-1,66
 840 -208 840 -208 790.5 -252.5 c 128,-1,67
 741 -297 741 -297 677 -328.5 c 128,-1,68
 613 -360 613 -360 547 -374 c 128,-1,69
 481 -388 481 -388 417 -388 c 0,70,71
 312 -388 312 -388 206 -342 c 128,-1,72
 100 -296 100 -296 50 -234 c 1,35,-1
EndSplineSet
Colour: ffff
EndChar

StartChar: semicolon
Encoding: 59 59 177
Width: 449
VWidth: 0
Flags: HMW
LayerCount: 2
Fore
SplineSet
84 -103 m 1,0,1
 162 -80 162 -80 201 -36 c 128,-1,2
 240 8 240 8 240 56 c 0,3,4
 240 94 240 94 214 119.5 c 128,-1,5
 188 145 188 145 149 145 c 0,6,7
 129 145 129 145 111 138 c 1,8,9
 90 179 90 179 90 210 c 0,10,11
 90 274 90 274 133 310.5 c 128,-1,12
 176 347 176 347 236 347 c 0,13,14
 322 347 322 347 373 291 c 128,-1,15
 424 235 424 235 424 134 c 0,16,17
 424 97 424 97 415.5 61 c 128,-1,18
 407 25 407 25 384.5 -14.5 c 128,-1,19
 362 -54 362 -54 328 -86 c 128,-1,20
 294 -118 294 -118 239 -145 c 128,-1,21
 184 -172 184 -172 114 -186 c 1,22,-1
 84 -103 l 1,0,1
84 755 m 0,23,24
 84 803 84 803 122 838.5 c 128,-1,25
 160 874 160 874 232 874 c 0,26,27
 307 874 307 874 346 838.5 c 128,-1,28
 385 803 385 803 385 755 c 0,29,30
 385 700 385 700 346 665.5 c 128,-1,31
 307 631 307 631 231.5 631 c 128,-1,32
 156 631 156 631 120 666.5 c 128,-1,33
 84 702 84 702 84 755 c 0,23,24
EndSplineSet
Colour: ffff
EndChar

StartChar: seven
Encoding: 55 55 178
Width: 949
VWidth: 0
Flags: HMW
LayerCount: 2
Fore
SplineSet
48 746 m 1,0,-1
 67 1183 l 1,1,-1
 904 1183 l 1,2,-1
 904 1094 l 1,3,-1
 460 -33 l 1,4,-1
 158 -2 l 1,5,-1
 677 952 l 1,6,-1
 237 952 l 1,7,-1
 149 726 l 1,8,-1
 48 746 l 1,0,-1
EndSplineSet
Substitution2: "'onum' Oldstyle Figures lookup 1-1" seven.osf
Colour: ffff
EndChar

StartChar: seven.osf
Encoding: 65541 -1 179
Width: 853
VWidth: 0
Flags: HMW
LayerCount: 2
Fore
SplineSet
47 592 m 1,0,-1
 93 969 l 1,1,-1
 801 969 l 1,2,-1
 807 834 l 1,3,4
 719 693 719 693 665.5 602 c 128,-1,5
 612 511 612 511 549 389.5 c 128,-1,6
 486 268 486 268 449 169.5 c 128,-1,7
 412 71 412 71 381.5 -49.5 c 128,-1,8
 351 -170 351 -170 339 -294 c 1,9,10
 276 -305 276 -305 266 -305 c 0,11,12
 184 -305 184 -305 135 -265 c 128,-1,13
 86 -225 86 -225 86 -158 c 0,14,15
 86 -100 86 -100 152.5 28 c 128,-1,16
 219 156 219 156 294.5 270 c 128,-1,17
 370 384 370 384 478 541.5 c 128,-1,18
 586 699 586 699 617 748 c 1,19,-1
 213 748 l 1,20,-1
 149 574 l 1,21,-1
 47 592 l 1,0,-1
EndSplineSet
Colour: ffff
EndChar

StartChar: six
Encoding: 54 54 180
Width: 970
VWidth: 0
Flags: HMW
LayerCount: 2
Fore
SplineSet
340 386 m 0,0,1
 340 311 340 311 354 247 c 128,-1,2
 368 183 368 183 401.5 137.5 c 128,-1,3
 435 92 435 92 484 92 c 0,4,5
 633 92 633 92 633 329 c 0,6,7
 633 371 633 371 627.5 409.5 c 128,-1,8
 622 448 622 448 608 489.5 c 128,-1,9
 594 531 594 531 563.5 555.5 c 128,-1,10
 533 580 533 580 489 580 c 0,11,12
 444 580 444 580 405.5 560.5 c 128,-1,13
 367 541 367 541 347 514 c 1,14,15
 340 409 340 409 340 386 c 0,0,1
53 420 m 0,16,17
 53 534 53 534 94.5 645.5 c 128,-1,18
 136 757 136 757 205 846.5 c 128,-1,19
 274 936 274 936 362.5 1011 c 128,-1,20
 451 1086 451 1086 545 1137 c 128,-1,21
 639 1188 639 1188 731 1214 c 1,22,-1
 783 1140 l 1,23,24
 618 1059 618 1059 499.5 921 c 128,-1,25
 381 783 381 783 351 636 c 1,26,-1
 367 636 l 1,27,28
 453 732 453 732 591 732 c 0,29,30
 735 732 735 732 827 638 c 128,-1,31
 919 544 919 544 919 386 c 0,32,33
 919 289 919 289 880.5 210 c 128,-1,34
 842 131 842 131 779 82 c 128,-1,35
 716 33 716 33 638.5 6.5 c 128,-1,36
 561 -20 561 -20 478 -20 c 0,37,38
 373 -20 373 -20 290.5 15.5 c 128,-1,39
 208 51 208 51 157 112.5 c 128,-1,40
 106 174 106 174 79.5 252.5 c 128,-1,41
 53 331 53 331 53 420 c 0,16,17
EndSplineSet
Substitution2: "'onum' Oldstyle Figures lookup 1-1" six.osf
Colour: ffff
EndChar

StartChar: six.osf
Encoding: 65542 -1 181
Width: 937
VWidth: 0
Flags: HMW
LayerCount: 2
Fore
SplineSet
337 386 m 0,0,1
 337 310 337 310 349.5 246.5 c 128,-1,2
 362 183 362 183 394 137.5 c 128,-1,3
 426 92 426 92 473 92 c 0,4,5
 532 92 532 92 570.5 156.5 c 128,-1,6
 609 221 609 221 609 329 c 0,7,8
 609 365 609 365 607.5 393 c 128,-1,9
 606 421 606 421 598 459.5 c 128,-1,10
 590 498 590 498 577 523 c 128,-1,11
 564 548 564 548 538 566 c 128,-1,12
 512 584 512 584 477 584 c 0,13,14
 393 584 393 584 343 517 c 1,15,16
 337 427 337 427 337 386 c 0,0,1
53 420 m 0,17,18
 53 563 53 563 110.5 704 c 128,-1,19
 168 845 168 845 260.5 953 c 128,-1,20
 353 1061 353 1061 466.5 1140.5 c 128,-1,21
 580 1220 580 1220 693 1252 c 1,22,-1
 745 1178 l 1,23,24
 640 1126 640 1126 554.5 1034.5 c 128,-1,25
 469 943 469 943 419.5 843 c 128,-1,26
 370 743 370 743 349 641 c 1,27,-1
 363 641 l 1,28,29
 450 739 450 739 581 739 c 0,30,31
 715 739 715 739 800.5 642 c 128,-1,32
 886 545 886 545 886 396 c 0,33,34
 886 272 886 272 822.5 174.5 c 128,-1,35
 759 77 759 77 663 28.5 c 128,-1,36
 567 -20 567 -20 461 -20 c 0,37,38
 359 -20 359 -20 279.5 15.5 c 128,-1,39
 200 51 200 51 151.5 112.5 c 128,-1,40
 103 174 103 174 78 252 c 128,-1,41
 53 330 53 330 53 420 c 0,17,18
EndSplineSet
Colour: ffff
EndChar

StartChar: slash
Encoding: 47 47 182
Width: 720
VWidth: 0
Flags: HMW
LayerCount: 2
Fore
SplineSet
37 -368 m 1,0,-1
 499 1230 l 1,1,-1
 680 1244 l 1,2,-1
 214 -356 l 1,3,-1
 37 -368 l 1,0,-1
EndSplineSet
Colour: ffff
EndChar

StartChar: softhyphen
Encoding: 173 173 183
Width: 587
VWidth: 0
Flags: HMW
LayerCount: 2
Fore
SplineSet
61 377 m 1,0,-1
 67 546 l 1,1,-1
 525 604 l 1,2,-1
 518 435 l 1,3,-1
 61 377 l 1,0,-1
EndSplineSet
Colour: ffff
EndChar

StartChar: sterling
Encoding: 163 163 185
Width: 1206
VWidth: 0
Flags: HMW
LayerCount: 2
Fore
SplineSet
43 0 m 1,0,-1
 51 106 l 1,1,-1
 217 169 l 1,2,3
 242 241 242 241 250.5 295 c 128,-1,4
 259 349 259 349 261 460 c 1,5,-1
 263 525 l 1,6,-1
 79 512 l 1,7,-1
 93 655 l 1,8,-1
 265 664 l 1,9,-1
 268 766 l 2,10,11
 272 887 272 887 316 982 c 128,-1,12
 360 1077 360 1077 433 1134.5 c 128,-1,13
 506 1192 506 1192 597 1222 c 128,-1,14
 688 1252 688 1252 791 1252 c 0,15,16
 939 1252 939 1252 1050 1208 c 1,17,-1
 1014 837 l 1,18,-1
 891 854 l 1,19,-1
 831 1068 l 1,20,21
 780 1092 780 1092 713 1092 c 0,22,23
 614 1092 614 1092 578.5 1011 c 128,-1,24
 543 930 543 930 541 704 c 1,25,-1
 541 670 l 1,26,-1
 791 685 l 1,27,-1
 781 544 l 1,28,-1
 537 531 l 1,29,-1
 535 499 l 2,30,31
 534 487 534 487 532.5 449 c 128,-1,32
 531 411 531 411 530 395.5 c 128,-1,33
 529 380 529 380 526.5 347 c 128,-1,34
 524 314 524 314 520 295 c 128,-1,35
 516 276 516 276 510 250 c 128,-1,36
 504 224 504 224 495 203.5 c 128,-1,37
 486 183 486 183 475 165 c 1,38,-1
 864 138 l 1,39,-1
 1029 395 l 1,40,-1
 1160 369 l 1,41,-1
 1114 0 l 1,42,-1
 43 0 l 1,0,-1
EndSplineSet
Colour: ffff
EndChar

StartChar: t
Encoding: 116 116 186
Width: 743
VWidth: 0
Flags: HMW
LayerCount: 2
Fore
SplineSet
41 723 m 1,0,-1
 41 824 l 1,1,2
 183 921 183 921 296 1082 c 1,3,-1
 404 1082 l 1,4,-1
 404 862 l 1,5,-1
 682 862 l 1,6,-1
 672 720 l 1,7,-1
 401 720 l 1,8,-1
 399 336 l 2,9,10
 399 249 399 249 432.5 212 c 128,-1,11
 466 175 466 175 547 175 c 0,12,13
 576 175 576 175 608 185.5 c 128,-1,14
 640 196 640 196 658 206 c 2,15,-1
 675 217 l 1,16,-1
 700 124 l 1,17,18
 655 61 655 61 578.5 19 c 128,-1,19
 502 -23 502 -23 403 -23 c 0,20,21
 269 -23 269 -23 209.5 44 c 128,-1,22
 150 111 150 111 151 278 c 2,23,-1
 154 723 l 1,24,-1
 41 723 l 1,0,-1
EndSplineSet
Colour: ffff
EndChar

StartChar: thorn
Encoding: 254 254 187
Width: 1085
VWidth: 0
Flags: HMW
LayerCount: 2
Fore
SplineSet
40 -368 m 1,0,-1
 53 -250 l 1,1,-1
 207 -196 l 1,2,-1
 206 1044 l 1,3,-1
 44 1122 l 1,4,-1
 62 1242 l 1,5,-1
 404 1266 l 1,6,-1
 446 1227 l 1,7,-1
 446 882 l 1,8,-1
 431 760 l 1,9,-1
 444 757 l 1,10,11
 572 918 572 918 718 918 c 0,12,13
 855 918 855 918 947.5 805.5 c 128,-1,14
 1040 693 1040 693 1040 480 c 0,15,16
 1040 251 1040 251 910.5 117.5 c 128,-1,17
 781 -16 781 -16 584 -16 c 0,18,19
 494 -16 494 -16 456 0 c 1,20,-1
 454 164 l 1,21,22
 609 112 609 112 696.5 178 c 128,-1,23
 784 244 784 244 784 398 c 0,24,25
 784 705 784 705 624 705 c 0,26,27
 538 705 538 705 444 628 c 1,28,-1
 444 -198 l 1,29,-1
 644 -248 l 1,30,-1
 627 -368 l 1,31,-1
 40 -368 l 1,0,-1
EndSplineSet
Colour: ffff
EndChar

StartChar: three
Encoding: 51 51 188
Width: 958
VWidth: 0
Flags: HMW
LayerCount: 2
Fore
SplineSet
47 42 m 1,0,-1
 111 414 l 1,1,-1
 243 398 l 1,2,-1
 263 150 l 1,3,4
 280 131 280 131 312.5 117.5 c 128,-1,5
 345 104 345 104 378 104 c 0,6,7
 473 104 473 104 533 157.5 c 128,-1,8
 593 211 593 211 593 307 c 0,9,10
 593 412 593 412 507.5 479.5 c 128,-1,11
 422 547 422 547 274 537 c 1,12,-1
 249 634 l 1,13,14
 380 664 380 664 470.5 732 c 128,-1,15
 561 800 561 800 561 898 c 0,16,17
 561 984 561 984 508.5 1037.5 c 128,-1,18
 456 1091 456 1091 373 1091 c 0,19,20
 321 1091 321 1091 279 1061 c 1,21,-1
 227 770 l 1,22,-1
 101 782 l 1,23,-1
 60 1104 l 1,24,25
 98 1143 98 1143 218.5 1180.5 c 128,-1,26
 339 1218 339 1218 445 1218 c 0,27,28
 536 1218 536 1218 610.5 1203.5 c 128,-1,29
 685 1189 685 1189 743.5 1159.5 c 128,-1,30
 802 1130 802 1130 834 1079.5 c 128,-1,31
 866 1029 866 1029 866 962 c 0,32,33
 866 905 866 905 834.5 853.5 c 128,-1,34
 803 802 803 802 751 765.5 c 128,-1,35
 699 729 699 729 650.5 704 c 128,-1,36
 602 679 602 679 549 661 c 1,37,-1
 549 646 l 1,38,39
 712 640 712 640 810 567 c 128,-1,40
 908 494 908 494 909 370 c 0,41,42
 910 262 910 262 836 172 c 128,-1,43
 762 82 762 82 629.5 29 c 128,-1,44
 497 -24 497 -24 335 -24 c 0,45,46
 250 -24 250 -24 172 -4.5 c 128,-1,47
 94 15 94 15 47 42 c 1,0,-1
EndSplineSet
Substitution2: "'onum' Oldstyle Figures lookup 1-1" three.osf
Colour: ffff
EndChar

StartChar: three.osf
Encoding: 65543 -1 189
Width: 867
VWidth: 0
Flags: HMW
LayerCount: 2
Fore
SplineSet
39 -126 m 0,0,1
 39 -72 39 -72 77.5 -21.5 c 128,-1,2
 116 29 116 29 190 43 c 1,3,4
 201 -2 201 -2 222.5 -50 c 128,-1,5
 244 -98 244 -98 285 -140.5 c 128,-1,6
 326 -183 326 -183 372 -183 c 0,7,8
 553 -183 553 -183 553 31 c 0,9,10
 553 95 553 95 522 153.5 c 128,-1,11
 491 212 491 212 425 251 c 128,-1,12
 359 290 359 290 271 286 c 1,13,-1
 253 372 l 1,14,15
 379 408 379 408 452.5 484.5 c 128,-1,16
 526 561 526 561 526 662 c 0,17,18
 526 726 526 726 493 769 c 128,-1,19
 460 812 460 812 401 812 c 0,20,21
 274 812 274 812 206 656 c 1,22,-1
 105 692 l 1,23,24
 143 809 143 809 262 898 c 128,-1,25
 381 987 381 987 507 987 c 0,26,27
 627 987 627 987 706 919.5 c 128,-1,28
 785 852 785 852 785 737 c 0,29,30
 785 683 785 683 755 628.5 c 128,-1,31
 725 574 725 574 680.5 534 c 128,-1,32
 636 494 636 494 597.5 467 c 128,-1,33
 559 440 559 440 529 426 c 1,34,-1
 529 408 l 1,35,36
 600 402 600 402 657 374 c 128,-1,37
 714 346 714 346 748.5 303.5 c 128,-1,38
 783 261 783 261 801 210 c 128,-1,39
 819 159 819 159 819 104 c 0,40,41
 819 3 819 3 753 -90.5 c 128,-1,42
 687 -184 687 -184 572 -243 c 128,-1,43
 457 -302 457 -302 327 -302 c 0,44,45
 194 -302 194 -302 116.5 -249.5 c 128,-1,46
 39 -197 39 -197 39 -126 c 0,0,1
EndSplineSet
Colour: ffff
EndChar

StartChar: threequarters
Encoding: 190 190 190
Width: 1640
VWidth: 0
Flags: HMW
LayerCount: 2
Fore
SplineSet
1076 274 m 1,0,-1
 1233 274 l 1,1,-1
 1233 474 l 1,2,-1
 1076 274 l 1,0,-1
921 282 m 1,3,-1
 1375 722 l 1,4,-1
 1459 704 l 1,5,6
 1449 576 1449 576 1449 428 c 2,7,-1
 1449 293 l 1,8,-1
 1597 293 l 1,9,-1
 1588 160 l 1,10,-1
 1449 160 l 1,11,-1
 1449 73 l 1,12,-1
 1559 50 l 1,13,-1
 1553 -30 l 1,14,-1
 1103 -30 l 1,15,-1
 1107 44 l 1,16,-1
 1225 74 l 1,17,-1
 1225 163 l 1,18,-1
 935 163 l 1,19,-1
 921 282 l 1,3,-1
257 12 m 1,20,-1
 739 588 l 1,21,-1
 1207 1208 l 1,22,-1
 1445 1206 l 1,23,-1
 1445 1154 l 1,24,-1
 973 591 l 1,25,-1
 541 -26 l 1,26,-1
 257 12 l 1,20,-1
49 532 m 1,27,-1
 87 770 l 1,28,-1
 203 762 l 1,29,-1
 213 634 l 1,30,31
 239 612 239 612 277 612 c 0,32,33
 327 612 327 612 358 640.5 c 128,-1,34
 389 669 389 669 389 718 c 0,35,36
 389 770 389 770 343.5 804.5 c 128,-1,37
 298 839 298 839 227 832 c 1,38,-1
 201 924 l 1,39,40
 268 938 268 938 317 971 c 128,-1,41
 366 1004 366 1004 366 1054 c 0,42,43
 366 1098 366 1098 340 1127.5 c 128,-1,44
 314 1157 314 1157 273 1157 c 0,45,46
 233 1157 233 1157 218 1146 c 1,47,-1
 190 992 l 1,48,-1
 79 998 l 1,49,-1
 54 1183 l 1,50,51
 80 1219 80 1219 165.5 1250.5 c 128,-1,52
 251 1282 251 1282 329 1282 c 0,53,54
 465 1282 465 1282 547 1243 c 128,-1,55
 629 1204 629 1204 629 1122 c 0,56,57
 629 1051 629 1051 565.5 1000 c 128,-1,58
 502 949 502 949 415 927 c 1,59,-1
 415 918 l 1,60,61
 547 916 547 916 606 872 c 128,-1,62
 665 828 665 828 667 743 c 0,63,64
 669 635 669 635 550 559.5 c 128,-1,65
 431 484 431 484 255 484 c 0,66,67
 113 484 113 484 49 532 c 1,27,-1
EndSplineSet
Colour: ffff
EndChar

StartChar: three.superior
Encoding: 179 179 191
Width: 724
VWidth: 0
Flags: HMW
LayerCount: 2
Fore
SplineSet
54 545 m 1,0,-1
 92 783 l 1,1,-1
 208 775 l 1,2,-1
 218 647 l 1,3,4
 244 625 244 625 282 625 c 0,5,6
 332 625 332 625 363 653.5 c 128,-1,7
 394 682 394 682 394 732 c 0,8,9
 394 784 394 784 348.5 818 c 128,-1,10
 303 852 303 852 232 845 c 1,11,-1
 206 937 l 1,12,13
 273 951 273 951 322 984.5 c 128,-1,14
 371 1018 371 1018 371 1068 c 0,15,16
 371 1112 371 1112 345 1141 c 128,-1,17
 319 1170 319 1170 278 1170 c 0,18,19
 238 1170 238 1170 223 1159 c 1,20,-1
 195 1006 l 1,21,-1
 84 1011 l 1,22,-1
 59 1196 l 1,23,24
 85 1233 85 1233 170.5 1264.5 c 128,-1,25
 256 1296 256 1296 334 1296 c 0,26,27
 470 1296 470 1296 552 1257 c 128,-1,28
 634 1218 634 1218 634 1136 c 0,29,30
 634 1065 634 1065 570.5 1013.5 c 128,-1,31
 507 962 507 962 420 940 c 1,32,-1
 420 932 l 1,33,34
 552 930 552 930 611 886 c 128,-1,35
 670 842 670 842 672 756 c 0,36,37
 674 648 674 648 555 572.5 c 128,-1,38
 436 497 436 497 260 497 c 0,39,40
 118 497 118 497 54 545 c 1,0,-1
EndSplineSet
Colour: ffff
EndChar

StartChar: tilde
Encoding: 732 732 192
Width: 706
VWidth: 0
Flags: HMW
LayerCount: 2
Fore
SplineSet
76 1349 m 1,0,1
 73 1368 73 1368 79 1397 c 128,-1,2
 85 1426 85 1426 100.5 1458.5 c 128,-1,3
 116 1491 116 1491 139 1517 c 128,-1,4
 162 1543 162 1543 199 1555 c 128,-1,5
 236 1567 236 1567 279 1557 c 2,6,-1
 485 1508 l 2,7,8
 501 1504 501 1504 516.5 1515.5 c 128,-1,9
 532 1527 532 1527 540 1541 c 2,10,-1
 548 1554 l 1,11,-1
 630 1548 l 1,12,13
 630 1522 630 1522 621 1492 c 128,-1,14
 612 1462 612 1462 593.5 1431 c 128,-1,15
 575 1400 575 1400 548 1377.5 c 128,-1,16
 521 1355 521 1355 485 1345 c 128,-1,17
 449 1335 449 1335 404 1346 c 2,18,-1
 217 1392 l 2,19,20
 198 1396 198 1396 183.5 1382 c 128,-1,21
 169 1368 169 1368 163 1352 c 2,22,-1
 158 1336 l 1,23,-1
 76 1349 l 1,0,1
EndSplineSet
Colour: ffff
EndChar

StartChar: two
Encoding: 50 50 193
Width: 983
VWidth: 0
Flags: HMW
LayerCount: 2
Back
SplineSet
783.847 0 m 1,0,-1
 86.6885 0 l 1,1,-1
 81.2134 93.076 l 1,2,-1
 296.565 280.141 l 2,3,4
 354.054 329.417 354.054 329.417 390.555 363.179 c 0,5,6
 427.055 396.943 427.055 396.943 474.962 448.956 c 0,7,8
 522.869 500.969 522.869 500.969 550.244 543.857 c 0,9,10
 577.619 586.744 577.619 586.744 597.695 641.038 c 0,11,12
 617.771 695.333 617.771 695.333 617.77 749.171 c 0,13,14
 617.77 980.035 617.77 980.035 430.705 979.127 c 0,15,16
 281.053 979.127 281.053 979.127 189.802 747.346 c 1,17,-1
 114.976 774.723 l 1,18,19
 128.663 833.122 128.663 833.122 161.971 891.067 c 0,20,21
 195.279 949.013 195.279 949.013 242.271 996.464 c 0,22,23
 289.267 1043.92 289.267 1043.92 353.142 1073.57 c 0,24,25
 417.017 1103.22 417.017 1103.22 485.456 1103.23 c 0,26,27
 632.369 1103.23 632.369 1103.23 708.109 1022.01 c 0,28,29
 783.847 940.801 783.847 940.801 783.847 789.322 c 0,30,31
 783.847 741.871 783.847 741.871 770.16 694.421 c 0,32,33
 756.471 646.97 756.471 646.97 736.396 606.82 c 0,34,35
 716.322 566.669 716.322 566.669 683.471 522.869 c 0,36,37
 650.613 479.061 650.613 479.061 620.507 446.675 c 0,38,39
 590.395 414.28 590.395 414.28 547.506 374.13 c 0,40,41
 504.619 333.978 504.619 333.978 474.962 309.341 c 0,42,43
 445.306 284.704 445.306 284.704 401.505 248.203 c 0,44,45
 357.704 211.702 357.704 211.702 337.63 194.365 c 2,46,-1
 254.591 122.277 l 1,47,-1
 684.383 122.277 l 1,48,-1
 771.984 284.703 l 1,49,-1
 834.948 275.578 l 1,50,-1
 783.847 0 l 1,0,-1
EndSplineSet
Fore
SplineSet
49 158 m 1,0,-1
 276 335 l 1,1,2
 567 567 567 567 567 778 c 0,3,4
 567 1049 567 1049 396 1049 c 0,5,6
 359 1049 359 1049 327.5 1031 c 128,-1,7
 296 1013 296 1013 279 986 c 1,8,-1
 227 666 l 1,9,-1
 109 685 l 1,10,-1
 70 1013 l 1,11,12
 133 1097 133 1097 267.5 1153.5 c 128,-1,13
 402 1210 402 1210 527 1210 c 0,14,15
 704 1210 704 1210 799 1117 c 128,-1,16
 894 1024 894 1024 894 878 c 0,17,18
 894 793 894 793 860.5 709.5 c 128,-1,19
 827 626 827 626 780.5 563.5 c 128,-1,20
 734 501 734 501 662.5 435.5 c 128,-1,21
 591 370 591 370 539 331.5 c 128,-1,22
 487 293 487 293 419 248 c 2,23,-1
 347 200 l 1,24,-1
 712 200 l 1,25,-1
 820 410 l 1,26,-1
 935 396 l 1,27,-1
 886 0 l 1,28,-1
 55 0 l 1,29,-1
 49 158 l 1,0,-1
EndSplineSet
Substitution2: "'onum' Oldstyle Figures lookup 1-1" two.osf
Colour: ffff
EndChar

StartChar: two.osf
Encoding: 65544 -1 194
Width: 883
VWidth: 0
Flags: HMW
LayerCount: 2
Fore
SplineSet
47 136 m 1,0,-1
 301 321 l 1,1,2
 500 468 500 468 500 649 c 0,3,4
 500 736 500 736 457.5 787 c 128,-1,5
 415 838 415 838 344 838 c 0,6,7
 284 838 284 838 232.5 784.5 c 128,-1,8
 181 731 181 731 159 654 c 1,9,-1
 65 692 l 1,10,11
 70 727 70 727 89 768.5 c 128,-1,12
 108 810 108 810 143 853.5 c 128,-1,13
 178 897 178 897 223.5 932 c 128,-1,14
 269 967 269 967 333.5 990 c 128,-1,15
 398 1013 398 1013 469 1014 c 0,16,17
 546 1015 546 1015 606.5 988 c 128,-1,18
 667 961 667 961 701.5 916 c 128,-1,19
 736 871 736 871 753.5 820 c 128,-1,20
 771 769 771 769 771 715 c 0,21,22
 771 596 771 596 677 478 c 128,-1,23
 583 360 583 360 435 258 c 1,24,-1
 313 178 l 1,25,-1
 639 178 l 1,26,-1
 736 338 l 1,27,-1
 839 327 l 1,28,-1
 785 0 l 1,29,-1
 60 0 l 1,30,-1
 47 136 l 1,0,-1
EndSplineSet
Colour: ffff
EndChar

StartChar: two.superior
Encoding: 178 178 195
Width: 725
VWidth: 0
Flags: HMW
LayerCount: 2
Fore
SplineSet
53 672 m 1,0,-1
 189 775 l 2,1,2
 279 843 279 843 328 908.5 c 128,-1,3
 377 974 377 974 377 1024 c 0,4,5
 377 1129 377 1129 287 1129 c 0,6,7
 241 1129 241 1129 211 1095 c 1,8,-1
 181 944 l 1,9,-1
 92 952 l 1,10,-1
 63 1150 l 1,11,12
 106 1203 106 1203 191.5 1234.5 c 128,-1,13
 277 1266 277 1266 371 1266 c 0,14,15
 501 1266 501 1266 571 1211.5 c 128,-1,16
 641 1157 641 1157 641 1078 c 0,17,18
 641 1023 641 1023 615 972.5 c 128,-1,19
 589 922 589 922 541.5 878.5 c 128,-1,20
 494 835 494 835 447.5 803.5 c 128,-1,21
 401 772 401 772 340 738 c 1,22,-1
 267 700 l 1,23,-1
 502 690 l 1,24,-1
 585 826 l 1,25,-1
 669 813 l 1,26,-1
 643 530 l 1,27,-1
 57 530 l 1,28,-1
 53 672 l 1,0,-1
EndSplineSet
Colour: ffff
EndChar

StartChar: u
Encoding: 117 117 196
Width: 1102
VWidth: 0
Flags: HMW
LayerCount: 2
Fore
SplineSet
41 750 m 1,0,-1
 65 882 l 1,1,-1
 381 903 l 1,2,-1
 421 864 l 1,3,-1
 421 393 l 2,4,5
 421 291 421 291 450.5 248 c 128,-1,6
 480 205 480 205 539 205 c 0,7,8
 587 205 587 205 621 220.5 c 128,-1,9
 655 236 655 236 689 268 c 1,10,-1
 689 663 l 1,11,-1
 551 722 l 1,12,-1
 573 872 l 1,13,-1
 899 907 l 1,14,-1
 936 868 l 1,15,-1
 936 294 l 2,16,17
 936 222 936 222 962 194 c 128,-1,18
 988 166 988 166 1059 146 c 2,19,-1
 1095 136 l 1,20,-1
 1079 10 l 1,21,22
 973 -29 973 -29 880 -29 c 0,23,24
 800 -29 800 -29 754 9 c 128,-1,25
 708 47 708 47 708 118 c 2,26,-1
 708 130 l 1,27,-1
 695 132 l 1,28,29
 647 55 647 55 573.5 14 c 128,-1,30
 500 -27 500 -27 417 -27 c 0,31,32
 289 -27 289 -27 230.5 41.5 c 128,-1,33
 172 110 172 110 172 267 c 2,34,-1
 172 670 l 1,35,-1
 41 750 l 1,0,-1
EndSplineSet
Colour: ffff
EndChar

StartChar: uacute
Encoding: 250 250 197
Width: 1102
VWidth: 0
Flags: HMW
LayerCount: 2
Fore
SplineSet
357 1076 m 1,0,-1
 471 1390 l 1,1,-1
 693 1362 l 1,2,-1
 511 1049 l 1,3,-1
 357 1076 l 1,0,-1
41 750 m 1,4,-1
 65 882 l 1,5,-1
 381 903 l 1,6,-1
 421 864 l 1,7,-1
 421 393 l 2,8,9
 421 291 421 291 450.5 248 c 128,-1,10
 480 205 480 205 539 205 c 0,11,12
 587 205 587 205 621 220.5 c 128,-1,13
 655 236 655 236 689 268 c 1,14,-1
 689 663 l 1,15,-1
 551 722 l 1,16,-1
 573 872 l 1,17,-1
 899 907 l 1,18,-1
 936 868 l 1,19,-1
 936 294 l 2,20,21
 936 222 936 222 962 194 c 128,-1,22
 988 166 988 166 1059 146 c 2,23,-1
 1095 136 l 1,24,-1
 1079 10 l 1,25,26
 973 -29 973 -29 880 -29 c 0,27,28
 800 -29 800 -29 754 9 c 128,-1,29
 708 47 708 47 708 118 c 2,30,-1
 708 130 l 1,31,-1
 695 132 l 1,32,33
 647 55 647 55 573.5 14 c 128,-1,34
 500 -27 500 -27 417 -27 c 0,35,36
 289 -27 289 -27 230.5 41.5 c 128,-1,37
 172 110 172 110 172 267 c 2,38,-1
 172 670 l 1,39,-1
 41 750 l 1,4,-1
EndSplineSet
Colour: ffff
EndChar

StartChar: ucircumflex
Encoding: 251 251 198
Width: 1102
VWidth: 0
Flags: HMW
LayerCount: 2
Fore
SplineSet
840 1037 m 1,0,-1
 671 1002 l 1,1,-1
 567 1087 l 1,2,-1
 557 1087 l 1,3,-1
 470 996 l 1,4,-1
 309 1020 l 1,5,-1
 473 1236 l 1,6,-1
 660 1257 l 1,7,-1
 840 1037 l 1,0,-1
41 750 m 1,8,-1
 65 882 l 1,9,-1
 381 903 l 1,10,-1
 421 864 l 1,11,-1
 421 393 l 2,12,13
 421 291 421 291 450.5 248 c 128,-1,14
 480 205 480 205 539 205 c 0,15,16
 587 205 587 205 621 220.5 c 128,-1,17
 655 236 655 236 689 268 c 1,18,-1
 689 663 l 1,19,-1
 551 722 l 1,20,-1
 573 872 l 1,21,-1
 899 907 l 1,22,-1
 936 868 l 1,23,-1
 936 294 l 2,24,25
 936 222 936 222 962 194 c 128,-1,26
 988 166 988 166 1059 146 c 2,27,-1
 1095 136 l 1,28,-1
 1079 10 l 1,29,30
 973 -29 973 -29 880 -29 c 0,31,32
 800 -29 800 -29 754 9 c 128,-1,33
 708 47 708 47 708 118 c 2,34,-1
 708 130 l 1,35,-1
 695 132 l 1,36,37
 647 55 647 55 573.5 14 c 128,-1,38
 500 -27 500 -27 417 -27 c 0,39,40
 289 -27 289 -27 230.5 41.5 c 128,-1,41
 172 110 172 110 172 267 c 2,42,-1
 172 670 l 1,43,-1
 41 750 l 1,8,-1
EndSplineSet
Colour: ffff
EndChar

StartChar: udieresis
Encoding: 252 252 199
Width: 1102
VWidth: 0
Flags: HMW
LayerCount: 2
Fore
SplineSet
612 1146 m 0,0,1
 612 1183 612 1183 640 1210.5 c 128,-1,2
 668 1238 668 1238 721 1238 c 0,3,4
 776 1238 776 1238 804.5 1211 c 128,-1,5
 833 1184 833 1184 833 1146 c 0,6,7
 833 1104 833 1104 804.5 1076.5 c 128,-1,8
 776 1049 776 1049 720.5 1049 c 128,-1,9
 665 1049 665 1049 638.5 1077 c 128,-1,10
 612 1105 612 1105 612 1146 c 0,0,1
304 1146 m 0,11,12
 304 1183 304 1183 331.5 1210.5 c 128,-1,13
 359 1238 359 1238 412 1238 c 0,14,15
 467 1238 467 1238 495.5 1211 c 128,-1,16
 524 1184 524 1184 524 1146 c 0,17,18
 524 1104 524 1104 495.5 1076.5 c 128,-1,19
 467 1049 467 1049 411.5 1049 c 128,-1,20
 356 1049 356 1049 330 1077 c 128,-1,21
 304 1105 304 1105 304 1146 c 0,11,12
41 750 m 1,22,-1
 65 882 l 1,23,-1
 381 903 l 1,24,-1
 421 864 l 1,25,-1
 421 393 l 2,26,27
 421 291 421 291 450.5 248 c 128,-1,28
 480 205 480 205 539 205 c 0,29,30
 587 205 587 205 621 220.5 c 128,-1,31
 655 236 655 236 689 268 c 1,32,-1
 689 663 l 1,33,-1
 551 722 l 1,34,-1
 573 872 l 1,35,-1
 899 907 l 1,36,-1
 936 868 l 1,37,-1
 936 294 l 2,38,39
 936 222 936 222 962 194 c 128,-1,40
 988 166 988 166 1059 146 c 2,41,-1
 1095 136 l 1,42,-1
 1079 10 l 1,43,44
 973 -29 973 -29 880 -29 c 0,45,46
 800 -29 800 -29 754 9 c 128,-1,47
 708 47 708 47 708 118 c 2,48,-1
 708 130 l 1,49,-1
 695 132 l 1,50,51
 647 55 647 55 573.5 14 c 128,-1,52
 500 -27 500 -27 417 -27 c 0,53,54
 289 -27 289 -27 230.5 41.5 c 128,-1,55
 172 110 172 110 172 267 c 2,56,-1
 172 670 l 1,57,-1
 41 750 l 1,22,-1
EndSplineSet
Colour: ffff
EndChar

StartChar: ugrave
Encoding: 249 249 200
Width: 1102
VWidth: 0
Flags: HMW
LayerCount: 2
Fore
SplineSet
341 1384 m 1,0,-1
 558 1422 l 1,1,-1
 698 1082 l 1,2,-1
 541 1049 l 1,3,-1
 341 1384 l 1,0,-1
41 750 m 1,4,-1
 65 882 l 1,5,-1
 381 903 l 1,6,-1
 421 864 l 1,7,-1
 421 393 l 2,8,9
 421 291 421 291 450.5 248 c 128,-1,10
 480 205 480 205 539 205 c 0,11,12
 587 205 587 205 621 220.5 c 128,-1,13
 655 236 655 236 689 268 c 1,14,-1
 689 663 l 1,15,-1
 551 722 l 1,16,-1
 573 872 l 1,17,-1
 899 907 l 1,18,-1
 936 868 l 1,19,-1
 936 294 l 2,20,21
 936 222 936 222 962 194 c 128,-1,22
 988 166 988 166 1059 146 c 2,23,-1
 1095 136 l 1,24,-1
 1079 10 l 1,25,26
 973 -29 973 -29 880 -29 c 0,27,28
 800 -29 800 -29 754 9 c 128,-1,29
 708 47 708 47 708 118 c 2,30,-1
 708 130 l 1,31,-1
 695 132 l 1,32,33
 647 55 647 55 573.5 14 c 128,-1,34
 500 -27 500 -27 417 -27 c 0,35,36
 289 -27 289 -27 230.5 41.5 c 128,-1,37
 172 110 172 110 172 267 c 2,38,-1
 172 670 l 1,39,-1
 41 750 l 1,4,-1
EndSplineSet
Colour: ffff
EndChar

StartChar: underscore
Encoding: 95 95 201
Width: 961
VWidth: 0
Flags: HMW
LayerCount: 2
Fore
SplineSet
60 -131 m 1,0,-1
 74 12 l 1,1,-1
 901 12 l 1,2,-1
 888 -131 l 1,3,-1
 60 -131 l 1,0,-1
EndSplineSet
Colour: ffff
EndChar

